<svg width="171" height="109" viewBox="0 0 171 109" fill="none" xmlns="http://www.w3.org/2000/svg">
<g clip-path="url(#clip0_117_663)">
<path d="M87.5602 100.816L51.5036 80.0367C50.365 79.3828 49.0749 79.0387 47.7619 79.0387C46.4489 79.0387 45.1588 79.3828 44.0202 80.0367L32.8451 86.4497C31.7081 87.1084 30.4174 87.4554 29.1034 87.4554C27.7893 87.4554 26.4986 87.1084 25.3616 86.4497L4.72217 74.5342C4.57008 74.4464 4.39756 74.4002 4.22194 74.4002C4.04632 74.4002 3.8738 74.4464 3.72171 74.5342L1.00046 76.1149C0.699571 76.2915 0.450067 76.5436 0.276698 76.8463C0.103329 77.1491 0.012121 77.4919 0.012121 77.8407C0.012121 78.1896 0.103329 78.5324 0.276698 78.8351C0.450067 79.1378 0.699571 79.39 1.00046 79.5665L25.3616 93.6329C26.4986 94.2917 27.7893 94.6387 29.1034 94.6387C30.4174 94.6387 31.7081 94.2917 32.8451 93.6329L44.0202 87.18C45.1572 86.5212 46.4479 86.1743 47.7619 86.1743C49.0759 86.1743 50.3667 86.5212 51.5036 87.18L87.5202 108C88.6584 108.67 89.9539 109.028 91.2751 109.037C92.5964 109.046 93.8965 108.705 95.0436 108.05L119.415 93.9831C119.716 93.8066 119.965 93.5544 120.139 93.2517C120.312 92.949 120.403 92.6062 120.403 92.2573C120.403 91.9085 120.312 91.5657 120.139 91.2629C119.965 90.9602 119.716 90.7081 119.415 90.5315L116.684 88.9508C116.531 88.863 116.359 88.8168 116.183 88.8168C116.008 88.8168 115.835 88.863 115.683 88.9508L95.0436 100.816C93.9056 101.472 92.6153 101.817 91.3019 101.817C89.9885 101.817 88.6981 101.472 87.5602 100.816Z" fill="black"/>
<path d="M165.426 74.5342L144.786 86.4497C143.651 87.1085 142.362 87.4556 141.05 87.4556C139.737 87.4556 138.448 87.1085 137.313 86.4497L116.674 74.5342C116.521 74.4464 116.349 74.4002 116.173 74.4002C115.998 74.4002 115.825 74.4464 115.673 74.5342L95.0436 86.4497C93.9085 87.1085 92.6194 87.4556 91.3069 87.4556C89.9944 87.4556 88.7053 87.1085 87.5702 86.4497L51.5536 65.6301C50.415 64.9762 49.1249 64.6321 47.8119 64.6321C46.4989 64.6321 45.2088 64.9762 44.0702 65.6301L32.8451 72.0931C31.7065 72.747 30.4164 73.091 29.1034 73.091C27.7903 73.091 26.5002 72.747 25.3616 72.0931L4.72217 60.1776C4.57008 60.0898 4.39756 60.0436 4.22194 60.0436C4.04632 60.0436 3.8738 60.0898 3.72171 60.1776L1.00046 61.7483C0.699571 61.9249 0.450067 62.177 0.276698 62.4797C0.103329 62.7825 0.012121 63.1253 0.012121 63.4741C0.012121 63.823 0.103329 64.1658 0.276698 64.4685C0.450067 64.7712 0.699571 65.0234 1.00046 65.1999L25.3616 79.2764C26.5002 79.9302 27.7903 80.2743 29.1034 80.2743C30.4164 80.2743 31.7065 79.9302 32.8451 79.2764L44.0202 72.8134C45.1588 72.1595 46.4489 71.8154 47.7619 71.8154C49.0749 71.8154 50.365 72.1595 51.5036 72.8134L87.5202 93.6329C88.6553 94.2918 89.9444 94.6389 91.2569 94.6389C92.5693 94.6389 93.8585 94.2918 94.9936 93.6329L115.633 81.7175C115.785 81.6297 115.958 81.5835 116.133 81.5835C116.309 81.5835 116.481 81.6297 116.634 81.7175L137.273 93.6329C138.408 94.2918 139.697 94.6389 141.01 94.6389C142.322 94.6389 143.611 94.2918 144.746 93.6329L169.118 79.5665C169.418 79.39 169.668 79.1378 169.841 78.8351C170.015 78.5324 170.106 78.1896 170.106 77.8407C170.106 77.4919 170.015 77.1491 169.841 76.8463C169.668 76.5436 169.418 76.2915 169.118 76.1149L166.386 74.5342C166.239 74.4536 166.074 74.4114 165.906 74.4114C165.738 74.4114 165.573 74.4536 165.426 74.5342Z" fill="black"/>
<path d="M137.313 72.0931L81.3373 39.7682C81.0859 39.6235 80.877 39.415 80.7318 39.1639C80.5866 38.9127 80.5101 38.6277 80.5101 38.3376C80.5101 38.0475 80.5866 37.7625 80.7318 37.5113C80.877 37.2601 81.0859 37.0517 81.3373 36.9069C82.4741 36.253 83.7626 35.9088 85.074 35.9088C86.3855 35.9088 87.674 36.253 88.8107 36.9069L137.313 64.9198C138.45 65.5738 139.738 65.9179 141.05 65.9179C142.361 65.9179 143.65 65.5738 144.786 64.9198L169.158 50.8533C169.461 50.6774 169.712 50.425 169.887 50.1212C170.062 49.8175 170.155 49.4731 170.155 49.1225C170.155 48.772 170.062 48.4276 169.887 48.1238C169.712 47.8201 169.461 47.5676 169.158 47.3917L88.8207 1.00046C87.684 0.34648 86.3955 0.00229369 85.084 0.00229369C83.7726 0.00229369 82.4841 0.34648 81.3473 1.00046L1.00046 47.3817C0.697238 47.5576 0.44555 47.8101 0.270591 48.1138C0.0956315 48.4176 0.00354166 48.762 0.00354166 49.1125C0.00354166 49.4631 0.0956315 49.8075 0.270591 50.1112C0.44555 50.415 0.697238 50.6674 1.00046 50.8433L25.3616 64.9098C26.5002 65.5637 27.7903 65.9077 29.1033 65.9077C30.4164 65.9077 31.7065 65.5637 32.8451 64.9098L44.0202 58.4568C45.1571 57.798 46.4479 57.4511 47.7619 57.4511C49.0759 57.4511 50.3667 57.798 51.5036 58.4568L87.5202 79.2764C88.6569 79.9303 89.9454 80.2745 91.2569 80.2745C92.5683 80.2745 93.8568 79.9303 94.9936 79.2764L115.633 67.3509C115.785 67.2631 115.958 67.2169 116.133 67.2169C116.309 67.2169 116.481 67.2631 116.634 67.3509L137.273 79.2764C138.41 79.9303 139.698 80.2745 141.01 80.2745C142.321 80.2745 143.61 79.9303 144.746 79.2764L169.118 65.1999C169.418 65.0234 169.668 64.7712 169.841 64.4685C170.015 64.1658 170.106 63.823 170.106 63.4741C170.106 63.1253 170.015 62.7825 169.841 62.4797C169.668 62.177 169.418 61.9249 169.118 61.7483L166.386 60.1676C166.234 60.0798 166.062 60.0336 165.886 60.0336C165.71 60.0336 165.538 60.0798 165.386 60.1676L144.786 72.0931C143.65 72.747 142.361 73.0912 141.05 73.0912C139.738 73.0912 138.45 72.747 137.313 72.0931Z" fill="black"/>
</g>
<defs>
<clipPath id="clip0_117_663">
<rect width="170.08" height="108.95" fill="white" transform="scale(1.00046)"/>
</clipPath>
</defs>
</svg>
