<svg width="24" height="24" viewBox="0 0 28 28">
 <path d="M25.2 28H2.8A2.8 2.8 0 0 1 0 25.2V2.8A2.8 2.8 0 0 1 2.8 0h22.4A2.8 2.8 0 0 1 28 2.8v22.4a2.8 2.8 0 0 1-2.8 2.8"/>
 <path fill="#fff" d="M23.918 4.082c-.831-.83-3.342.334-4.173 1.165l-4.124 4.124-10-1.274a1.38 1.38 0 0 0-1.15.393L3.204 9.758l7.728 4.88-3.107 3.49-3.303.08a.345.345 0 0 0-.235.588l4.918 4.918c.214.215.58.067.589-.235l.08-3.303 3.488-3.106 4.88 7.727 1.27-1.269a1.38 1.38 0 0 0 .392-1.148L18.63 12.378l4.124-4.124c.83-.83 1.994-3.34 1.164-4.172"/>
</svg>
