<svg viewBox="0 0 36 36"><path fill="#333" d="M6.8 19.96q0 .52.358.88t.898.36a1.16 1.16 0 0 0 .864-.368 1.2 1.2 0 0 0 .358-.871v-3.465h2.739q2.425 0 4.004-1.284 1.53-1.243 1.577-3.456l.002-.18q0-2.172-1.43-3.474Q14.738 6.8 12.314 6.8H8.056a1.2 1.2 0 0 0-.898.368 1.25 1.25 0 0 0-.358.907zm2.478-5.709V9.116h2.808q1.396 0 2.208.638.776.61.81 1.786v.144q0 1.13-.81 1.849t-2.208.718zm8.732 10.613c-.128-.482-.29-.864-.5-1.12l-.547.683.228.437zm8.067 4.68c.109 0 .2-.009.245-.037 1.02-.081 1.821-.5 2.422-1.256.574-.71.856-1.493.856-2.349 0-.528-.11-1.02-.318-1.484a3.9 3.9 0 0 0-.865-1.21c-.702-.638-1.503-.947-2.423-.947h-.336c-.055 0-.128.009-.237.017a1.2 1.2 0 0 0-.355.101l.364.755c.072-.027.419-.072.492-.072h.072c.684 0 1.312.255 1.885.756.592.61.892 1.301.892 2.093a2.7 2.7 0 0 1-.664 1.784 2.4 2.4 0 0 1-.984.775 3 3 0 0 1-1.174.255c-.674.009-1.293-.219-1.866-.702-.601-.618-.893-1.329-.893-2.112-.008-.637.156-1.174.492-1.63l-.419-.791-.036.081q-.858 1.066-.856 2.35c0 1.056.4 1.957 1.202 2.694.701.638 1.493.947 2.376.947h.128zm-11.499 0c1.038 0 1.894-.374 2.568-1.102.445-.456.746-.964.892-1.548h-.847c-.1.347-.3.684-.61.992-.555.556-1.21.839-1.967.839-.773 0-1.43-.283-1.976-.838-.545-.556-.819-1.22-.819-1.976 0-.792.264-1.448.783-1.976.574-.582 1.23-.873 1.984-.873.228 0 .502.036.82.118l.51-.692a3.8 3.8 0 0 0-1.338-.237c-.992 0-1.83.355-2.53 1.066-.702.71-1.048 1.574-1.048 2.576 0 1.011.346 1.866 1.047 2.577.701.72 1.539 1.074 2.531 1.074m4.88-4.08h-4.024l2.458-3.258zm.701-.363-1.566-3.26h3.942a40 40 0 0 1-1.565 2.15c-.438.609-.71.983-.81 1.11m-.156 1.201.073-.036c.218-.008.392-.118.51-.328l.427-.646a36 36 0 0 0 2.304-3.16l.974 1.94a6.9 6.9 0 0 0 1.375 2.012q.19.218.383.218a.43.43 0 0 0 .4-.254q.108-.271-.11-.5c-.573-.647-1-1.257-1.292-1.84l-1.029-2.02a.7.7 0 0 1-.037-.274c0-.064.028-.173.073-.328l.264-.346c.347-.428.528-.765.556-1.029.055-.164.072-.282.072-.328 0-.273-.072-.5-.227-.682a1.19 1.19 0 0 0-.983-.501h-.119c-.345.009-.673.164-.964.464a.4.4 0 0 0-.119.3c0 .12.027.22.072.3a.43.43 0 0 0 .31.12.35.35 0 0 0 .283-.12q.272-.271.491-.271c.136 0 .264.053.364.154.073.155.091.282.037.391-.009.128-.146.364-.4.72l-.346.446-.192.273-.036.037h-4.916l-.728-1.512a2 2 0 0 1 .782-.155l.228-.037c.282 0 .418-.127.418-.39a.31.31 0 0 0-.136-.274.56.56 0 0 0-.319-.1h-2.613c-.364.008-.555.136-.555.364 0 .237.128.419.392.556s.564.2.901.2h.072l.82 1.748-3.15 4.216a.64.64 0 0 0-.072.308c0 .101.054.183.154.228a.32.32 0 0 0 .264.136z"/></svg>