<svg viewBox="0 0 36 36">
    <path fill="#333" d="M5.16 20.952q0 .624.43 1.056t1.077.432a1.4 1.4 0 0 0 1.037-.442 1.44 1.44 0 0 0 .43-1.045v-4.158h3.286q2.91 0 4.805-1.54 1.836-1.492 1.893-4.148l.002-.216q0-2.606-1.716-4.169-1.718-1.562-4.627-1.562h-5.11a1.44 1.44 0 0 0-1.077.442 1.5 1.5 0 0 0-.43 1.088zm2.974-6.85V7.938h3.37q1.674 0 2.649.766.931.732.972 2.143v.173q0 1.356-.972 2.219t-2.65.861zm10.478 12.735c-.154-.579-.348-1.037-.6-1.344l-.656.82.273.524zm9.68 5.616c.131 0 .24-.011.294-.045 1.224-.097 2.186-.6 2.907-1.507.689-.852 1.027-1.791 1.027-2.819 0-.633-.132-1.224-.382-1.78A4.7 4.7 0 0 0 31.1 24.85c-.842-.766-1.803-1.137-2.907-1.137h-.403c-.066 0-.154.011-.285.02a1.4 1.4 0 0 0-.426.122l.437.906c.086-.033.503-.087.59-.087h.087c.82 0 1.574.306 2.262.908.71.732 1.07 1.56 1.07 2.511a3.24 3.24 0 0 1-.797 2.141 2.9 2.9 0 0 1-1.18.93 3.6 3.6 0 0 1-1.41.306c-.808.01-1.55-.263-2.238-.842-.722-.742-1.072-1.595-1.072-2.535-.01-.764.187-1.409.59-1.956l-.502-.949-.044.097q-1.03 1.28-1.027 2.82c0 1.267.48 2.349 1.443 3.233.84.766 1.791 1.136 2.85 1.136h.154zm-13.798 0c1.245 0 2.272-.449 3.081-1.323.534-.547.895-1.156 1.07-1.857H17.63c-.12.416-.36.82-.732 1.19-.666.667-1.452 1.007-2.36 1.007-.928 0-1.716-.34-2.371-1.006-.654-.667-.983-1.464-.983-2.37 0-.951.317-1.738.94-2.372.688-.698 1.475-1.048 2.38-1.048.274 0 .603.044.984.142l.612-.83a4.6 4.6 0 0 0-1.605-.285c-1.19 0-2.196.426-3.036 1.28-.843.851-1.258 1.888-1.258 3.09 0 1.214.415 2.24 1.256 3.093.842.864 1.847 1.289 3.038 1.289m5.856-4.896h-4.83l2.95-3.91zm.84-.436-1.878-3.912h4.73a48 48 0 0 1-1.878 2.58c-.526.731-.852 1.18-.972 1.332m-.187 1.441.087-.043c.262-.01.47-.141.612-.393l.513-.776a43 43 0 0 0 2.765-3.792l1.168 2.328a8.3 8.3 0 0 0 1.65 2.415q.228.261.46.261a.52.52 0 0 0 .48-.304q.13-.326-.132-.6c-.688-.777-1.2-1.509-1.55-2.208l-1.235-2.424a.8.8 0 0 1-.045-.33c0-.076.034-.207.088-.393l.317-.415c.416-.514.633-.918.667-1.235.066-.197.086-.338.086-.393 0-.328-.086-.6-.272-.819a1.43 1.43 0 0 0-1.18-.601h-.142c-.414.01-.808.197-1.157.557a.48.48 0 0 0-.143.36c0 .144.032.264.086.36a.52.52 0 0 0 .372.144.42.42 0 0 0 .34-.144q.326-.325.59-.325c.162 0 .316.063.436.184.088.186.11.339.044.47-.01.153-.175.436-.48.864l-.415.535-.23.327-.043.045h-5.9l-.873-1.815a2.4 2.4 0 0 1 .938-.186l.274-.044c.338 0 .501-.152.501-.468a.37.37 0 0 0-.163-.329.67.67 0 0 0-.383-.12h-3.135c-.437.01-.666.163-.666.437 0 .284.153.503.47.667s.677.24 1.081.24h.087l.984 2.098-3.78 5.059a.8.8 0 0 0-.087.37c0 .12.065.22.185.273a.38.38 0 0 0 .317.163z"/>
</svg>
