<svg width="20" height="18" viewBox="0 0 20 18">
 <path fill-rule="evenodd" d="M3.27 1.612v1.092c0 .604.488 1.093 1.09 1.093s1.09-.49 1.09-1.093V1.612h8.175v1.092c0 .604.488 1.093 1.09 1.093.601 0 1.09-.49 1.09-1.093V1.612h2.18c.602 0 1.09.49 1.09 1.092v14.203c0 .604-.488 1.093-1.09 1.093H1.09C.488 18 0 17.51 0 16.907V2.704c0-.603.488-1.092 1.09-1.092zm14.714 4.37H1.09v10.925h16.894zm-6.297 7.921a.806.806 0 1 1 0 1.612.806.806 0 0 1 0-1.612m-2.15 0a.806.806 0 1 1 0 1.612.806.806 0 0 1 0-1.612m-2.15 0a.806.806 0 1 1 0 1.613.806.806 0 0 1 0-1.613m-2.215 0a.806.806 0 1 1 0 1.612.806.806 0 0 1 0-1.612m-2.15 0a.806.806 0 1 1 0 1.612.806.806 0 0 1 0-1.612m13.03-2.15a.806.806 0 1 1 0 1.613.806.806 0 0 1 0-1.612m-2.15 0a.806.806 0 1 1 .001 1.613.806.806 0 0 1 0-1.612m-2.215 0a.806.806 0 1 1 0 1.613.806.806 0 0 1 0-1.612m-2.15 0a.806.806 0 1 1 0 1.613.806.806 0 0 1 0-1.612m-2.15 0a.806.806 0 1 1 0 1.613.806.806 0 0 1 0-1.612m-2.215 0a.806.806 0 1 1 0 1.612.806.806 0 0 1 0-1.611m-2.15 0a.806.806 0 1 1 0 1.612.806.806 0 0 1 0-1.611m13.03-2.216a.806.806 0 1 1 0 1.613.806.806 0 0 1 0-1.613m-2.15 0a.806.806 0 1 1 .001 1.612.806.806 0 0 1 0-1.612m-2.215 0a.806.806 0 1 1 0 1.612.806.806 0 0 1 0-1.612m-2.15 0a.806.806 0 1 1 0 1.613.806.806 0 0 1 0-1.613m-2.15 0a.806.806 0 1 1 0 1.613.806.806 0 0 1 0-1.613m-2.215 0a.806.806 0 1 1 0 1.612.806.806 0 0 1 0-1.612m-2.15 0a.806.806 0 1 1 0 1.612.806.806 0 0 1 0-1.612m13.03-2.149a.806.806 0 1 1 0 1.613.806.806 0 0 1 0-1.613m-2.15 0a.806.806 0 1 1 0 1.612.806.806 0 0 1 0-1.612m-2.215 0A.806.806 0 1 1 11.686 9a.806.806 0 0 1 0-1.612m-2.15 0a.806.806 0 1 1 0 1.613.806.806 0 0 1 0-1.613M14.71 0c.296 0 .537.245.537.548v2.195c0 .302-.24.548-.537.548a.543.543 0 0 1-.537-.548V.548c0-.303.24-.548.537-.548M4.366 0c.296 0 .537.245.537.548v2.195c0 .302-.24.548-.537.548a.543.543 0 0 1-.538-.548V.548c0-.303.24-.548.538-.548"/>
</svg>
