<svg viewBox="0 0 36 36">
 <path fill="#007ac9" d="M0 4.5A4.5 4.5 0 0 1 4.5 0h27A4.5 4.5 0 0 1 36 4.5v27a4.5 4.5 0 0 1-4.5 4.5h-27A4.5 4.5 0 0 1 0 31.5z"/>
 <path fill="#fff" d="M4.5 20.951q0 .65.447 1.1t1.123.449a1.45 1.45 0 0 0 1.08-.46 1.5 1.5 0 0 0 .447-1.089V16.62h3.424q3.032 0 5.005-1.605 1.912-1.554 1.972-4.32L18 10.47q0-2.715-1.788-4.343-1.79-1.627-4.82-1.627H6.07a1.5 1.5 0 0 0-1.123.46A1.56 1.56 0 0 0 4.5 6.094zm3.097-7.137V7.395h3.511q1.744 0 2.76.797.969.762 1.011 2.233l.002.18q0 1.413-1.014 2.311t-2.759.898zM31.663 22.232c-.032-.478-.542-.829-1.052-.797l-1.657.319-1.148-2.04c-.478-.893-.86-1.307-2.008-1.498-1.243-.16-2.263-.287-4.048-.287-1.817 0-2.741.127-3.984.287-1.148.19-1.53.605-2.009 1.498l-1.147 2.04-1.69-.319c-.541-.032-1.02.319-1.051.797-.064.478.255.86.733.988l1.18.287c-.83.605-1.18 1.753-1.18 2.55v2.932c0 .765.574 1.435 1.466 1.594v1.69c0 .255.223.382.478.382h1.69c.223 0 .446-.127.446-.383V30.87c1.37.064 3.187.191 5.068.191 1.849 0 3.73-.127 5.068-.191v1.402c0 .256.223.383.446.383h1.69c.255 0 .478-.127.478-.383v-1.689c.924-.16 1.498-.829 1.498-1.594v-2.932c0-.797-.319-1.944-1.148-2.55l1.116-.287c.51-.127.829-.51.765-.988m-13.93 4.367c0 .446-.382.733-.828.733H15.12c-.446 0-.86-.287-.86-.733v-.893l3.474.35zm-.956-6.47c.255-.543.542-.766 1.116-.893 1.116-.224 2.104-.287 3.857-.287s2.805.063 3.92.287c.574.127.861.35 1.116.892l1.466 2.996c-2.103.32-4.27.383-6.375.383-2.23 0-4.653-.128-6.566-.383zm12.56 6.47c0 .446-.415.733-.861.733h-1.722c-.446 0-.828-.287-.828-.733v-.542l3.41-.35z"/>
</svg>
