<svg viewBox="0 0 36 36"><path fill="#fff" d="M6.8 19.96q0 .52.358.88t.898.36a1.16 1.16 0 0 0 .864-.368 1.2 1.2 0 0 0 .358-.871v-3.465h2.739q2.425 0 4.004-1.284 1.53-1.243 1.577-3.456l.002-.18q0-2.172-1.43-3.474Q14.738 6.8 12.314 6.8H8.056a1.2 1.2 0 0 0-.898.368 1.25 1.25 0 0 0-.358.907zm2.478-5.709V9.116h2.808q1.396 0 2.208.638.776.61.81 1.786v.144q0 1.13-.81 1.849t-2.208.718zm19.252 6.735c-.025-.383-.433-.664-.841-.638l-1.326.255-.918-1.632c-.383-.714-.688-1.045-1.607-1.198-.994-.128-1.81-.23-3.238-.23-1.454 0-2.193.102-3.187.23-.919.152-1.224.484-1.607 1.198l-.918 1.632-1.352-.255c-.433-.026-.816.255-.84.638-.052.382.203.688.586.79l.944.23c-.664.484-.944 1.402-.944 2.04v2.345c0 .612.459 1.148 1.172 1.275v1.352c0 .204.179.306.383.306h1.352c.178 0 .357-.102.357-.306v-1.122c1.096.051 2.55.153 4.054.153 1.48 0 2.984-.102 4.054-.153v1.122c0 .204.179.306.357.306h1.352c.204 0 .383-.102.383-.306v-1.352c.739-.128 1.198-.663 1.198-1.275v-2.345c0-.638-.255-1.556-.918-2.04l.892-.23c.408-.102.664-.408.612-.79m-11.144 3.493c0 .357-.305.587-.662.587h-1.428c-.357 0-.688-.23-.688-.587v-.714l2.78.28zm-.764-5.176c.204-.434.433-.613.892-.714.893-.18 1.684-.23 3.086-.23s2.244.05 3.136.23c.46.101.689.28.893.713l1.173 2.397c-1.683.256-3.416.307-5.1.307-1.784 0-3.723-.103-5.253-.307zM26.67 24.48c0 .357-.332.587-.69.587h-1.377c-.357 0-.662-.23-.662-.587v-.433l2.728-.28z"/></svg>