<svg viewBox="0 0 36 36">
    <path fill="#fff" d="M5.16 20.952q0 .624.43 1.056t1.077.432a1.4 1.4 0 0 0 1.037-.442 1.44 1.44 0 0 0 .43-1.045v-4.158h3.286q2.91 0 4.805-1.54 1.836-1.492 1.893-4.148l.002-.216q0-2.606-1.716-4.169-1.718-1.562-4.627-1.562h-5.11a1.44 1.44 0 0 0-1.077.442 1.5 1.5 0 0 0-.43 1.088zm2.974-6.85V7.938h3.37q1.674 0 2.649.766.931.732.972 2.143v.173q0 1.356-.972 2.219t-2.65.861zm23.102 8.081c-.03-.46-.52-.797-1.01-.765l-1.59.306-1.102-1.959c-.46-.857-.826-1.254-1.928-1.437-1.193-.154-2.172-.276-3.886-.276-1.745 0-2.632.122-3.824.276-1.103.182-1.47.58-1.929 1.437l-1.101 1.959-1.623-.306c-.52-.032-.979.306-1.008.765-.062.459.244.826.703.948l1.133.276c-.797.581-1.133 1.683-1.133 2.448v2.814c0 .735.551 1.378 1.407 1.53v1.623c0 .244.215.367.46.367h1.622c.213 0 .428-.123.428-.367v-1.347c1.315.061 3.06.184 4.865.184 1.776 0 3.58-.123 4.865-.184v1.347c0 .244.215.367.428.367h1.623c.244 0 .46-.123.46-.367v-1.623c.886-.153 1.437-.795 1.437-1.53v-2.814c0-.765-.306-1.867-1.102-2.448l1.07-.276c.49-.122.797-.49.735-.948m-13.373 4.192c0 .428-.366.704-.794.704h-1.714c-.428 0-.825-.276-.825-.704v-.857l3.336.336zm-.917-6.211c.245-.521.52-.736 1.07-.857 1.072-.216 2.022-.276 3.704-.276s2.693.06 3.763.276c.552.121.827.336 1.072.855l1.407 2.877c-2.02.307-4.099.368-6.12.368-2.14 0-4.467-.123-6.303-.368zm12.058 6.212c0 .428-.398.704-.828.704h-1.652c-.429 0-.795-.276-.795-.704v-.52l3.274-.336z"/>
</svg>
