<svg viewBox="0 0 16 22">
    <circle cx="8" cy="8" r="7.6"/>
    <path fill="#fff" d="M10.246 8.054H8.83a.13.13 0 0 1-.12-.104l-.14-.871a.087.087 0 0 1 .088-.105H9.82a.17.17 0 0 1 .143.098l.348.884c.022.054-.008.098-.065.098m-1.795 0H7.353a.105.105 0 0 1-.104-.106V7.08c0-.058.047-.106.104-.106h.925c.058 0 .112.047.121.105l.14.87a.087.087 0 0 1-.088.105m-1.369-.106a.105.105 0 0 1-.104.106H5.704a.105.105 0 0 1-.104-.106V7.08c0-.058.047-.106.104-.106h1.274c.057 0 .104.048.104.106zm-1.65 0a.105.105 0 0 1-.103.106H4.61a.105.105 0 0 1-.104-.106V7.08c0-.058.047-.106.104-.106h.718c.057 0 .104.048.104.106zm7.119.578h-1.606a.06.06 0 0 1-.058-.034c-.02-.037-.678-1.518-.678-1.518h.114c.043 0 .102-.06.102-.133a.133.133 0 0 0-.131-.133h-1.66l-.394-.763a.05.05 0 0 0-.04-.025h-.08c-.014 0-.023.012-.02.026l.061.212h-.167c-.022 0-.04.018-.04.041s.018.042.04.042h.191l.133.467H4.2a.133.133 0 0 0-.132.133c0 .074.06.133.162.133h.013l-.159 1.552h-.452L3.8 10.08c.397 0 .756-.17 1.008-.44a1.375 1.375 0 0 0 2.017 0 1.374 1.374 0 0 0 2.017 0 1.374 1.374 0 0 0 2.016 0c.152.163.343.289.557.363l1.15-1.431c.019-.025.014-.046-.014-.046"/>
    <path fill="#333" d="M7.2 15.2h1.6v5.6a.8.8 0 1 1-1.6 0z"/>
</svg>
