<svg viewBox="0 0 16 22">
    <circle cx="8" cy="8" r="7.6"/>
    <path fill="#fff" fill-rule="evenodd" d="M6.843 4.158c0-.06.052-.11.117-.11h1.872c.065 0 .117.05.117.11v.768h1.287c.258 0 .468.197.468.44v2.536c0 .069-.053.11-.117.09L8 7.237a.5.5 0 0 0-.234 0l-2.562.76c-.064.018-.117-.022-.117-.09V5.364c0-.242.21-.439.468-.439h1.287zm-1.17 1.646c-.065 0-.117.05-.117.11v.44c0 .06.052.11.117.11h.936c.065 0 .117-.05.117-.11v-.44c0-.06-.052-.11-.117-.11zm1.755 0c-.065 0-.117.05-.117.11v.44c0 .06.052.11.117.11h.936c.065 0 .117-.05.117-.11v-.44c0-.06-.052-.11-.117-.11zm1.638.11c0-.06.052-.11.117-.11h.936c.065 0 .117.05.117.11v.44c0 .06-.052.11-.117.11h-.936c-.065 0-.117-.05-.117-.11z"/>
    <path fill="#fff" d="m7.995 7.805 3.863.969a.126.126 0 0 1 .09.156l-.395 1.445c-.32.057-.53.175-.722.283-.243.136-.453.254-.899.254-.445 0-.655-.118-.898-.254h-.001l-.002-.001c-.264-.148-.564-.317-1.135-.317-.573 0-.873.169-1.137.318-.244.136-.454.254-.9.254-.445 0-.655-.118-.898-.254l-.002-.001a2.1 2.1 0 0 0-.72-.282L3.845 8.93a.126.126 0 0 1 .089-.156l3.814-.969a.6.6 0 0 1 .247 0"/>
    <path fill="#fff" d="M10.82 11.072c-.243.159-.453.295-.896.295-.444 0-.654-.137-.896-.295-.264-.172-.563-.368-1.133-.368s-.868.195-1.132.368c-.242.159-.451.295-.895.295s-.654-.137-.896-.295c-.263-.172-.562-.368-1.132-.368v.585c.444 0 .653.137.896.295.263.172.562.368 1.132.368s.869-.195 1.133-.368c.242-.159.451-.295.895-.295s.653.137.895.295c.264.172.563.368 1.133.368s.869-.195 1.132-.368c.243-.159.452-.295.896-.295v-.585c-.57 0-.87.195-1.133.368"/>
    <path fill="#333" d="M7.2 15.2h1.6v5.6a.8.8 0 1 1-1.6 0z"/>
</svg>
