<svg width="20" height="18" viewBox="0 0 20 18">
 <path fill="#fff" fill-rule="evenodd" d="M7.75.25A.25.25 0 0 1 8 0h4a.25.25 0 0 1 .25.25V2H15a1 1 0 0 1 1 1v5.777c0 .156-.113.249-.25.206L10.225 7.26a1 1 0 0 0-.5.001L4.25 8.99C4.113 9.033 4 8.94 4 8.784V3a1 1 0 0 1 1-1h2.75zM5.25 4a.25.25 0 0 0-.25.25v1c0 .138.112.25.25.25h2a.25.25 0 0 0 .25-.25v-1A.25.25 0 0 0 7.25 4zM9 4a.25.25 0 0 0-.25.25v1c0 .138.112.25.25.25h2a.25.25 0 0 0 .25-.25v-1A.25.25 0 0 0 11 4zm3.5.25a.25.25 0 0 1 .25-.25h2a.25.25 0 0 1 .25.25v1a.25.25 0 0 1-.25.25h-2a.25.25 0 0 1-.25-.25z" />
 <path fill="#fff" fill-rule="evenodd" d="m10.22 8.49 8.571 2.106c.151.037.24.19.199.34l-.876 3.139c-.708.123-1.175.38-1.6.614-.54.297-1.007.553-1.996.553-.988 0-1.455-.256-1.994-.552h-.002l-.003-.003C11.932 14.365 11.267 14 10 14c-1.27 0-1.935.366-2.523.69-.54.296-1.006.552-1.995.552-.988 0-1.455-.256-1.994-.553l-.004-.002c-.425-.233-.89-.489-1.597-.612l-.876-3.14a.274.274 0 0 1 .199-.34L9.672 8.49a1.4 1.4 0 0 1 .548 0" />
 <path fill="#fff" d="M16.514 15.94c-.54.296-1.007.552-1.996.552s-1.456-.257-1.996-.553c-.587-.322-1.253-.689-2.523-.689s-1.935.366-2.523.69c-.54.296-1.006.552-1.995.552s-1.455-.257-1.995-.553c-.587-.322-1.253-.689-2.523-.689v1.096c.99 0 1.456.256 1.996.552.588.323 1.253.69 2.523.69s1.936-.366 2.523-.69c.54-.297 1.006-.552 1.995-.552s1.455.256 1.996.552c.587.323 1.253.69 2.523.69s1.935-.366 2.523-.69c.54-.297 1.006-.552 1.995-.552V15.25c-1.27 0-1.936.366-2.523.69"/>
</svg>
