<svg viewBox="0 0 1024 1024">
 <path fill="#fff" d="M870.407 993.287H153.596c-67.864 0-122.883-55.015-122.883-122.883V153.593c0-67.864 55.015-122.883 122.883-122.883h716.811c67.864 0 122.883 55.015 122.883 122.883v716.811c0 67.868-55.018 122.883-122.883 122.883"/>
 <path d="M.033 126.799C.033 57.685 57.627.09 126.742.09h767.931c71.676 0 129.27 57.594 129.27 126.709V894.73c0 71.672-57.594 129.27-129.27 129.27H126.742C57.628 1024 .033 966.406.033 894.73zm785.853 3.84C757.73 105.041 636.137 75.603 511.99 75.603c-120.311 0-244.458 29.438-271.335 55.036-19.197 16.636-38.397 55.033-61.434 103.672-19.197 42.234-34.557 81.913-34.557 104.95v369.888c0 29.438 10.238 42.237 49.918 72.954 29.435 23.037 42.234 33.275 87.032 33.275h84.471v55.036h295.654v-55.036h83.192c44.795 0 57.594-10.238 85.754-33.275 39.676-31.996 48.635-43.516 48.635-72.954V339.261c0-23.037-15.357-62.713-33.275-104.95-23.044-48.639-40.962-87.032-60.159-103.672m-34.558 778.173v-53.754h-47.356v53.754H322.568v-53.754h-48.639v53.754h-58.873c-14.078 0-25.598 11.517-25.598 24.316 0 14.078 11.52 25.598 25.598 25.598h596.428c14.078 0 24.316-11.52 24.316-25.598 0-12.799-10.238-24.316-24.316-24.316zM724.451 582.44c-3.836 21.758-25.595 38.397-47.356 38.397H349.441c-21.758 0-43.516-16.639-47.353-38.397l-60.155-254.699c-3.84-21.758 10.238-38.397 31.996-38.397h477.399c21.758 0 37.115 16.639 31.996 38.397zm-17.918-407.006v21.758c0 16.639-12.799 30.717-29.438 30.717H349.441c-16.636 0-30.717-14.078-30.717-30.717v-21.758zM318.727 715.546c0-17.918 12.799-31.996 30.717-31.996s33.278 14.078 33.278 31.996-15.357 30.717-33.278 30.717c-17.918 0-30.717-12.799-30.717-30.717m326.372-3.84c0-17.918 14.078-31.996 31.996-31.996s31.996 14.078 31.996 31.996-14.078 30.717-31.996 30.717-31.996-12.799-31.996-30.717"/>
</svg>
