<svg viewBox="0 0 24 24">
 <path fill="#0046ad" d="M21.6 24H2.4A2.4 2.4 0 0 1 0 21.602v-19.2A2.4 2.4 0 0 1 2.4 0h19.2A2.4 2.4 0 0 1 24 2.4v19.201a2.4 2.4 0 0 1-2.4 2.4"/>
 <path fill="#fff" d="M20.502 3.5c-.712-.713-2.865.286-3.577.998L13.39 8.032 4.818 6.94a1.18 1.18 0 0 0-.985.337L2.746 8.364l6.623 4.184-2.662 2.99-2.832.069a.296.296 0 0 0-.201.505l4.215 4.215a.296.296 0 0 0 .505-.201l.069-2.832 2.99-2.662 4.184 6.623 1.087-1.087c.258-.258.382-.622.337-.985l-1.092-8.573 3.535-3.535c.711-.711 1.71-2.864.997-3.576"/>
</svg>
