<svg width="28" height="28" viewBox="364.958 236 28 28">
 <path d="M390.158 264h-22.4a2.8 2.8 0 0 1-2.8-2.8v-22.4a2.8 2.8 0 0 1 2.8-2.8h22.4a2.8 2.8 0 0 1 2.8 2.8v22.4a2.8 2.8 0 0 1-2.8 2.8"/>
 <path fill="#333" d="M371.176 255.399c-1.511-.625-2.245-2.393-1.636-3.948.449-1.151 1.532-1.903 2.737-1.903.424 0 .844.093 1.229.277l.719-.677c-1.841-1.107-4.206-.47-5.283 1.425-1.076 1.894-.457 4.328 1.384 5.436 1.841 1.109 4.206.47 5.284-1.424a4 4 0 0 0 .371-.886l-.966.017c-.608 1.555-2.326 2.309-3.839 1.683M387.958 249.841a3.82 3.82 0 0 0-2.784-1.237q-.319 0-.633.055l.434.902h.199c1.634.013 2.947 1.386 2.935 3.068-.013 1.681-1.346 3.032-2.98 3.019s-2.948-1.385-2.935-3.066a3.1 3.1 0 0 1 .74-1.991l-.434-.894c-1.547 1.512-1.611 4.026-.142 5.617a3.785 3.785 0 0 0 5.459.145c1.547-1.512 1.61-4.026.141-5.618"/>
 <path fill="#333" d="m382.685 248.123.227.829-.003.001q.01.044.029.081l.004.008.005.016 1.414 2.904v-.003l.404.829a.45.45 0 0 0 .627.171.48.48 0 0 0 .191-.592l-1.808-3.712h-.002l-.524-1.89-.163-.591a.4.4 0 0 1 .187-.456.37.37 0 0 1 .507.161.4.4 0 0 1 .03.075l.322 1.166a.46.46 0 0 0 .416.272h1.727a.45.45 0 0 0 .409-.263l.988-2.079a.48.48 0 0 0-.21-.631.45.45 0 0 0-.247-.044l-1.677.18-1.96.205-.25-.926c-.23-.807-1.023-1.3-1.826-1.135l-.482.103a.48.48 0 0 0-.381.514.46.46 0 0 0 .5.42l.047-.008.504-.108a.65.65 0 0 1 .758.47l.267.927a1.31 1.31 0 0 0-.527 1.047c.002.185.023.372.063.552l-4.828 4.103-1.998-5.417q.404-.114.821-.139l.272-.023a.457.457 0 0 0 .473-.441.46.46 0 0 0-.516-.483h-1.335c-.98 0-1.147-.016-1.71-.016-.333 0-.54.122-.54.381 0 .541.686 1.029 1.333 1.029q.163-.002.321-.036l1.155 3.135-3.731 3.533a.48.48 0 0 0-.03.663.46.46 0 0 0 .334.154h.012l4.388-.071a1.3 1.3 0 0 0-.049.361c0 .727.57 1.315 1.277 1.315.706 0 1.279-.588 1.279-1.315v-.002c0-.203-.048-.406-.137-.588zm-9.214 3.971 2.581-2.441.527 1.455.351.932zm4.431 1.716h-.003a.465.465 0 0 1-.458-.471c0-.261.205-.472.458-.472s.458.211.458.472c0 .257-.202.47-.455.471"/>
</svg>
