<svg viewBox="0 0 1024 1024">
 <path fill="#fff" d="M870.396 993.287H153.582c-67.864 0-122.883-55.015-122.883-122.883V153.593c0-67.864 55.015-122.883 122.883-122.883h716.814c67.864 0 122.883 55.015 122.883 122.883v716.811c-.004 67.868-55.018 122.883-122.883 122.883"/>
 <path d="M.036 126.799C.036 57.685 57.63.09 126.745.09h767.931c71.676 0 129.266 57.594 129.266 126.709V894.73c0 71.672-57.591 129.27-129.266 129.27H126.745C57.631 1024 .036 966.406.036 894.73zm154.865 738.493c-12.799 0-24.316 10.238-24.316 24.319 0 14.078 11.517 24.316 24.316 24.316h714.177c14.078 0 25.598-10.238 25.598-24.316s-11.517-24.319-25.598-24.319zM820.443 582.44s-102.393-26.877-171.507-42.234c-60.155-12.799-134.389-21.758-139.508-21.758s-78.073 8.959-139.508 21.758c-69.114 15.357-171.507 42.234-171.507 42.234l28.159 243.179h566.99zM369.92 491.568c61.434-12.799 135.671-21.758 139.508-23.037 3.836 1.279 78.073 10.238 139.508 23.037 47.353 10.238 74.233 16.639 108.791 25.598V339.261c0-23.037 6.398-53.754-53.758-53.754H592.621V117.84c0-8.959-7.68-16.639-16.636-17.918h-133.11c-8.959 1.279-15.36 8.959-16.639 17.918v167.663H314.888c-60.152 0-53.758 30.717-53.758 53.754v177.905l108.791-25.595zm60.159-112.631c0 26.877-20.479 47.356-47.356 47.356s-47.353-20.479-47.353-47.356 20.476-47.356 47.353-47.356 47.356 20.479 47.356 47.356m126.709 0c0 26.877-20.479 47.356-47.356 47.356-25.598 0-47.353-20.479-47.353-47.356s21.754-47.356 47.353-47.356c26.877 0 47.356 20.479 47.356 47.356m126.705 0c0 26.877-20.476 47.356-47.353 47.356-25.598 0-47.356-20.479-47.356-47.356s21.758-47.356 47.356-47.356c26.877 0 47.353 20.479 47.353 47.356"/>
</svg>
