<svg viewBox="0 0 283.46 283.46">
 <path d="M270.033 68.188 154.071 4.936a25.78 25.78 0 0 0-24.681 0L13.427 68.188A25.77 25.77 0 0 0-.002 90.812v177.974c0 7.116 5.769 12.885 12.885 12.885h257.695c7.116 0 12.885-5.769 12.885-12.885V90.812a25.77 25.77 0 0 0-13.43-22.624M66.568 234.51H36.505v-42.95h30.063zm0-75.783H36.505v-42.948h30.063zm60.13 75.783H96.633v-42.95h30.065zm0-75.783H96.633v-42.948h30.065zm-7.156-100.476c0-12.254 9.934-22.188 22.188-22.188s22.188 9.934 22.188 22.188-9.934 22.187-22.188 22.187-22.188-9.933-22.188-22.187m67.285 176.259h-30.065v-42.95h30.065zm0-75.783h-30.065v-42.948h30.065zm60.128 75.783h-30.063v-42.95h30.063zm0-75.783h-30.063v-42.948h30.063z"/>
</svg>
