<svg viewBox="0 0 283.46 283.46">
 <path d="M141.415 106.297c9.788 0 17.717-7.928 17.717-17.717V17.714c0-9.788-7.928-17.717-17.717-17.717s-17.717 7.928-17.717 17.717V88.58c.001 9.789 7.929 17.717 17.717 17.717"/>
 <path d="M265.662 88.58h-88.583c0 19.586-15.883 35.433-35.433 35.433-19.586 0-35.433-15.847-35.433-35.433H17.621c-9.788 0-19.656 8.584-16.468 22.73l34.193 154.435c2.976 9.824 7.928 17.717 17.717 17.717h177.165c9.788 0 14.324-7.299 17.717-17.717l34.051-153.912c4.155-13.562-6.537-23.253-16.334-23.253"/>
</svg>
