<svg viewBox="0 0 283.46 283.46">
 <path d="M40.038 42.52C17.125 65.907 3.188 96.615.353 129.449c7.559 1.417 16.535 1.182 26.929-.95 19.606-4.723 42.991-17.007 63.779-36.14 20.787-19.133 34.96-41.101 40.866-60.472 4.016-12.52 4.488-23.386 2.126-31.89-35.433 1.89-68.976 17.008-94.015 42.519zM.118 149.764c4.016 67.559 54.803 122.833 121.652 132.283.472-8.741 2.126-17.953 4.961-27.166 8.268-26.692 26.456-54.802 52.677-78.896 26.22-24.095 55.511-39.92 82.912-46.062 6.85-1.654 13.701-2.363 20.551-2.6C275.785 59.766 222.399 6.617 154.841.24c1.89 11.81.472 24.802-3.543 37.558-7.559 23.622-23.622 48.189-46.535 69.448-23.149 21.26-48.897 35.433-72.991 40.866-10.867 2.36-21.733 3.069-31.654 1.652m188.501 45.117c-21.496 21.024-36.142 44.882-42.755 65.905-2.362 8.267-3.78 15.827-4.016 22.677 74.408-.233 136.061-57.401 141.494-131.574V147.4c-5.197.233-10.866.949-16.771 2.126-22.913 5.196-49.606 19.369-73.464 41.338-1.653 1.417-3.07 2.835-4.488 4.015"/>
</svg>
