<svg viewBox="0 0 1024 1024">
 <path d="M921.607 1024.025H102.393c-56.554 0-102.4-45.846-102.4-102.4V102.374c0-56.554 45.846-102.4 102.4-102.4h819.214c56.554 0 102.4 45.846 102.4 102.4v819.247c0 56.557-45.846 102.404-102.4 102.404"/>
 <path fill="#fff" d="M753.416 783.974V345.402c0-37.332-30.266-135.729-67.597-135.729H568.89l34.066-70.899h57.305v-36.335H363.823v36.338h57.901l34.066 70.899H338.181c-37.332 0-67.597 98.397-67.597 135.729v438.572c0 37.317 30.237 67.568 67.547 67.594l-50.514 70.083h73.923l50.51-70.083h199.894l50.51 70.083h73.923l-50.514-70.083c37.317-.033 67.554-30.284 67.554-67.597zm-291.836-645.2h101.519l-34.066 70.899h-33.387zm-56.889 114.04H619.31v36.338H404.691zm-85.823 482.095c0-20.414 16.549-36.963 36.963-36.963s36.963 16.549 36.963 36.963-16.549 36.963-36.963 36.963-36.963-16.549-36.963-36.963m349.304 36.964c-20.414 0-36.963-16.549-36.963-36.963s16.549-36.963 36.963-36.963 36.963 16.549 36.963 36.963c-.004 20.414-16.552 36.963-36.963 36.963m36.96-145.212c0 8.742-4.678 16.383-11.43 18.651-26.913 9.038-98.325 16.372-181.702 16.372s-154.789-7.337-181.702-16.372c-6.755-2.269-11.43-9.909-11.43-18.651v-282.1c0-10.668 6.918-19.312 15.451-19.312h355.362c8.533 0 15.451 8.648 15.451 19.312z"/>
</svg>
