<svg aria-hidden="true" style="position: absolute; width: 0; height: 0;" width="0" height="0" version="1.1" xmlns:xlink="http://www.w3.org/1999/xlink">
<defs>

<symbol id="icon-icon_info" viewBox="0 0 24 24" fill="none">
<path d="M12 22C17.5228 22 22 17.5228 22 12C22 6.47715 17.5228 2 12 2C6.47715 2 2 6.47715 2 12C2 17.5228 6.47715 22 12 22Z" stroke="currentColor" stroke-width="2" stroke-linecap="round" stroke-linejoin="round"/>
<path d="M12 16V12" stroke="currentColor" stroke-width="2" stroke-linecap="round" stroke-linejoin="round"/>
<path d="M12 8H12.01" stroke="currentColor" stroke-width="2" stroke-linecap="round" stroke-linejoin="round"/>
</symbol>

<symbol id="icon-icon_citybike-lollipop" viewBox="0 0 30 39" fill="none">
 <g transform="translate(-3, 6)">
  <circle cx="12" cy="12" r="11.5" fill="#FCBC19" stroke="white"/>
  <path d="M5.90106 17.0072C4.67879 16.516 4.08539 15.1263 4.57799 13.904C4.94141 12.9997 5.81731 12.4077 6.79115 12.4077C7.13469 12.4077 7.47398 12.4815 7.78487 12.6263L8.36691 12.094C6.87775 11.2238 4.96555 11.7249 4.09391 13.2141C3.2237 14.7032 3.72482 16.6154 5.21398 17.487C6.70314 18.3587 8.61534 17.8561 9.48697 16.367C9.61473 16.1484 9.71553 15.9156 9.78651 15.6714L9.00573 15.6842C8.51454 16.9064 7.12476 17.4998 5.90106 17.0072Z" fill="#333333"/>
  <path d="M19.4739 12.6391C18.8876 12.0216 18.0741 11.6709 17.2224 11.6667C17.0506 11.6667 16.8788 11.6809 16.7099 11.7093L17.062 12.4191C17.1145 12.4191 17.1684 12.4191 17.2224 12.4191C18.544 12.429 19.6059 13.5079 19.5959 14.8296C19.586 16.1512 18.5071 17.2131 17.1855 17.2031C15.8638 17.1932 14.802 16.1143 14.8119 14.7926C14.8162 14.2163 15.0291 13.6598 15.411 13.2282L15.0589 12.5255C13.8082 13.7137 13.7571 15.6898 14.9453 16.9405C16.1335 18.1912 18.1096 18.2423 19.3603 17.0541C20.611 15.8659 20.6621 13.8898 19.4739 12.6391Z" fill="#333333"/>
  <path d="M15.2094 11.2877L15.3925 11.9392L15.3897 11.9407C15.3953 11.9634 15.4039 11.9847 15.4138 12.0045L15.4166 12.0102C15.4181 12.0145 15.4195 12.0187 15.4209 12.023L16.5651 14.3057V14.3029L16.8916 14.9545C16.9938 15.1319 17.221 15.1916 17.3984 15.0893C17.5602 14.9956 17.627 14.7955 17.5531 14.6237L16.091 11.7064H16.0895L15.6651 10.2201L15.533 9.7559C15.4933 9.61536 15.5558 9.4663 15.6849 9.39816C15.8326 9.32009 16.0171 9.37545 16.0952 9.52451C16.1051 9.54296 16.1137 9.56284 16.1193 9.58271L16.3791 10.4998C16.4402 10.6304 16.5708 10.7141 16.7156 10.7141H18.1125C18.253 10.7141 18.3822 10.6332 18.4432 10.5069L19.2425 8.87291C19.3319 8.68836 19.2552 8.46691 19.0721 8.37747C19.0111 8.34766 18.9415 8.33488 18.8734 8.34198L17.5162 8.48394L15.932 8.64436L15.729 7.91752C15.543 7.28296 14.9013 6.89541 14.2526 7.02459L13.8622 7.10551C13.6705 7.141 13.5385 7.31561 13.5541 7.5101C13.5754 7.7131 13.7557 7.86074 13.9587 7.83944C13.9715 7.83802 13.9843 7.8366 13.997 7.83377L14.4045 7.74859C14.6742 7.69322 14.9411 7.85364 15.0177 8.11768L15.2335 8.84736C14.968 9.03759 14.8091 9.3428 14.8076 9.66931C14.8091 9.81553 14.8261 9.96174 14.8587 10.1037L10.9534 13.329L9.33792 9.07024C9.55511 9.01061 9.77657 8.97512 10.0009 8.96093L10.2209 8.94389C10.4225 8.95383 10.5928 8.79909 10.6042 8.59751C10.6141 8.39593 10.4594 8.22557 10.2578 8.21422C10.2337 8.2128 10.211 8.21422 10.1868 8.21706H9.10652C8.31438 8.21706 8.17952 8.20428 7.72383 8.20428C7.45411 8.20428 7.28659 8.30081 7.28659 8.50382C7.28659 8.9297 7.84166 9.31299 8.36549 9.31299C8.4535 9.31157 8.5401 9.30305 8.62528 9.2846L9.55937 11.749L6.5413 14.5258C6.39083 14.6635 6.37947 14.8963 6.51717 15.0468C6.58673 15.122 6.68326 15.166 6.78689 15.1674H6.79683L10.3458 15.1121C10.3189 15.2043 10.3061 15.2994 10.3061 15.396C10.3061 15.9667 10.7675 16.4294 11.3396 16.4294C11.9102 16.4294 12.373 15.9667 12.373 15.396V15.3946C12.373 15.2341 12.3347 15.0751 12.2623 14.9318L15.2094 11.2877ZM7.75648 14.4094L9.84471 12.4901L10.2706 13.6342L10.5545 14.3668L7.75648 14.4094ZM11.341 15.758C11.3396 15.758 11.3396 15.758 11.3381 15.758C11.1337 15.758 10.9676 15.5919 10.9676 15.3875C10.9676 15.183 11.1337 15.0169 11.3381 15.0169C11.5426 15.0169 11.7086 15.183 11.7086 15.3875C11.7086 15.5905 11.5454 15.7566 11.341 15.758Z" fill="#333333"/>
  <path d="M11 23H13V32C13 32.5523 12.5523 33 12 33V33C11.4477 33 11 32.5523 11 32V23Z" fill="#333333"/>
 </g>
</symbol>

<symbol id="icon-icon_citybike-secondary-lollipop" viewBox="0 0 30 39" fill="none">
 <g transform="translate(-3, 6)">
  <circle cx="12" cy="12" r="11.5" fill="#333333" stroke="white"/>
  <path d="M5.90106 17.0072C4.67879 16.516 4.08539 15.1263 4.57799 13.904C4.94141 12.9997 5.81731 12.4077 6.79115 12.4077C7.13469 12.4077 7.47398 12.4815 7.78487 12.6263L8.36691 12.094C6.87775 11.2238 4.96555 11.7249 4.09391 13.2141C3.2237 14.7032 3.72482 16.6154 5.21398 17.487C6.70314 18.3587 8.61534 17.8561 9.48697 16.367C9.61473 16.1484 9.71553 15.9156 9.78651 15.6714L9.00573 15.6842C8.51454 16.9064 7.12476 17.4998 5.90106 17.0072Z" fill="#FCBC19"/>
  <path d="M19.4739 12.6391C18.8876 12.0216 18.0741 11.6709 17.2224 11.6667C17.0506 11.6667 16.8788 11.6809 16.7099 11.7093L17.062 12.4191C17.1145 12.4191 17.1684 12.4191 17.2224 12.4191C18.544 12.429 19.6059 13.5079 19.5959 14.8296C19.586 16.1512 18.5071 17.2131 17.1855 17.2031C15.8638 17.1932 14.802 16.1143 14.8119 14.7926C14.8162 14.2163 15.0291 13.6598 15.411 13.2282L15.0589 12.5255C13.8082 13.7137 13.7571 15.6898 14.9453 16.9405C16.1335 18.1912 18.1096 18.2423 19.3603 17.0541C20.611 15.8659 20.6621 13.8898 19.4739 12.6391Z" fill="#FCBC19"/>
  <path d="M15.2094 11.2877L15.3925 11.9392L15.3897 11.9407C15.3953 11.9634 15.4039 11.9847 15.4138 12.0045L15.4166 12.0102C15.4181 12.0145 15.4195 12.0187 15.4209 12.023L16.5651 14.3057V14.3029L16.8916 14.9545C16.9938 15.1319 17.221 15.1916 17.3984 15.0893C17.5602 14.9956 17.627 14.7955 17.5531 14.6237L16.091 11.7064H16.0895L15.6651 10.2201L15.533 9.7559C15.4933 9.61536 15.5558 9.4663 15.6849 9.39816C15.8326 9.32009 16.0171 9.37545 16.0952 9.52451C16.1051 9.54296 16.1137 9.56284 16.1193 9.58271L16.3791 10.4998C16.4402 10.6304 16.5708 10.7141 16.7156 10.7141H18.1125C18.253 10.7141 18.3822 10.6332 18.4432 10.5069L19.2425 8.87291C19.3319 8.68836 19.2552 8.46691 19.0721 8.37747C19.0111 8.34766 18.9415 8.33488 18.8734 8.34198L17.5162 8.48394L15.932 8.64436L15.729 7.91752C15.543 7.28296 14.9013 6.89541 14.2526 7.02459L13.8622 7.10551C13.6705 7.141 13.5385 7.31561 13.5541 7.5101C13.5754 7.7131 13.7557 7.86074 13.9587 7.83944C13.9715 7.83802 13.9843 7.8366 13.997 7.83377L14.4045 7.74859C14.6742 7.69322 14.9411 7.85364 15.0177 8.11768L15.2335 8.84736C14.968 9.03759 14.8091 9.3428 14.8076 9.66931C14.8091 9.81553 14.8261 9.96174 14.8587 10.1037L10.9534 13.329L9.33792 9.07024C9.55511 9.01061 9.77657 8.97512 10.0009 8.96093L10.2209 8.94389C10.4225 8.95383 10.5928 8.79909 10.6042 8.59751C10.6141 8.39593 10.4594 8.22557 10.2578 8.21422C10.2337 8.2128 10.211 8.21422 10.1868 8.21706H9.10652C8.31438 8.21706 8.17952 8.20428 7.72383 8.20428C7.45411 8.20428 7.28659 8.30081 7.28659 8.50382C7.28659 8.9297 7.84166 9.31299 8.36549 9.31299C8.4535 9.31157 8.5401 9.30305 8.62528 9.2846L9.55937 11.749L6.5413 14.5258C6.39083 14.6635 6.37947 14.8963 6.51717 15.0468C6.58673 15.122 6.68326 15.166 6.78689 15.1674H6.79683L10.3458 15.1121C10.3189 15.2043 10.3061 15.2994 10.3061 15.396C10.3061 15.9667 10.7675 16.4294 11.3396 16.4294C11.9102 16.4294 12.373 15.9667 12.373 15.396V15.3946C12.373 15.2341 12.3347 15.0751 12.2623 14.9318L15.2094 11.2877ZM7.75648 14.4094L9.84471 12.4901L10.2706 13.6342L10.5545 14.3668L7.75648 14.4094ZM11.341 15.758C11.3396 15.758 11.3396 15.758 11.3381 15.758C11.1337 15.758 10.9676 15.5919 10.9676 15.3875C10.9676 15.183 11.1337 15.0169 11.3381 15.0169C11.5426 15.0169 11.7086 15.183 11.7086 15.3875C11.7086 15.5905 11.5454 15.7566 11.341 15.758Z" fill="#FCBC19"/>
  <path d="M11 23H13V32C13 32.5523 12.5523 33 12 33V33C11.4477 33 11 32.5523 11 32V23Z" fill="#333333"/>
 </g>
</symbol>

<symbol id="icon-icon_citybike-stop-lollipop" width="42" height="42" viewBox="0 0 32 32" fill="none">
 <rect x="14.5" y="22" width="3" height="8" rx="1.5" fill="#333333"/>
 <circle cx="16" cy="13" r="11" fill="#FCBC19"/>
 <path d="M9.90106 18.0078C8.67879 17.5166 8.08539 16.1267 8.57799 14.9044C8.94141 14.0001 9.81731 13.4081 10.7912 13.4081C11.1347 13.4081 11.474 13.4819 11.7849 13.6267L12.3669 13.0943C10.8777 12.2241 8.96555 12.7252 8.09391 14.2144C7.2237 15.7037 7.72482 17.6159 9.21398 18.4876C10.7031 19.3593 12.6153 18.8567 13.487 17.3675C13.6147 17.1489 13.7155 16.916 13.7865 16.6719L13.0057 16.6846C12.5145 17.907 11.1248 18.5004 9.90106 18.0078Z" fill="#333333"/>
 <path d="M23.4739 13.6395C22.8876 13.0219 22.0741 12.6713 21.2224 12.667C21.0506 12.667 20.8788 12.6812 20.7099 12.7096L21.062 13.4194C21.1145 13.4194 21.1684 13.4194 21.2224 13.4194C22.544 13.4294 23.6059 14.5083 23.5959 15.83C23.586 17.1517 22.5071 18.2136 21.1855 18.2037C19.8638 18.1937 18.802 17.1148 18.8119 15.7931C18.8162 15.2167 19.0291 14.6602 19.411 14.2286L19.0589 13.5259C17.8082 14.7142 17.7571 16.6903 18.9453 17.941C20.1335 19.1917 22.1096 19.2428 23.3603 18.0546C24.611 16.8664 24.6621 14.8902 23.4739 13.6395Z" fill="#333333"/>
 <path d="M19.2094 12.288L19.3925 12.9396L19.3897 12.941C19.3953 12.9637 19.4039 12.985 19.4138 13.0049L19.4166 13.0106C19.4181 13.0148 19.4195 13.0191 19.4209 13.0234L20.5651 15.3062V15.3033L20.8916 15.9549C20.9938 16.1324 21.221 16.192 21.3984 16.0898C21.5602 15.9961 21.627 15.7959 21.5531 15.6242L20.091 12.7068H20.0895L19.6651 11.2204L19.533 10.7562C19.4933 10.6156 19.5558 10.4666 19.6849 10.3984C19.8326 10.3204 20.0171 10.3757 20.0952 10.5248C20.1051 10.5432 20.1137 10.5631 20.1193 10.583L20.3791 11.5001C20.4402 11.6307 20.5708 11.7144 20.7156 11.7144H22.1125C22.253 11.7144 22.3822 11.6335 22.4432 11.5072L23.2425 9.87316C23.3319 9.68861 23.2552 9.46714 23.0721 9.3777C23.0111 9.34789 22.9415 9.33511 22.8734 9.34221L21.5162 9.48418L19.932 9.6446L19.729 8.91774C19.543 8.28315 18.9013 7.89559 18.2526 8.02478L17.8622 8.1057C17.6705 8.14119 17.5385 8.31581 17.5541 8.5103C17.5754 8.71331 17.7557 8.86095 17.9587 8.83966C17.9715 8.83824 17.9843 8.83682 17.997 8.83398L18.4045 8.7488C18.6742 8.69343 18.9411 8.85385 19.0177 9.11791L19.2335 9.84761C18.968 10.0378 18.8091 10.3431 18.8076 10.6696C18.8091 10.8158 18.8261 10.962 18.8587 11.104L14.9534 14.3294L13.3379 10.0705C13.5551 10.0109 13.7766 9.97538 14.0009 9.96118L14.2209 9.94414C14.4225 9.95408 14.5928 9.79934 14.6042 9.59775C14.6141 9.39616 14.4594 9.2258 14.2578 9.21444C14.2337 9.21302 14.211 9.21444 14.1868 9.21728H13.1065C12.3144 9.21728 12.1795 9.20451 11.7238 9.20451C11.4541 9.20451 11.2866 9.30104 11.2866 9.50405C11.2866 9.92995 11.8417 10.3133 12.3655 10.3133C12.4535 10.3118 12.5401 10.3033 12.6253 10.2849L13.5594 12.7494L10.5413 15.5262C10.3908 15.6639 10.3795 15.8967 10.5172 16.0472C10.5867 16.1225 10.6833 16.1665 10.7869 16.1679H10.7968L14.3458 16.1125C14.3189 16.2048 14.3061 16.2999 14.3061 16.3965C14.3061 16.9672 14.7675 17.43 15.3396 17.43C15.9102 17.43 16.373 16.9672 16.373 16.3965V16.395C16.373 16.2346 16.3347 16.0756 16.2623 15.9322L19.2094 12.288ZM11.7565 15.4098L13.8447 13.4904L14.2706 14.6347L14.5545 15.3672L11.7565 15.4098ZM15.341 16.7585C15.3396 16.7585 15.3396 16.7585 15.3381 16.7585C15.1337 16.7585 14.9676 16.5924 14.9676 16.3879C14.9676 16.1835 15.1337 16.0174 15.3381 16.0174C15.5426 16.0174 15.7086 16.1835 15.7086 16.3879C15.7086 16.5909 15.5454 16.757 15.341 16.7585Z" fill="#333333"/>
</symbol>

</defs>
</svg>
