<svg xmlns="http://www.w3.org/2000/svg" width="101" height="100" fill="none" viewBox="0 0 101 100">
  <path fill="#BEE4F8" d="M7.855 50.073c0 23.55 19.269 42.82 42.82 42.82 23.55 0 42.82-19.268 42.82-42.82 0-23.551-19.268-42.82-42.819-42.82-23.55 0-42.82 19.269-42.82 42.82"/>
  <mask id="a" width="87" height="86" x="7" y="7" maskUnits="userSpaceOnUse" style="mask-type:luminance">
    <path fill="#fff" d="M50.676 7.259C27.127 7.259 7.86 26.527 7.86 50.076c0 23.55 19.268 42.817 42.817 42.817 22.45 0 41.01-17.511 42.693-39.55v-6.535C91.685 24.77 73.126 7.259 50.676 7.259Z"/>
  </mask>
  <g mask="url(#a)">
    <path fill="#007AC9" d="M51.523 63.834a3.104 3.104 0 0 1-1.625-.458L1.094 33.574a3.124 3.124 0 0 1 3.256-5.332l48.803 29.8a3.124 3.124 0 0 1-1.63 5.791v.001Zm31.18 18.696a2.59 2.59 0 0 1-1.353-.38l-.189-.116a2.603 2.603 0 1 1 2.712-4.445l.188.116a2.603 2.603 0 0 1-1.358 4.825Zm-6.076-3.707c-.462 0-.93-.123-1.353-.381l-.19-.115a2.603 2.603 0 1 1 2.712-4.445l.189.115a2.603 2.603 0 0 1-1.358 4.826Zm-6.076-3.708c-.462 0-.93-.123-1.354-.38l-.188-.116a2.603 2.603 0 1 1 2.711-4.445l.188.115a2.603 2.603 0 0 1-1.358 4.826Zm-6.077-3.707c-.462 0-.93-.123-1.353-.381l-.188-.116a2.603 2.603 0 1 1 2.712-4.444l.188.115a2.603 2.603 0 0 1-1.359 4.826ZM58.398 67.7c-.462 0-.93-.123-1.353-.381l-.188-.115a2.603 2.603 0 1 1 2.712-4.445l.188.115A2.603 2.603 0 0 1 58.4 67.7Z"/>
    <path fill="#007AC9" d="M44.21 59.942a6.071 6.071 0 1 1 12.143 0 6.071 6.071 0 0 1-12.142 0Z"/>
    <path fill="#fff" d="M46.676 59.942a3.607 3.607 0 1 1 7.213 0 3.607 3.607 0 0 1-7.213 0Z"/>
  </g>
  <path fill="#007AC9" d="M57.641 16.591A7.145 7.145 0 0 0 50.5 9.45a7.142 7.142 0 1 0 0 14.286 7.14 7.14 0 0 0 7.142-7.144ZM50.5.571c8.847 0 16.02 7.46 16.02 15.848 0 13.016-16.02 32.103-16.02 32.103S34.477 29.435 34.477 16.419c0-8.387 7.172-15.848 16.022-15.848Z"/>
  <path fill="#fff" d="M50.498 9.449a7.143 7.143 0 1 1-.001 14.283 7.143 7.143 0 0 1 .001-14.283Z"/>
</svg>
