<svg width="150" height="150" viewBox="0 0 150 150" fill="none" xmlns="http://www.w3.org/2000/svg">
    <path
        d="M75.0005 139.285C110.505 139.285 139.286 110.504 139.286 74.9996C139.286 39.4956 110.505 10.7139 75.0005 10.7139C39.4965 10.7139 10.7148 39.4956 10.7148 74.9996C10.7148 110.504 39.4965 139.285 75.0005 139.285Z"
        fill="#BEE4F8" />
    <path
        d="M34.3077 43.5379C32.8177 49.1051 33.9992 58.6508 33.9992 61.7822C33.9992 67.3179 32.832 71.4236 32.832 76.6751C32.832 85.7308 38.3106 91.4665 46.2506 96.9765C48.0049 98.1936 49.6163 99.5393 51.3306 100.788L50.9506 100.556C50.5477 117.558 63.7463 130.672 63.7463 130.672C63.7463 130.672 82.7892 107.908 90.9763 90.5879V32.3965H35.3649L34.3077 43.5379Z"
        fill="#E5F2FA" />
    <mask id="mask0_1024_82498" style="mask-type:luminance" maskUnits="userSpaceOnUse" x="10" y="0" width="130"
        height="140">
        <path
            d="M139.286 0.126953V74.9998C139.286 110.504 110.505 139.286 75.0005 139.286C39.4963 139.286 10.7148 110.504 10.7148 74.9998V0.288382L139.286 0.126953Z"
            fill="white" />
    </mask>
    <g mask="url(#mask0_1024_82498)">
        <path
            d="M63.7441 132.085C63.4827 132.085 63.2184 132.012 62.9841 131.862C62.967 131.85 62.9484 131.839 62.9312 131.826L50.0112 122.789C45.8527 121.045 41.137 121.143 37.0527 123.065C35.1055 123.98 32.8512 123.505 31.4412 121.878C30.0312 120.252 29.8798 117.952 31.0627 116.155C31.0698 116.143 31.0784 116.132 31.087 116.12L44.2855 97.319C40.1355 94.3404 36.2755 90.959 33.8884 86.5719C33.7441 86.6861 33.5755 86.7747 33.387 86.8276C22.9098 89.7519 13.9155 96.4119 8.06124 105.579C7.64124 106.236 6.76981 106.429 6.11124 106.009C5.4541 105.589 5.26124 104.716 5.68124 104.059C11.9098 94.3061 21.4798 87.2204 32.627 84.109C32.6641 84.099 32.7027 84.089 32.7398 84.0819C31.8984 81.8719 31.4198 79.4233 31.4198 76.6747C31.4198 73.9261 31.7155 71.5876 32.0027 69.2561C32.2898 66.9176 32.587 64.499 32.587 61.7819C32.587 61.059 32.5155 59.9047 32.4341 58.5676C32.1655 54.199 31.7598 47.599 32.9441 43.1719C33.1455 42.419 33.9184 41.9719 34.6727 42.1733C35.4255 42.3747 35.8727 43.149 35.6712 43.9019C34.6055 47.8847 34.9941 54.209 35.2512 58.3947C35.3398 59.8347 35.4098 60.9719 35.4098 61.7819C35.4098 64.6719 35.1012 67.1776 34.8041 69.6004C34.5155 71.9504 34.2427 74.169 34.2427 76.6747C34.2427 80.6319 35.3755 84.1161 37.7055 87.3261C39.7298 90.1161 42.6141 92.7347 47.0541 95.8161C48.0912 96.5361 49.0827 97.3004 50.0412 98.0404C53.9584 101.065 57.6598 103.922 64.5441 103.922C70.7598 103.922 75.4512 103.066 79.307 101.226C83.227 99.3561 86.2584 96.4461 88.5212 92.3661C88.9341 91.5633 89.327 90.7676 89.697 89.9861C89.7641 89.8433 89.8527 89.7161 89.9555 89.6076C89.9555 89.6076 89.9555 89.6076 89.957 89.6061C90.1055 89.4519 90.287 89.3361 90.4827 89.2633C90.6755 89.1919 90.8827 89.1633 91.0912 89.1804H91.0941C91.0941 89.1804 91.097 89.1804 91.0984 89.1804C91.2584 89.1947 91.4198 89.2376 91.5741 89.3104C91.5741 89.3104 91.5741 89.3104 91.5755 89.3104C91.7012 89.3704 91.8155 89.4461 91.9141 89.5361C91.9141 89.5361 91.9155 89.5376 91.917 89.539C91.917 89.539 91.917 89.539 91.9184 89.5404C92.0912 89.6976 92.2198 89.8947 92.297 90.109C92.367 90.3047 92.3941 90.5176 92.3727 90.729V90.7319C92.3727 90.7319 92.3727 90.7319 92.3727 90.7333C92.3727 90.7347 92.3727 90.7333 92.3727 90.7347C92.3727 90.7347 92.3727 90.7361 92.3727 90.7376C92.3569 90.8776 92.3198 91.019 92.2598 91.1547C91.8541 92.0761 91.4198 92.9533 90.9555 93.789C88.2641 98.9933 83.5512 106.915 75.4212 117.959C75.2012 118.259 74.9812 118.556 74.7641 118.849C77.9655 116.455 81.3312 113.965 83.4284 112.485C88.6241 108.82 95.087 107.836 99.1441 110.09C99.7527 110.429 100.444 110.49 101.093 110.265C102.164 109.892 102.826 108.728 102.633 107.556L100.158 92.5219C100.031 91.7533 100.553 91.0261 101.321 90.9004C102.091 90.7733 102.817 91.2947 102.943 92.0633L105.417 107.098C105.837 109.648 104.407 112.102 102.018 112.932C100.601 113.425 99.0927 113.292 97.7712 112.559C94.6755 110.839 89.327 111.779 85.0527 114.792C80.5898 117.939 69.967 125.986 68.3427 127.218C66.297 129.799 64.9584 131.409 64.8298 131.563C64.6312 131.808 64.3627 131.969 64.0755 132.04C64.0755 132.04 64.0755 132.04 64.0741 132.04C64.0227 132.053 63.9698 132.063 63.917 132.069H63.9141C63.8555 132.076 63.797 132.08 63.7384 132.08L63.7441 132.085ZM52.4127 103.243C53.1655 115.438 60.8384 125.269 63.6855 128.522C66.6198 124.918 75.307 114.019 82.5112 102.712C81.8727 103.095 81.2098 103.45 80.5227 103.778C76.2741 105.803 71.197 106.748 64.5455 106.748C59.2012 106.748 55.5198 105.222 52.4141 103.243H52.4127ZM43.8412 118.723C46.3641 118.723 48.8884 119.23 51.2555 120.249C51.3441 120.288 51.4284 120.333 51.507 120.389L56.8755 124.143C56.5812 123.686 56.2841 123.21 55.9884 122.716C53.0041 117.753 49.5055 110.042 49.5312 101.208C49.1227 100.898 48.7198 100.586 48.3184 100.276C47.7512 99.839 47.1727 99.3919 46.5855 98.9561L33.4112 117.722C32.8327 118.615 33.1155 119.498 33.5741 120.028C34.0355 120.56 34.877 120.966 35.8498 120.509C38.377 119.32 41.1084 118.723 43.8427 118.723H43.8412Z"
            fill="#007AC9" />
        <path fill-rule="evenodd" clip-rule="evenodd"
            d="M98.3677 49.353L75.1434 52.9502C77.2834 50.8102 78.5077 47.7545 78.1777 44.4216C77.6934 39.5402 73.7806 35.5702 68.9048 35.0245C62.5391 34.313 57.1491 39.7045 57.1491 43.6402C57.1491 39.7059 51.762 34.3159 45.3991 35.0245C40.502 35.5702 36.5763 39.573 36.1163 44.4787C35.8748 47.0473 36.5563 49.4502 37.8677 51.3902L33.6806 47.5116C29.3991 43.5459 26.9648 37.9745 26.9648 32.1387C26.9648 27.5245 29.0306 23.1516 32.5948 20.2216L43.8577 10.9616C49.6863 6.16874 57.9877 5.82588 64.192 10.1216L65.7248 11.183C75.0777 4.05445 88.1734 4.56588 96.9406 12.403L98.8948 14.1502C109.025 23.2045 107.529 39.3202 98.3677 49.3545"
            fill="#007AC9" />
        <path
            d="M75.1413 54.3615C74.6156 54.3615 74.1256 54.0673 73.8827 53.5887C73.607 53.0444 73.7113 52.383 74.1442 51.9515C76.087 50.0087 77.0442 47.3144 76.7713 44.5601C76.3513 40.3201 72.977 36.9001 68.747 36.4258C66.0856 36.1287 63.3256 37.063 61.1727 38.9887C59.5613 40.4301 58.5599 42.2115 58.5599 43.6387C58.5599 44.4187 57.9285 45.0501 57.1484 45.0501C56.3685 45.0501 55.737 44.4187 55.737 43.6387C55.737 42.213 54.737 40.4315 53.1256 38.9901C50.9727 37.0644 48.2156 36.1287 45.5542 36.4258C41.2999 36.9001 37.9213 40.3415 37.5199 44.6101C37.3184 46.7615 37.8427 48.833 39.0356 50.6001C39.437 51.1944 39.3284 51.9944 38.7856 52.4615C38.2413 52.9287 37.4342 52.913 36.907 52.4258L32.7199 48.5473C28.1656 44.3287 25.5527 38.3473 25.5527 32.1387C25.5527 27.083 27.7927 22.3415 31.697 19.1315L42.9599 9.87155C46.0584 7.32298 49.8156 5.88869 53.8242 5.72298C57.8327 5.55869 61.6956 6.67726 64.9942 8.96012L65.7013 9.45012C75.5099 2.57012 88.8813 3.30584 97.8799 11.3487L99.8342 13.0958C104.37 17.1501 106.938 22.6658 107.261 29.0487C107.643 36.5544 104.707 44.5001 99.4084 50.303C99.1913 50.5401 98.8999 50.6973 98.5827 50.7458L75.3585 54.343C75.2856 54.3544 75.2142 54.3601 75.1413 54.3601V54.3615ZM67.7699 33.5501C68.2013 33.5501 68.6313 33.5744 69.0613 33.6215C74.6056 34.2415 79.0299 38.7258 79.5813 44.283C79.8156 46.653 79.3527 48.9901 78.2827 51.0358L97.6527 48.0358C102.247 42.813 104.78 35.8073 104.444 29.193C104.16 23.5801 101.916 18.7415 97.9542 15.2015L95.9985 13.4544C87.7499 6.08155 75.377 5.59869 66.5784 12.3058C66.0927 12.6773 65.4227 12.6915 64.9184 12.343L63.3856 11.2815C60.5956 9.35012 57.3285 8.40441 53.9399 8.54441C50.5499 8.68441 47.3727 9.89726 44.7513 12.053L33.4884 21.313C30.2384 23.9858 28.3742 27.9315 28.3742 32.1401C28.3742 37.5658 30.657 42.7915 34.637 46.4773L34.6956 46.5315C34.6356 45.8144 34.6384 45.0844 34.7084 44.3473C35.2327 38.753 39.6627 34.243 45.2413 33.6215C48.697 33.2373 52.257 34.4273 55.007 36.8887C55.8599 37.653 56.5827 38.4944 57.147 39.3701C57.7127 38.4944 58.4356 37.6515 59.2899 36.8873C61.6999 34.7315 64.7313 33.5515 67.7699 33.5515V33.5501Z"
            fill="#007AC9" />
        <path fill-rule="evenodd" clip-rule="evenodd"
            d="M98.8262 49.1985C99.7162 48.0328 100.655 46.8956 101.759 46.2199C102.863 45.5442 104.17 45.3813 105.242 46.1613C106.509 47.0842 107.233 49.2242 107.189 51.2856C107.145 53.3456 106.422 55.2899 105.42 56.7471C104.419 58.2042 103.156 59.2228 101.859 60.0528"
            fill="white" />
        <path
            d="M101.861 61.4645C101.395 61.4645 100.941 61.2345 100.671 60.8145C100.251 60.1588 100.442 59.2845 101.098 58.8645C102.505 57.9631 103.509 57.0359 104.256 55.9474C105.188 54.5916 105.742 52.8816 105.778 51.2559C105.814 49.5959 105.226 47.8959 104.411 47.3031C103.729 46.8059 102.918 47.1659 102.495 47.4245C101.564 47.9945 100.692 49.0816 99.9479 50.0559C99.4751 50.6759 98.5894 50.7945 97.9694 50.3216C97.3494 49.8488 97.2308 48.9631 97.7036 48.3431C98.6022 47.1659 99.6736 45.8402 101.021 45.0159C102.738 43.9659 104.625 43.9674 106.071 45.0202C107.664 46.1802 108.655 48.6516 108.598 51.3159C108.551 53.5088 107.835 55.7216 106.581 57.5459C105.612 58.9559 104.352 60.1302 102.618 61.2416C102.382 61.3931 102.118 61.4645 101.858 61.4645H101.861Z"
            fill="#007AC9" />
        <path fill-rule="evenodd" clip-rule="evenodd"
            d="M92.8223 50.7911V61.0583C96.3051 58.5311 98.3666 54.4883 98.3666 50.1868V49.3525L92.8223 50.7911Z"
            fill="#007AC9" />
        <path
            d="M92.8235 62.4715C92.605 62.4715 92.385 62.4201 92.1821 62.3173C91.7093 62.0758 91.4121 61.5901 91.4121 61.0601V50.793C91.4121 50.1501 91.8464 49.5887 92.4693 49.4272L98.0135 47.9887C98.4364 47.8787 98.8864 47.9715 99.2321 48.2387C99.5778 48.5058 99.7793 48.9187 99.7793 49.3544V50.1887C99.7793 54.9287 97.4893 59.4201 93.6521 62.203C93.4064 62.3815 93.115 62.4715 92.8235 62.4715ZM94.235 51.8844V57.8001C95.7635 55.9287 96.7093 53.6215 96.915 51.1887L94.235 51.8844Z"
            fill="#007AC9" />
        <path
            d="M43.6456 64.3769C43.8998 62.6555 45.5027 61.4655 47.2241 61.7198C48.9456 61.9741 50.1356 63.5769 49.8813 65.2983C49.627 67.0198 48.0241 68.2098 46.3027 67.9555C44.5813 67.7012 43.3913 66.0983 43.6456 64.3769Z"
            fill="#007AC9" />
        <path
            d="M44.0475 55.1184C43.6618 55.1184 43.2761 54.9856 42.9604 54.7156C42.2632 54.1156 42.1833 53.0627 42.7847 52.3656C44.1061 50.8299 45.9475 49.9013 47.9675 49.7499C49.989 49.5999 51.9461 50.2441 53.4818 51.5656C54.179 52.1656 54.2575 53.2184 53.6575 53.9156C53.0561 54.6127 52.0047 54.6913 51.3075 54.0913C50.4461 53.3499 49.349 52.9884 48.2161 53.0741C47.0833 53.1584 46.0518 53.6799 45.3104 54.5399C44.9804 54.9227 44.5147 55.1199 44.0461 55.1199L44.0475 55.1184Z"
            fill="#007AC9" />
        <path
            d="M60.0279 93.4671C59.7551 93.4671 59.4793 93.4 59.2236 93.26C57.9451 92.5543 55.7493 91.8 54.4493 91.5057C53.5522 91.3028 52.9879 90.41 53.1922 89.5128C53.3951 88.6157 54.2879 88.0514 55.1851 88.2557C56.7193 88.6028 59.2208 89.4528 60.8336 90.3428C61.6393 90.7871 61.9322 91.8014 61.4879 92.6071C61.1836 93.1571 60.6151 93.4685 60.0279 93.4685V93.4671Z"
            fill="#007AC9" />
        <path fill-rule="evenodd" clip-rule="evenodd"
            d="M108.05 97.5744C107.512 99.6816 108.126 101.987 109.568 103.572C111.398 105.586 113.315 105.827 115.275 107.516C116.24 108.347 116.896 109.48 117.808 110.372C121.966 114.44 125.128 113.753 125.902 113.764C129.65 113.822 132.99 111.403 134.103 107.823L135.335 103.869L115.443 94.1273C112.443 92.6659 108.876 94.3416 108.05 97.5744Z"
            fill="#E5F2FA" />
        <path
            d="M124.884 115.214C123.266 115.214 120.316 114.8 116.821 111.38C116.349 110.919 115.959 110.429 115.581 109.954C115.172 109.441 114.786 108.957 114.354 108.586C113.608 107.944 112.851 107.533 112.049 107.097C110.954 106.503 109.711 105.829 108.522 104.521C106.739 102.56 106.034 99.7628 106.682 97.2243C107.184 95.2628 108.522 93.65 110.355 92.8014C112.176 91.9586 114.255 91.9786 116.061 92.8586L135.955 102.6C136.581 102.906 136.889 103.623 136.682 104.287L135.451 108.241C134.175 112.343 130.314 115.176 126.028 115.176C125.978 115.176 125.929 115.176 125.879 115.176C125.845 115.176 125.748 115.181 125.668 115.186C125.459 115.199 125.196 115.214 124.882 115.214H124.884ZM109.419 97.9228C109.009 99.5286 109.478 101.373 110.614 102.621C111.479 103.574 112.369 104.057 113.398 104.616C114.254 105.08 115.222 105.606 116.198 106.446C116.831 106.99 117.318 107.603 117.791 108.196C118.131 108.621 118.451 109.024 118.796 109.363C122.076 112.571 124.479 112.429 125.504 112.369C125.658 112.36 125.792 112.351 125.925 112.353C125.961 112.353 125.997 112.353 126.031 112.353C129.089 112.353 131.846 110.33 132.758 107.403L133.629 104.603L114.825 95.3943C113.789 94.89 112.592 94.8771 111.545 95.3628C110.486 95.8528 109.712 96.7857 109.421 97.9228H109.419Z"
            fill="#007AC9" />
        <path
            d="M83.8557 91.5717C99.4104 91.5717 112.02 78.9622 112.02 63.4074C112.02 47.8527 99.4104 35.2432 83.8557 35.2432C68.301 35.2432 55.6914 47.8527 55.6914 63.4074C55.6914 78.9622 68.301 91.5717 83.8557 91.5717Z"
            fill="#007AC9" />
        <path
            d="M83.8554 36.3886C98.7783 36.3886 110.874 48.4858 110.874 63.4072C110.874 78.3286 98.7769 90.4258 83.8554 90.4258C68.934 90.4258 56.8369 78.3286 56.8369 63.4072C56.8369 48.4858 68.934 36.3886 83.8554 36.3886ZM83.8554 34.0986C79.8997 34.0986 76.0612 34.8743 72.4469 36.4029C68.9569 37.8786 65.8226 39.9915 63.1312 42.6829C60.4397 45.3743 58.3269 48.5086 56.8512 51.9986C55.3226 55.6129 54.5469 59.4515 54.5469 63.4072C54.5469 67.3629 55.3226 71.2015 56.8512 74.8158C58.3269 78.3058 60.4397 81.4401 63.1312 84.1315C65.8226 86.8229 68.9569 88.9358 72.4469 90.4115C76.0612 91.9401 79.8997 92.7158 83.8554 92.7158C87.8112 92.7158 91.6497 91.9401 95.264 90.4115C98.754 88.9358 101.888 86.8229 104.58 84.1315C107.271 81.4401 109.384 78.3058 110.86 74.8158C112.388 71.2015 113.164 67.3629 113.164 63.4072C113.164 59.4515 112.388 55.6129 110.86 51.9986C109.384 48.5086 107.271 45.3743 104.58 42.6829C101.888 39.9915 98.754 37.8786 95.264 36.4029C91.6497 34.8743 87.8112 34.0986 83.8554 34.0986Z"
            fill="#007AC9" />
        <path
            d="M80.4866 94.9389C96.0413 94.9389 108.651 82.3293 108.651 66.7746C108.651 51.2199 96.0413 38.6104 80.4866 38.6104C64.9318 38.6104 52.3223 51.2199 52.3223 66.7746C52.3223 82.3293 64.9318 94.9389 80.4866 94.9389Z"
            fill="#007AC9" />
        <path
            d="M80.4863 39.7558C95.4092 39.7558 107.505 51.853 107.505 66.7744C107.505 81.6958 95.4077 93.793 80.4863 93.793C65.5649 93.793 53.4677 81.6958 53.4677 66.7744C53.4677 51.853 65.5649 39.7558 80.4863 39.7558ZM80.4863 37.4658C76.5306 37.4658 72.692 38.2415 69.0777 39.7701C65.5877 41.2458 62.4534 43.3587 59.762 46.0501C57.0706 48.7415 54.9577 51.8758 53.482 55.3658C51.9534 58.9801 51.1777 62.8187 51.1777 66.7744C51.1777 70.7301 51.9534 74.5687 53.482 78.183C54.9577 81.673 57.0706 84.8072 59.762 87.4987C62.4534 90.1901 65.5877 92.303 69.0777 93.7787C72.692 95.3072 76.5306 96.083 80.4863 96.083C84.442 96.083 88.2806 95.3072 91.8949 93.7787C95.3849 92.303 98.5192 90.1901 101.211 87.4987C103.902 84.8072 106.015 81.673 107.491 78.183C109.019 74.5687 109.795 70.7301 109.795 66.7744C109.795 62.8187 109.019 58.9801 107.491 55.3658C106.015 51.8758 103.902 48.7415 101.211 46.0501C98.5192 43.3587 95.3849 41.2458 91.8949 39.7701C88.2806 38.2415 84.442 37.4658 80.4863 37.4658Z"
            fill="#007AC9" />
        <path fill-rule="evenodd" clip-rule="evenodd"
            d="M82.7912 92.6346C67.2612 92.6346 54.627 80.0004 54.627 64.4704C54.627 57.5775 57.1455 50.9418 61.7198 45.7875C61.7498 45.7532 61.7827 45.7204 61.817 45.6904C66.9684 41.1246 73.5998 38.6104 80.487 38.6104C96.017 38.6104 108.651 51.2446 108.651 66.7746C108.651 73.6618 106.137 80.2932 101.571 85.4446C101.541 85.4789 101.508 85.5118 101.474 85.5418C96.3198 90.1161 89.6841 92.6346 82.7912 92.6346Z"
            fill="white" />
        <path
            d="M80.4867 39.7558C95.4096 39.7558 107.505 51.853 107.505 66.7744C107.505 73.6458 104.938 79.9172 100.714 84.6858C95.9439 88.9172 89.6681 91.4901 82.791 91.4901C67.8681 91.4901 55.7724 79.393 55.7724 64.4715C55.7724 57.593 58.3439 51.3172 62.5767 46.5487C67.3453 42.323 73.6153 39.7572 80.4881 39.7572M80.4881 37.4672C73.321 37.4672 66.421 40.0844 61.0581 44.8344C60.9896 44.8958 60.9253 44.9601 60.8639 45.0287C56.1039 50.393 53.4824 57.2972 53.4824 64.4715C53.4824 68.4272 54.2581 72.2658 55.7867 75.8801C57.2624 79.3701 59.3753 82.5044 62.0667 85.1958C64.7581 87.8872 67.8924 90.0001 71.3824 91.4758C74.9967 93.0044 78.8353 93.7801 82.791 93.7801C89.9653 93.7801 96.8696 91.1587 102.234 86.3987C102.302 86.3372 102.367 86.273 102.428 86.2044C107.18 80.843 109.795 73.943 109.795 66.7744C109.795 62.8187 109.02 58.9801 107.491 55.3658C106.015 51.8758 103.902 48.7415 101.211 46.0501C98.5196 43.3587 95.3853 41.2458 91.8953 39.7701C88.281 38.2415 84.4424 37.4658 80.4867 37.4658L80.4881 37.4672Z"
            fill="#007AC9" />
        <path
            d="M107.055 86.7441C108.378 84.9347 110.921 84.5396 112.731 85.8624L134.508 101.784C136.318 103.107 136.713 105.65 135.39 107.46C133.811 109.62 130.774 110.091 128.614 108.512L108.109 93.5206C105.949 91.9414 105.477 88.905 107.056 86.7449L107.055 86.7441Z"
            fill="#007AC9" />
        <path
            d="M131.467 111.009C130.153 111.009 128.827 110.607 127.687 109.774L107.18 94.7829C105.796 93.7715 104.889 92.2801 104.624 90.5858C104.361 88.8915 104.773 87.1958 105.786 85.8115C106.673 84.5972 107.981 83.8001 109.469 83.5701C110.956 83.3386 112.443 83.7015 113.659 84.5886L135.437 100.509C137.944 102.342 138.493 105.873 136.66 108.38C135.404 110.097 133.449 111.009 131.469 111.009H131.467ZM110.339 86.6444C110.21 86.6444 110.08 86.6544 109.951 86.6744C109.294 86.7758 108.716 87.1286 108.324 87.6658C107.807 88.3729 107.597 89.2386 107.731 90.1029C107.866 90.9686 108.329 91.7286 109.036 92.2458L129.543 107.237C131.001 108.304 133.056 107.984 134.123 106.526C134.933 105.417 134.69 103.856 133.581 103.046L111.803 87.1258C111.371 86.8101 110.863 86.6458 110.339 86.6458V86.6444Z"
            fill="#007AC9" />
        <path fill-rule="evenodd" clip-rule="evenodd"
            d="M105.637 82.7598L107.929 84.4355C109.151 85.3283 109.417 87.0426 108.524 88.264C107.631 89.4855 105.917 89.7512 104.695 88.8583L102.402 87.1826"
            fill="#E5F2FA" />
        <path
            d="M106.302 91.0143C105.384 91.0143 104.492 90.7243 103.736 90.1729L101.444 88.4957C100.719 87.9657 100.561 86.95 101.091 86.2243C101.621 85.5 102.638 85.3429 103.361 85.8714L105.654 87.5471C105.894 87.7229 106.188 87.7943 106.482 87.7486C106.776 87.7029 107.035 87.5457 107.211 87.3057C107.386 87.0657 107.458 86.7714 107.412 86.4771C107.366 86.1829 107.209 85.9243 106.968 85.7486L104.675 84.0714C103.951 83.5414 103.792 82.5257 104.322 81.8C104.852 81.0757 105.869 80.9171 106.592 81.4471L108.885 83.1229C109.826 83.8114 110.444 84.8243 110.622 85.9757C110.801 87.1271 110.521 88.28 109.832 89.2214C109.144 90.1629 108.131 90.78 106.979 90.9586C106.752 90.9943 106.525 91.0114 106.299 91.0114L106.302 91.0143Z"
            fill="#007AC9" />
        <path
            d="M102.228 61.2315C101.685 61.2315 101.185 60.8772 101.023 60.3286C99.7548 56.0086 97.0719 52.1186 93.4662 49.3786C89.7419 46.5486 85.2934 45.0515 80.6034 45.0515C79.9105 45.0515 79.3477 44.4886 79.3477 43.7958C79.3477 43.1029 79.9091 42.54 80.6034 42.54C85.8477 42.54 90.8219 44.2129 94.9862 47.3786C99.0162 50.4415 102.016 54.7886 103.433 59.62C103.629 60.2858 103.248 60.9829 102.582 61.1786C102.463 61.2129 102.345 61.23 102.228 61.23V61.2315Z"
            fill="#BEE4F8" />
        <path
            d="M103.174 67.7948C102.857 67.7948 102.009 67.6791 101.889 66.4534C101.884 66.4134 101.883 66.372 101.883 66.332C101.883 66.2291 101.883 66.1591 101.886 66.1148C101.917 65.3091 102.529 64.8748 103.116 64.8605C103.246 64.8577 104.351 64.872 104.419 66.262C104.486 67.6334 103.463 67.7777 103.257 67.792C103.237 67.7934 103.209 67.7948 103.174 67.7948Z"
            fill="#BEE4F8" />
        <path fill-rule="evenodd" clip-rule="evenodd"
            d="M138.974 92.5787C136.177 93.493 134.534 92.593 134.107 91.153C133.68 89.713 132.899 88.8359 131.526 88.3302C129.993 87.7659 128.9 88.6816 127.103 88.0544C125.771 87.5902 125.464 85.4116 123.23 84.7473C120.473 83.9273 117.561 86.6187 115.809 89.8902C114.26 92.7802 114.001 95.1559 113.267 96.5059C110.394 101.789 116.264 105.346 119.771 99.4202C121.281 96.8702 121.407 96.1602 122.706 93.3187C120.726 97.6444 120.367 99.7959 119.613 101.614C118.349 104.663 119.139 107.152 121.441 107.799C123.744 108.446 125.264 106.912 126.053 105.177C127.666 101.627 128.041 100.637 129.481 97.0287C127.949 100.834 127.25 102.232 126.053 105.177C124.934 107.93 125.811 110.824 127.869 111.51C129.926 112.196 131.821 109.736 131.821 109.736"
            fill="#E5F2FA" />
        <path
            d="M128.594 113.037C128.14 113.037 127.745 112.955 127.421 112.847C126.245 112.455 125.285 111.56 124.717 110.327C124.521 109.903 124.377 109.453 124.281 108.985C123.295 109.404 122.194 109.475 121.058 109.155C119.74 108.784 118.697 107.927 118.121 106.741C117.652 105.777 117.502 104.633 117.665 103.398C116.102 104.14 114.527 104.015 113.344 103.344C111.291 102.18 110.18 99.2241 112.027 95.8283C112.26 95.4012 112.464 94.7283 112.701 93.9483C113.094 92.6555 113.584 91.0469 114.564 89.2198C116.958 84.7526 120.518 82.4641 123.632 83.3912C125.357 83.9041 126.221 85.0683 126.852 85.9183C127.098 86.2498 127.405 86.6612 127.567 86.7184C128.187 86.9341 128.682 86.8769 129.311 86.8026C130.042 86.7169 130.954 86.6112 132.014 87.0012C133.778 87.6512 134.905 88.8769 135.461 90.7469C135.54 91.0126 135.7 91.2055 135.95 91.3369C136.503 91.6269 137.445 91.5883 138.535 91.2326C139.275 90.9898 140.074 91.3941 140.315 92.1355C140.558 92.8769 140.154 93.6741 139.412 93.9155C137.057 94.6855 135.515 94.2983 134.638 93.8369C133.718 93.3541 133.048 92.5426 132.754 91.5498C132.454 90.5383 131.957 89.9869 131.037 89.6483C130.628 89.4983 130.277 89.5298 129.637 89.6041C128.85 89.6955 127.868 89.8098 126.637 89.3812C125.655 89.0383 125.087 88.2741 124.585 87.5983C124.084 86.9226 123.65 86.3383 122.827 86.0941C121.42 85.6755 119.012 86.8912 117.051 90.5512C116.204 92.1326 115.777 93.5326 115.401 94.7683C115.118 95.6941 114.875 96.4941 114.505 97.1741C113.482 99.0541 113.908 100.417 114.737 100.887C115.645 101.403 117.228 100.937 118.555 98.6969C119.562 96.9955 119.908 96.1912 120.48 94.8598C120.718 94.3055 120.987 93.6798 121.35 92.8812C121.372 92.8312 121.395 92.7812 121.418 92.7298C121.418 92.7298 121.418 92.7298 121.418 92.7269C121.742 92.0184 122.58 91.7069 123.288 92.0312C123.997 92.3555 124.308 93.1926 123.985 93.9012C123.985 93.9012 123.985 93.9041 123.984 93.9055C123.96 93.9598 123.935 94.0126 123.911 94.0655C122.711 96.7084 122.145 98.4883 121.688 99.9255C121.427 100.747 121.201 101.457 120.914 102.15C120.363 103.481 120.27 104.704 120.658 105.505C120.885 105.975 121.267 106.28 121.82 106.435C123.428 106.888 124.345 105.5 124.752 104.613C125.294 103.281 125.731 102.27 126.194 101.2C126.754 99.9041 127.334 98.5641 128.167 96.4955C128.458 95.7726 129.28 95.4241 130.001 95.7126C130.724 96.0026 131.075 96.8226 130.787 97.5455L130.425 98.4498C129.257 101.381 128.818 102.484 127.344 105.725C126.865 106.918 126.84 108.194 127.275 109.14C127.444 109.505 127.76 109.98 128.308 110.163C129.108 110.43 130.272 109.39 130.712 108.845C131.201 108.241 132.087 108.141 132.695 108.627C133.302 109.113 133.404 109.994 132.921 110.604C132.86 110.683 132.288 111.388 131.415 112.014C130.337 112.787 129.374 113.031 128.588 113.031L128.594 113.037Z"
            fill="#007AC9" />
        <path
            d="M68.3297 68.1943C68.6312 66.16 70.524 64.7529 72.5583 65.0543C74.5926 65.3558 75.9997 67.2486 75.6983 69.2829C75.3983 71.3172 73.504 72.7243 71.4697 72.4229C69.4354 72.1215 68.0283 70.2286 68.3297 68.1943Z"
            fill="#007AC9" />
        <path
            d="M57.5501 82.2101C56.9001 82.2101 56.2644 81.8887 55.8887 81.3001L55.1787 80.1901C54.1572 78.593 53.7415 76.6787 54.0087 74.8001C54.2758 72.9216 55.2072 71.1987 56.6344 69.9487C57.7787 68.9444 58.2515 67.4044 57.8672 65.9301C57.5929 64.8773 58.2229 63.8016 59.2744 63.5273C60.3272 63.253 61.4029 63.883 61.6772 64.9344C62.4415 67.8587 61.5044 70.9144 59.2315 72.9087C57.7344 74.2216 57.4258 76.3916 58.4987 78.0687L59.2087 79.1801C59.7944 80.0973 59.5258 81.3144 58.6087 81.9001C58.2801 82.1101 57.9129 82.2101 57.5501 82.2101ZM74.0015 56.4216C72.6687 56.4216 71.3415 56.1201 70.1072 55.523C67.9515 54.4801 66.3315 52.6616 65.5444 50.4001C65.1872 49.373 65.7301 48.2501 66.7572 47.893C67.7844 47.5358 68.9072 48.0787 69.2644 49.1058C69.7058 50.373 70.6144 51.393 71.8215 51.9773C73.0301 52.5616 74.3929 52.6401 75.6615 52.1987C76.6887 51.8416 77.8115 52.3844 78.1687 53.4116C78.5258 54.4387 77.9829 55.5616 76.9558 55.9187C75.9901 56.2544 74.9944 56.4216 74.0015 56.4216Z"
            fill="#007AC9" />
        <path
            d="M80.4867 40.8715C87.4052 40.8715 93.911 43.5658 98.8024 48.4586C103.695 53.3515 106.39 59.8558 106.39 66.7744C106.39 73.0858 104.094 79.1644 99.9224 83.8944C95.1895 88.0729 89.1067 90.3729 82.7895 90.3729C75.871 90.3729 69.3652 87.6786 64.4738 82.7858C59.5824 77.8929 56.8867 71.3886 56.8867 64.4701C56.8867 58.1529 59.1867 52.0715 63.3652 47.3372C68.0967 43.1672 74.1738 40.8701 80.4852 40.8701M80.4852 39.7544C73.6138 39.7544 67.3424 42.3215 62.5738 46.5458C58.3424 51.3158 55.7695 57.5915 55.7695 64.4686C55.7695 79.3915 67.8667 91.4872 82.7881 91.4872C89.6667 91.4872 95.9424 88.9158 100.711 84.6829C104.937 79.9144 107.502 73.6444 107.502 66.7715C107.502 51.8486 95.4052 39.7529 80.4838 39.7529L80.4852 39.7544Z"
            fill="white" />
    </g>
    <path fill-rule="evenodd" clip-rule="evenodd"
        d="M102.423 48.2498C101.02 46.4112 98.8214 44.667 97.7986 43.9012C97.5157 43.6898 97.5057 43.2712 97.7757 43.0441L99.94 41.2255C100.13 41.067 100.401 41.0555 100.606 41.1955C103.027 42.8527 104.81 44.9555 105.514 45.8527C105.701 46.0912 105.659 46.437 105.419 46.6227L103.191 48.347C102.953 48.5312 102.607 48.4912 102.424 48.2512L102.423 48.2498ZM95.1857 42.207C95.3372 42.2941 95.4843 42.3812 95.61 42.4555C95.8157 42.577 96.0757 42.5512 96.2543 42.3927L98.4372 40.4412C98.7043 40.2027 98.6743 39.7755 98.3757 39.5784C98.2172 39.4727 98.0386 39.3584 97.8457 39.237C97.6314 39.1027 97.3529 39.1327 97.1729 39.3084L95.08 41.3427C94.82 41.5955 94.8729 42.027 95.1872 42.2084L95.1857 42.207Z"
        fill="#BEE4F8" />
    <path fill-rule="evenodd" clip-rule="evenodd"
        d="M62.8097 84.4901C64.3654 86.2001 66.7069 87.7486 67.7926 88.4243C68.0926 88.6101 68.1397 89.0272 67.8897 89.2758L66.7226 90.3558C66.5483 90.5301 66.2783 90.5658 66.0626 90.4444C63.5069 89.0015 61.5497 87.0615 60.7697 86.2286C60.5626 86.0072 60.5769 85.6586 60.7997 85.4529L62.0369 84.4615C62.2583 84.2572 62.6054 84.2672 62.8097 84.4915V84.4901ZM70.5412 89.8858C70.3826 89.8115 70.2283 89.7386 70.0969 89.6743C69.8812 89.5715 69.624 89.6186 69.4612 89.7929L68.2869 91.0072C68.0412 91.2686 68.1083 91.6915 68.4226 91.8629C68.5897 91.9543 68.7769 92.0529 68.9812 92.1572C69.2054 92.2715 69.4812 92.2186 69.6454 92.0286L70.7226 90.7401C70.9597 90.4658 70.8697 90.0401 70.5412 89.8858Z"
        fill="#BEE4F8" />
    <path
        d="M28.4534 103.808C18.672 103.808 10.7148 111.765 10.7148 121.546C10.7148 131.328 18.672 139.285 28.4534 139.285C38.2348 139.285 46.1934 131.326 46.1934 121.546C46.1934 111.766 38.2348 103.808 28.4534 103.808Z"
        fill="white" />
    <path
        d="M28.4531 105.872C19.8102 105.872 12.7773 112.904 12.7773 121.548C12.7773 130.192 19.8088 137.224 28.4531 137.224C37.0973 137.224 44.1288 130.192 44.1288 121.548C44.1288 112.904 37.0959 105.872 28.4531 105.872Z"
        fill="#00B9E4" />
    <path
        d="M22.0001 120.327C22.9929 120.327 23.6701 121.053 23.6701 121.997V122.239C23.6701 123.183 22.9929 123.909 22.0001 123.909C21.0072 123.909 20.3301 123.183 20.3301 122.239V121.997C20.3301 121.053 21.0072 120.327 22.0001 120.327ZM28.3644 120.327C29.3572 120.327 30.0344 121.053 30.0344 121.997V122.239C30.0344 123.183 29.3572 123.909 28.3644 123.909C27.3715 123.909 26.6944 123.183 26.6944 122.239V121.997C26.6944 121.053 27.3715 120.327 28.3644 120.327ZM34.7287 120.327C35.7215 120.327 36.3986 121.053 36.3986 121.997V122.239C36.3986 123.183 35.7215 123.909 34.7287 123.909C33.7358 123.909 33.0587 123.183 33.0587 122.239V121.997C33.0587 121.053 33.7358 120.327 34.7287 120.327Z"
        fill="white" />
</svg>