<svg width="100" height="100" viewBox="0 0 100 100" fill="none" xmlns="http://www.w3.org/2000/svg">
<path d="M7.17969 50.0739C7.17969 73.6244 26.4483 92.8939 49.9997 92.8939C73.5502 92.8939 92.8197 73.6253 92.8197 50.0739C92.8197 26.5225 73.5511 7.25391 50.0006 7.25391C26.4502 7.25391 7.18064 26.5225 7.18064 50.0739" fill="#BEE4F8"/>
<mask id="mask0_3360_309243" style="mask-type:luminance" maskUnits="userSpaceOnUse" x="7" y="7" width="86" height="86">
<path d="M7.17969 50.0739C7.17969 73.6244 26.4483 92.8939 49.9997 92.8939C73.5502 92.8939 92.8197 73.6253 92.8197 50.0739C92.8197 26.5225 73.5511 7.25391 50.0006 7.25391C26.4502 7.25391 7.18064 26.5225 7.18064 50.0739" fill="white"/>
</mask>
<g mask="url(#mask0_3360_309243)">
<path d="M31.8298 51.1415C31.8251 51.2167 31.8203 51.291 31.8203 51.3615C31.8203 52.8434 33.1013 54.1005 34.7565 54.2272L35.0927 54.2643C35.2984 54.2177 35.5136 54.2082 35.7289 54.2224L43.2689 54.8767C43.3622 54.8815 43.4508 54.8958 43.5451 54.9186C44.6717 54.6472 45.6536 53.9282 45.7422 52.8805C45.747 52.8196 45.7517 52.7586 45.7517 52.7034C45.7517 51.3101 44.4241 49.8663 42.947 49.7024V49.6929C42.8813 49.6929 42.8203 49.6882 42.7556 49.6786C42.7556 49.6786 36.206 48.9682 36.1079 48.9491C35.1679 48.7672 34.3689 48.1967 33.8175 47.4062L33.8079 47.411C32.6298 48.4767 31.966 49.571 31.8308 51.1415" fill="white"/>
<path d="M32.9001 56.7694C32.8954 56.8399 32.8906 56.9046 32.8906 56.9751C32.8906 58.3913 34.1668 59.5465 35.5268 59.5932C35.9897 59.6865 36.4525 59.7703 36.9106 59.836L41.8287 60.0884C42.2497 60.0694 42.6706 60.037 43.0859 59.9951C44.3573 60.037 45.7182 59.1961 45.8344 57.8075C45.8392 57.7513 45.8392 57.6999 45.8392 57.6437C45.8392 56.4094 44.6802 55.1618 43.544 54.918C43.1182 55.0256 42.6697 55.0627 42.244 55.0303L35.0916 54.2637C33.9468 54.4789 33.0116 55.4932 32.8992 56.7694" fill="white"/>
<path d="M46.0042 47.9012C46.0556 47.6345 46.1213 47.364 46.2051 47.0879C46.1766 47.3821 46.107 47.6536 46.0042 47.9012ZM42.947 49.6917V49.7012C44.4242 49.865 45.7518 51.3088 45.7518 52.7021C45.7518 52.7583 45.747 52.8193 45.7423 52.8793C45.6537 53.926 44.6718 54.646 43.5451 54.9174C44.6813 55.1602 45.8404 56.4088 45.8404 57.6431C45.8404 57.6993 45.8404 57.7507 45.8356 57.8069C45.7185 59.1955 44.3585 60.0364 43.087 59.9945C42.6708 60.0364 42.2499 60.0698 41.8299 60.0879L43.2461 60.1631C44.3727 60.1955 45.4194 61.4621 45.4194 62.7812C45.4194 62.8517 45.4146 62.9164 45.4099 62.9869C45.387 63.8707 45.0546 64.4317 44.587 64.7774L44.6899 64.9079L49.3927 66.4602L49.9346 66.4745C50.1404 59.9021 55.1889 54.3526 61.8832 53.6698C59.808 48.9155 56.7689 45.1802 55.9232 39.0983C55.5956 36.7564 55.6661 34.9707 56.3623 33.1098C57.8442 29.1545 54.1746 26.3221 50.9956 29.0707C49.9394 29.9869 49.1537 31.5526 48.7985 32.4831C47.8823 34.9002 47.7042 37.186 47.887 39.505L47.6908 39.5241C41.3756 38.4955 35.8546 37.7336 33.508 42.586C32.6756 44.3012 32.928 46.1383 33.8165 47.406C34.368 48.1964 35.168 48.766 36.107 48.9488C36.2051 48.9669 42.7546 49.6783 42.7546 49.6783C42.8204 49.6879 42.8813 49.6926 42.9461 49.6926" fill="white"/>
<path d="M34.0251 62.4948C34.0204 62.5701 34.0156 62.6396 34.0156 62.7101C34.0156 64.1082 35.2032 65.1967 36.4556 65.1739C38.5918 65.4872 40.7099 65.5063 42.809 65.2863C43.4261 65.272 44.0851 65.151 44.5851 64.7767C45.0528 64.431 45.3842 63.8701 45.408 62.9863C45.4128 62.9158 45.4175 62.851 45.4175 62.7805C45.4175 61.4624 44.3699 60.1958 43.2442 60.1624L41.828 60.0872C40.2061 60.171 38.5651 60.0872 36.9099 59.8348C35.5966 59.7977 34.1518 60.9891 34.0251 62.4948Z" fill="white"/>
<path d="M35.0938 54.2648L42.2461 55.0315C42.6718 55.0639 43.1204 55.0267 43.5452 54.9191C43.4518 54.8953 43.3633 54.882 43.2699 54.8772L35.7299 54.2229C35.5147 54.2086 35.2995 54.2181 35.0938 54.2648Z" fill="white"/>
<path d="M41.8322 60.0883L36.9141 59.8359C38.5693 60.0883 40.2093 60.1721 41.8322 60.0883Z" fill="white"/>
<path d="M46.2088 47.0879C46.125 47.3641 46.0592 47.6346 46.0078 47.9012C46.1107 47.6536 46.1811 47.3822 46.2088 47.0879Z" fill="white"/>
<path d="M103.792 82.0181C103.384 77.6057 101.597 73.5467 98.6223 70.279C95.8109 67.1905 92.0414 65.0105 87.9823 64.121C84.4956 59.6486 79.1309 57.0295 73.4852 57.0295C73.4061 57.0295 73.3271 57.0295 73.249 57.0314C70.368 54.1095 66.4394 52.6067 62.3604 52.8629C61.7718 51.5743 61.1194 50.3486 60.4852 49.159C58.8223 46.0381 57.2509 43.0914 56.6814 38.9943C56.3528 36.641 56.468 35.0143 57.0794 33.38C57.4937 32.2733 57.5775 31.1619 57.3204 30.1667C57.0756 29.219 56.5233 28.4057 55.7642 27.8771C54.2309 26.8095 52.1633 27.0514 50.4947 28.4943C49.4023 29.4419 48.5328 31.0362 48.0833 32.2133C47.3137 34.2438 46.9861 36.3095 47.0709 38.6486C41.2423 37.7086 35.3671 36.9838 32.8185 42.2524C32.0252 43.8886 32.0461 45.7581 32.8423 47.2771C31.7471 48.4086 31.1928 49.601 31.0661 51.0752C31.0661 51.081 31.0661 51.0867 31.0652 51.0933C31.0604 51.1752 31.0547 51.2667 31.0547 51.361C31.0547 52.7086 31.8785 53.9105 33.0985 54.539C32.5623 55.1124 32.2109 55.8686 32.1375 56.7019C32.1375 56.7086 32.1366 56.7143 32.1366 56.721V56.741C32.1309 56.8095 32.1261 56.8876 32.1261 56.9752C32.1261 58.3705 33.0861 59.6286 34.389 60.1295C33.7661 60.7381 33.3385 61.5543 33.2652 62.4314C33.2652 62.4371 33.2652 62.4419 33.2642 62.4476V62.461C33.2585 62.54 33.2537 62.621 33.2537 62.7105C33.2537 63.581 33.6014 64.401 34.2309 65.0191C34.8252 65.6019 35.6137 65.9352 36.4061 65.939C38.4947 66.24 40.6661 66.2771 42.8623 66.0495C43.5252 66.0314 44.0994 65.9048 44.5756 65.6743L49.1547 67.1857C49.1547 67.1857 49.1633 67.1876 49.1671 67.1895C49.1737 67.5286 49.1899 67.8657 49.2214 68.1981C49.6118 72.4248 51.8414 76.1829 55.3547 78.5629C56.3337 84.2095 59.9195 89.1 65.0214 91.7476C66.6404 95.5762 69.4728 98.8838 73.0242 101.083C76.2404 103.074 79.8661 104.105 83.6109 104.105C84.2414 104.105 84.8756 104.075 85.5118 104.017C90.8928 103.521 95.7585 100.96 99.2118 96.8057C102.665 92.6505 104.293 87.399 103.795 82.0181H103.792ZM32.5852 51.3619C32.5852 51.3181 32.589 51.26 32.5928 51.1991C32.6842 50.1562 33.0356 49.3419 33.7671 48.5305C34.3833 49.1352 35.1404 49.5419 35.9642 49.7019C36.0023 49.7095 36.0918 49.7257 42.6604 50.439C42.7061 50.4457 42.7509 50.4495 42.7956 50.4533C42.8175 50.4581 42.8394 50.461 42.8623 50.4638C43.9337 50.5829 44.9861 51.6924 44.9861 52.7048C44.9861 52.7314 44.9823 52.7781 44.9794 52.8181C44.9223 53.4971 44.189 53.94 43.5194 54.1362C43.4537 54.1257 43.388 54.119 43.3223 54.1162L35.7947 53.4629C35.789 53.4629 35.7842 53.4629 35.7785 53.4619C35.5252 53.4457 35.2842 53.4562 35.0614 53.4943L34.8404 53.4695C34.8318 53.4695 34.8233 53.4676 34.8147 53.4667C33.5652 53.3714 32.5861 52.4476 32.5861 51.3638L32.5852 51.3619ZM44.6461 62.9238V62.9362C44.6442 62.9467 44.6442 62.9571 44.6442 62.9667C44.629 63.5267 44.4614 63.9181 44.128 64.1648C43.829 64.3886 43.3794 64.5086 42.7928 64.5219C42.7718 64.5219 42.7509 64.5238 42.7309 64.5257C40.6318 64.7457 38.5585 64.7086 36.568 64.4171C36.5309 64.4114 36.4937 64.4086 36.4566 64.4086C36.4518 64.4086 36.4471 64.4086 36.4423 64.4086C36.4337 64.4086 36.4252 64.4086 36.4175 64.4086C36.0194 64.4086 35.6147 64.2333 35.3014 63.9267C34.9671 63.5981 34.7823 63.1657 34.7823 62.7105C34.7823 62.6686 34.7852 62.6171 34.789 62.5571V62.5524C34.8699 61.6438 35.8195 60.5781 36.8804 60.601L41.7785 60.8524C41.7842 60.8524 41.789 60.8524 41.7947 60.8524L43.2033 60.9267C43.209 60.9267 43.2156 60.9267 43.2214 60.9267C43.8652 60.9457 44.6518 61.8038 44.6518 62.779C44.6518 62.819 44.649 62.8638 44.6452 62.921L44.6461 62.9238ZM45.0718 57.7438C44.9918 58.7 43.9918 59.261 43.1109 59.2305C43.0766 59.2295 43.0423 59.2305 43.009 59.2343C42.5899 59.2762 42.2033 59.3057 41.8309 59.3229L36.9852 59.0743C36.5937 59.0171 36.1661 58.9419 35.6785 58.8438C35.6375 58.8352 35.5956 58.8305 35.5528 58.8295C34.5423 58.7952 33.6556 57.9286 33.6556 56.9771C33.6556 56.9381 33.6585 56.8952 33.6623 56.841V56.8295C33.7423 55.9705 34.3528 55.2352 35.1337 55.039L42.1633 55.7924C42.1709 55.7924 42.1785 55.7933 42.1861 55.7943C42.629 55.8286 43.0899 55.7981 43.5309 55.7076C44.2633 55.9476 45.0747 56.8067 45.0747 57.6448C45.0747 57.6857 45.0747 57.7181 45.0728 57.7438H45.0718ZM45.8223 64.4771C46.0166 64.1038 46.1556 63.6276 46.1737 63.0248C46.1785 62.9533 46.1842 62.8733 46.1842 62.7819C46.1842 61.8105 45.7433 60.8743 45.0861 60.2343C45.8947 59.7486 46.5071 58.9438 46.5975 57.8752C46.6052 57.7857 46.6052 57.7105 46.6052 57.6448C46.6052 56.681 46.0594 55.6743 45.2661 54.9838C45.7614 54.6314 46.128 54.1838 46.3309 53.6743C47.1518 54.9886 48.1652 55.8391 48.6594 56.2067C48.9985 56.459 49.4785 56.3886 49.7299 56.0486C49.9823 55.7095 49.9118 55.2295 49.5718 54.9781C48.7252 54.3486 46.0309 52.001 46.7404 48.1171C46.8547 47.821 46.9299 47.5076 46.9633 47.181C46.9652 47.1667 46.9661 47.1524 46.9671 47.1381C46.9775 47.0162 46.9823 46.8914 46.9823 46.7667C46.9823 44.9181 45.7099 43.4514 43.7385 43.0305C41.4985 42.5571 39.7052 42.4676 38.2547 42.7571C37.8404 42.84 37.5718 43.2429 37.6547 43.6581C37.7375 44.0724 38.1404 44.3419 38.5556 44.2581C39.7975 44.0095 41.389 44.0981 43.4204 44.5276C44.4023 44.7371 45.4509 45.4352 45.4509 46.7667C45.4509 46.8286 45.449 46.8905 45.4452 46.9486C45.3766 47.1829 45.3166 47.4257 45.2661 47.6733C44.8985 48.4771 43.9899 48.979 42.9823 48.9286C42.9423 48.9267 42.9061 48.9286 42.8595 48.921C42.8509 48.92 42.8423 48.9191 42.8337 48.9181C40.3318 48.6467 36.5594 48.2352 36.2299 48.1943C35.529 48.0524 34.8937 47.6181 34.4404 46.9676C33.6347 45.819 33.5404 44.2686 34.1947 42.92C36.1652 38.8448 40.6194 39.1638 47.1804 40.2181C47.2394 40.7867 47.3233 41.4029 47.4385 42.1114C47.5061 42.5286 47.8985 42.8124 48.3166 42.7438C48.7337 42.6762 49.0175 42.2829 48.949 41.8657C48.7956 40.9219 48.7004 40.1533 48.648 39.4457C48.4518 36.9533 48.7271 34.8276 49.5118 32.7571C49.8775 31.8 50.6156 30.4124 51.4947 29.6505C52.6328 28.6667 53.9328 28.4676 54.888 29.1324C55.6737 29.6791 56.3423 30.979 55.6442 32.8419C54.9356 34.7343 54.7966 36.5781 55.1633 39.2038C55.7709 43.5695 57.4794 46.7762 59.1328 49.8771C59.6814 50.9067 60.2442 51.9648 60.7604 53.0543C57.7556 53.5895 55.0004 55.0886 52.9128 57.3419C50.7985 59.6248 49.5052 62.5305 49.2214 65.5971L45.8204 64.4752L45.8223 64.4771ZM98.0318 95.8276C94.8404 99.6676 90.3423 102.035 85.368 102.493C84.7794 102.548 84.1937 102.574 83.6109 102.574C80.1509 102.574 76.7985 101.622 73.8271 99.7819C70.468 97.7019 67.8042 94.5495 66.3261 90.9067L66.2175 90.639L65.9585 90.5095C61.0614 88.0657 57.6404 83.3867 56.809 77.9933L56.7566 77.6524L56.4671 77.4657C53.1871 75.3552 51.1004 71.9267 50.7423 68.0581C50.6947 67.5476 50.6804 67.0238 50.6985 66.4971C50.8937 60.2524 55.7347 55.0648 61.9594 54.4305L62.0852 54.4162C65.388 54.1124 68.6042 55.1086 71.1366 57.1752C67.6223 57.621 64.348 59.0524 61.6318 61.3391C61.309 61.6114 61.2671 62.0943 61.5394 62.4171C61.6909 62.5971 61.9071 62.6895 62.1252 62.6895C62.2994 62.6895 62.4737 62.6305 62.6175 62.5095C65.2585 60.2857 68.6985 58.8143 72.6071 58.5771L72.9518 58.5657C78.409 58.3924 83.6356 60.8981 86.9347 65.2695L87.109 65.501L87.3928 65.5591C91.2442 66.3438 94.8299 68.3857 97.489 71.3076C100.238 74.3276 101.889 78.079 102.266 82.1581C102.727 87.1314 101.222 91.9857 98.0299 95.8267L98.0318 95.8276Z" fill="#007AC9"/>
<path d="M81.795 63.7346C76.4169 64.2327 71.5531 66.7956 68.0988 70.9499C67.8283 71.2747 67.8731 71.7575 68.1979 72.028C68.3407 72.147 68.5141 72.2051 68.6864 72.2051C68.9064 72.2051 69.1236 72.1108 69.275 71.9289C72.4683 68.0889 76.9645 65.7204 81.935 65.2594C82.356 65.2204 82.6655 64.848 82.6264 64.427C82.5874 64.0061 82.215 63.6975 81.7941 63.7356L81.795 63.7346Z" fill="#007AC9"/>
<path d="M60.5006 63.4584C60.1778 63.1851 59.6949 63.226 59.4225 63.5489C58.6216 64.4965 57.9139 65.527 57.3206 66.6117C57.1178 66.9822 57.2539 67.4479 57.6244 67.6508C57.7406 67.7146 57.8673 67.7451 57.9911 67.7451C58.2616 67.7451 58.5244 67.6012 58.6635 67.347C59.2073 66.3527 59.8568 65.407 60.5911 64.5374C60.8644 64.2146 60.8235 63.7317 60.5006 63.4593V63.4584Z" fill="#007AC9"/>
<mask id="mask1_3360_309243" style="mask-type:luminance" maskUnits="userSpaceOnUse" x="50" y="54" width="53" height="49">
<path d="M98.0284 95.8283C94.837 99.6683 90.3389 102.036 85.3646 102.494C84.776 102.548 84.1903 102.575 83.6074 102.575C80.1474 102.575 76.7951 101.623 73.8236 99.7826C70.4646 97.7026 67.8008 94.5502 66.3227 90.9074L66.2141 90.6398L65.9551 90.5102C61.0579 88.0664 57.637 83.3874 56.8055 77.994L56.7532 77.6531L56.4636 77.4664C53.1836 75.356 51.097 71.9274 50.7389 68.0588C50.6913 67.5483 50.677 67.0245 50.6951 66.4979C50.8903 60.2531 55.7313 55.0655 61.956 54.4312L62.0817 54.4169C65.3846 54.1131 68.6008 55.1093 71.1332 57.176C67.6189 57.6217 64.3446 59.0531 61.6284 61.3398C61.3055 61.6121 61.2636 62.095 61.536 62.4179C61.6874 62.5979 61.9036 62.6902 62.1217 62.6902C62.296 62.6902 62.4703 62.6312 62.6141 62.5102C65.2551 60.2864 68.6951 58.815 72.6036 58.5779L72.9484 58.5664C78.4055 58.3931 83.6322 60.8988 86.9313 65.2702L87.1055 65.5017L87.3893 65.5598C91.2408 66.3445 94.8265 68.3864 97.4855 71.3083C100.234 74.3283 101.886 78.0798 102.263 82.1588C102.724 87.1321 101.219 91.9864 98.0265 95.8274L98.0284 95.8283Z" fill="white"/>
</mask>
<g mask="url(#mask1_3360_309243)">
<path d="M49.9197 62.3718C50.3068 62.3718 50.6207 62.058 50.6207 61.6709C50.6207 61.2838 50.3068 60.9699 49.9197 60.9699C49.5326 60.9699 49.2188 61.2838 49.2188 61.6709C49.2188 62.058 49.5326 62.3718 49.9197 62.3718Z" fill="#007AC9"/>
<path d="M49.9197 63.7747C49.5321 63.7747 49.2188 64.089 49.2188 64.4756C49.2188 64.8623 49.533 65.1766 49.9197 65.1766C50.3064 65.1766 50.6207 64.8623 50.6207 64.4756C50.6207 64.089 50.3064 63.7747 49.9197 63.7747Z" fill="#007AC9"/>
<path d="M49.9197 66.5794C49.5321 66.5794 49.2188 66.8937 49.2188 67.2804C49.2188 67.6671 49.533 67.9814 49.9197 67.9814C50.3064 67.9814 50.6207 67.6671 50.6207 67.2804C50.6207 66.8937 50.3064 66.5794 49.9197 66.5794Z" fill="#007AC9"/>
<path d="M49.9197 70.7861C50.3068 70.7861 50.6207 70.4723 50.6207 70.0852C50.6207 69.698 50.3068 69.3842 49.9197 69.3842C49.5326 69.3842 49.2188 69.698 49.2188 70.0852C49.2188 70.4723 49.5326 70.7861 49.9197 70.7861Z" fill="#007AC9"/>
<path d="M49.9197 73.5909C50.3068 73.5909 50.6207 73.2771 50.6207 72.8899C50.6207 72.5028 50.3068 72.189 49.9197 72.189C49.5326 72.189 49.2188 72.5028 49.2188 72.8899C49.2188 73.2771 49.5326 73.5909 49.9197 73.5909Z" fill="#007AC9"/>
<path d="M52.7245 58.1652C52.3368 58.1652 52.0235 58.4795 52.0235 58.8661C52.0235 59.2528 52.3378 59.5671 52.7245 59.5671C53.1111 59.5671 53.4254 59.2528 53.4254 58.8661C53.4254 58.4795 53.1111 58.1652 52.7245 58.1652Z" fill="#007AC9"/>
<path d="M52.7245 60.9699C52.3368 60.9699 52.0235 61.2842 52.0235 61.6709C52.0235 62.0575 52.3378 62.3718 52.7245 62.3718C53.1111 62.3718 53.4254 62.0585 53.4254 61.6709C53.4254 61.2833 53.1111 60.9699 52.7245 60.9699Z" fill="#007AC9"/>
<path d="M52.7245 63.7747C52.3368 63.7747 52.0235 64.089 52.0235 64.4756C52.0235 64.8623 52.3378 65.1766 52.7245 65.1766C53.1111 65.1766 53.4254 64.8623 53.4254 64.4756C53.4254 64.089 53.1111 63.7747 52.7245 63.7747Z" fill="#007AC9"/>
<path d="M52.7245 66.5794C52.3368 66.5794 52.0235 66.8937 52.0235 67.2804C52.0235 67.6671 52.3378 67.9814 52.7245 67.9814C53.1111 67.9814 53.4254 67.6671 53.4254 67.2804C53.4254 66.8937 53.1111 66.5794 52.7245 66.5794Z" fill="#007AC9"/>
<path d="M52.7245 69.3842C52.3368 69.3842 52.0235 69.6985 52.0235 70.0852C52.0235 70.4718 52.3378 70.7861 52.7245 70.7861C53.1111 70.7861 53.4254 70.4718 53.4254 70.0852C53.4254 69.6985 53.1111 69.3842 52.7245 69.3842Z" fill="#007AC9"/>
<path d="M52.7245 72.189C52.3368 72.189 52.0235 72.5033 52.0235 72.8899C52.0235 73.2766 52.3378 73.5909 52.7245 73.5909C53.1111 73.5909 53.4254 73.2766 53.4254 72.8899C53.4254 72.5033 53.1111 72.189 52.7245 72.189Z" fill="#007AC9"/>
<path d="M52.7245 74.9937C52.3368 74.9937 52.0235 75.3071 52.0235 75.6947C52.0235 76.0823 52.3378 76.3956 52.7245 76.3956C53.1111 76.3956 53.4254 76.0814 53.4254 75.6947C53.4254 75.308 53.1111 74.9937 52.7245 74.9937Z" fill="#007AC9"/>
<path d="M55.5292 55.3595C55.1416 55.3595 54.8283 55.6737 54.8283 56.0604C54.8283 56.4471 55.1426 56.7614 55.5292 56.7614C55.9159 56.7614 56.2302 56.448 56.2302 56.0604C56.2302 55.6728 55.9159 55.3595 55.5292 55.3595Z" fill="#007AC9"/>
<path d="M55.5292 58.1652C55.1416 58.1652 54.8283 58.4795 54.8283 58.8661C54.8283 59.2528 55.1426 59.5671 55.5292 59.5671C55.9159 59.5671 56.2302 59.2528 56.2302 58.8661C56.2302 58.4795 55.9159 58.1652 55.5292 58.1652Z" fill="#007AC9"/>
<path d="M55.5292 60.9699C55.1416 60.9699 54.8283 61.2842 54.8283 61.6709C54.8283 62.0575 55.1426 62.3718 55.5292 62.3718C55.9159 62.3718 56.2302 62.0585 56.2302 61.6709C56.2302 61.2833 55.9159 60.9699 55.5292 60.9699Z" fill="#007AC9"/>
<path d="M55.5292 63.7747C55.1416 63.7747 54.8283 64.089 54.8283 64.4756C54.8283 64.8623 55.1426 65.1766 55.5292 65.1766C55.9159 65.1766 56.2302 64.8623 56.2302 64.4756C56.2302 64.089 55.9159 63.7747 55.5292 63.7747Z" fill="#007AC9"/>
<path d="M55.5292 66.5794C55.1416 66.5794 54.8283 66.8937 54.8283 67.2804C54.8283 67.6671 55.1426 67.9814 55.5292 67.9814C55.9159 67.9814 56.2302 67.6671 56.2302 67.2804C56.2302 66.8937 55.9159 66.5794 55.5292 66.5794Z" fill="#007AC9"/>
<path d="M55.5292 69.3842C55.1416 69.3842 54.8283 69.6985 54.8283 70.0852C54.8283 70.4718 55.1426 70.7861 55.5292 70.7861C55.9159 70.7861 56.2302 70.4718 56.2302 70.0852C56.2302 69.6985 55.9159 69.3842 55.5292 69.3842Z" fill="#007AC9"/>
<path d="M55.5292 72.189C55.1416 72.189 54.8283 72.5033 54.8283 72.8899C54.8283 73.2766 55.1426 73.5909 55.5292 73.5909C55.9159 73.5909 56.2302 73.2766 56.2302 72.8899C56.2302 72.5033 55.9159 72.189 55.5292 72.189Z" fill="#007AC9"/>
<path d="M55.5292 74.9937C55.1416 74.9937 54.8283 75.3071 54.8283 75.6947C54.8283 76.0823 55.1426 76.3956 55.5292 76.3956C55.9159 76.3956 56.2302 76.0814 56.2302 75.6947C56.2302 75.308 55.9159 74.9937 55.5292 74.9937Z" fill="#007AC9"/>
<path d="M55.5292 77.7985C55.1416 77.7985 54.8283 78.1128 54.8283 78.4994C54.8283 78.8861 55.1426 79.2004 55.5292 79.2004C55.9159 79.2004 56.2302 78.8861 56.2302 78.4994C56.2302 78.1128 55.9159 77.7985 55.5292 77.7985Z" fill="#007AC9"/>
<path d="M58.334 55.3595C57.9464 55.3595 57.633 55.6737 57.633 56.0604C57.633 56.4471 57.9473 56.7614 58.334 56.7614C58.7207 56.7614 59.0349 56.448 59.0349 56.0604C59.0349 55.6728 58.7207 55.3595 58.334 55.3595Z" fill="#007AC9"/>
<path d="M58.334 58.1652C57.9464 58.1652 57.633 58.4795 57.633 58.8661C57.633 59.2528 57.9473 59.5671 58.334 59.5671C58.7207 59.5671 59.0349 59.2528 59.0349 58.8661C59.0349 58.4795 58.7207 58.1652 58.334 58.1652Z" fill="#007AC9"/>
<path d="M58.334 60.9699C57.9464 60.9699 57.633 61.2842 57.633 61.6709C57.633 62.0575 57.9473 62.3718 58.334 62.3718C58.7207 62.3718 59.0349 62.0585 59.0349 61.6709C59.0349 61.2833 58.7207 60.9699 58.334 60.9699Z" fill="#007AC9"/>
<path d="M58.334 63.7747C57.9464 63.7747 57.633 64.089 57.633 64.4756C57.633 64.8623 57.9473 65.1766 58.334 65.1766C58.7207 65.1766 59.0349 64.8623 59.0349 64.4756C59.0349 64.089 58.7207 63.7747 58.334 63.7747Z" fill="#007AC9"/>
<path d="M58.334 66.5794C57.9464 66.5794 57.633 66.8937 57.633 67.2804C57.633 67.6671 57.9473 67.9814 58.334 67.9814C58.7207 67.9814 59.0349 67.6671 59.0349 67.2804C59.0349 66.8937 58.7207 66.5794 58.334 66.5794Z" fill="#007AC9"/>
<path d="M58.334 69.3842C57.9464 69.3842 57.633 69.6985 57.633 70.0852C57.633 70.4718 57.9473 70.7861 58.334 70.7861C58.7207 70.7861 59.0349 70.4718 59.0349 70.0852C59.0349 69.6985 58.7207 69.3842 58.334 69.3842Z" fill="#007AC9"/>
<path d="M58.334 72.189C57.9464 72.189 57.633 72.5033 57.633 72.8899C57.633 73.2766 57.9473 73.5909 58.334 73.5909C58.7207 73.5909 59.0349 73.2766 59.0349 72.8899C59.0349 72.5033 58.7207 72.189 58.334 72.189Z" fill="#007AC9"/>
<path d="M58.334 74.9937C57.9464 74.9937 57.633 75.3071 57.633 75.6947C57.633 76.0823 57.9473 76.3956 58.334 76.3956C58.7207 76.3956 59.0349 76.0814 59.0349 75.6947C59.0349 75.308 58.7207 74.9937 58.334 74.9937Z" fill="#007AC9"/>
<path d="M58.334 77.7985C57.9464 77.7985 57.633 78.1128 57.633 78.4994C57.633 78.8861 57.9473 79.2004 58.334 79.2004C58.7207 79.2004 59.0349 78.8861 59.0349 78.4994C59.0349 78.1128 58.7207 77.7985 58.334 77.7985Z" fill="#007AC9"/>
<path d="M58.334 80.6033C57.9464 80.6033 57.633 80.9175 57.633 81.3042C57.633 81.6909 57.9473 82.0052 58.334 82.0052C58.7207 82.0052 59.0349 81.6909 59.0349 81.3042C59.0349 80.9175 58.7207 80.6033 58.334 80.6033Z" fill="#007AC9"/>
<path d="M58.334 83.408C57.9464 83.408 57.633 83.7223 57.633 84.109C57.633 84.4956 57.9473 84.8099 58.334 84.8099C58.7207 84.8099 59.0349 84.4956 59.0349 84.109C59.0349 83.7223 58.7207 83.408 58.334 83.408Z" fill="#007AC9"/>
<path d="M58.334 86.2128C57.9464 86.2128 57.633 86.5271 57.633 86.9137C57.633 87.3004 57.9473 87.6147 58.334 87.6147C58.7207 87.6147 59.0349 87.3004 59.0349 86.9137C59.0349 86.5271 58.7207 86.2128 58.334 86.2128Z" fill="#007AC9"/>
<path d="M61.1388 52.5547C60.7511 52.5547 60.4378 52.869 60.4378 53.2556C60.4378 53.6423 60.7521 53.9566 61.1388 53.9566C61.5254 53.9566 61.8397 53.6423 61.8397 53.2556C61.8397 52.869 61.5254 52.5547 61.1388 52.5547Z" fill="#007AC9"/>
<path d="M61.1388 55.3595C60.7511 55.3595 60.4378 55.6737 60.4378 56.0604C60.4378 56.4471 60.7521 56.7614 61.1388 56.7614C61.5254 56.7614 61.8397 56.448 61.8397 56.0604C61.8397 55.6728 61.5254 55.3595 61.1388 55.3595Z" fill="#007AC9"/>
<path d="M61.1388 58.1652C60.7511 58.1652 60.4378 58.4795 60.4378 58.8661C60.4378 59.2528 60.7521 59.5671 61.1388 59.5671C61.5254 59.5671 61.8397 59.2528 61.8397 58.8661C61.8397 58.4795 61.5254 58.1652 61.1388 58.1652Z" fill="#007AC9"/>
<path d="M61.1388 60.9699C60.7511 60.9699 60.4378 61.2842 60.4378 61.6709C60.4378 62.0575 60.7521 62.3718 61.1388 62.3718C61.5254 62.3718 61.8397 62.0585 61.8397 61.6709C61.8397 61.2833 61.5254 60.9699 61.1388 60.9699Z" fill="#007AC9"/>
<path d="M61.1388 63.7747C60.7511 63.7747 60.4378 64.089 60.4378 64.4756C60.4378 64.8623 60.7521 65.1766 61.1388 65.1766C61.5254 65.1766 61.8397 64.8623 61.8397 64.4756C61.8397 64.089 61.5254 63.7747 61.1388 63.7747Z" fill="#007AC9"/>
<path d="M61.1388 66.5794C60.7511 66.5794 60.4378 66.8937 60.4378 67.2804C60.4378 67.6671 60.7521 67.9814 61.1388 67.9814C61.5254 67.9814 61.8397 67.6671 61.8397 67.2804C61.8397 66.8937 61.5254 66.5794 61.1388 66.5794Z" fill="#007AC9"/>
<path d="M61.1388 69.3842C60.7511 69.3842 60.4378 69.6985 60.4378 70.0852C60.4378 70.4718 60.7521 70.7861 61.1388 70.7861C61.5254 70.7861 61.8397 70.4718 61.8397 70.0852C61.8397 69.6985 61.5254 69.3842 61.1388 69.3842Z" fill="#007AC9"/>
<path d="M61.1388 72.189C60.7511 72.189 60.4378 72.5033 60.4378 72.8899C60.4378 73.2766 60.7521 73.5909 61.1388 73.5909C61.5254 73.5909 61.8397 73.2766 61.8397 72.8899C61.8397 72.5033 61.5254 72.189 61.1388 72.189Z" fill="#007AC9"/>
<path d="M61.1388 74.9937C60.7511 74.9937 60.4378 75.3071 60.4378 75.6947C60.4378 76.0823 60.7521 76.3956 61.1388 76.3956C61.5254 76.3956 61.8397 76.0814 61.8397 75.6947C61.8397 75.308 61.5254 74.9937 61.1388 74.9937Z" fill="#007AC9"/>
<path d="M61.1388 77.7985C60.7511 77.7985 60.4378 78.1128 60.4378 78.4994C60.4378 78.8861 60.7521 79.2004 61.1388 79.2004C61.5254 79.2004 61.8397 78.8861 61.8397 78.4994C61.8397 78.1128 61.5254 77.7985 61.1388 77.7985Z" fill="#007AC9"/>
<path d="M61.1388 80.6033C60.7511 80.6033 60.4378 80.9175 60.4378 81.3042C60.4378 81.6909 60.7521 82.0052 61.1388 82.0052C61.5254 82.0052 61.8397 81.6909 61.8397 81.3042C61.8397 80.9175 61.5254 80.6033 61.1388 80.6033Z" fill="#007AC9"/>
<path d="M61.1388 83.408C60.7511 83.408 60.4378 83.7223 60.4378 84.109C60.4378 84.4956 60.7521 84.8099 61.1388 84.8099C61.5254 84.8099 61.8397 84.4956 61.8397 84.109C61.8397 83.7223 61.5254 83.408 61.1388 83.408Z" fill="#007AC9"/>
<path d="M61.1388 86.2128C60.7511 86.2128 60.4378 86.5271 60.4378 86.9137C60.4378 87.3004 60.7521 87.6147 61.1388 87.6147C61.5254 87.6147 61.8397 87.3004 61.8397 86.9137C61.8397 86.5271 61.5254 86.2128 61.1388 86.2128Z" fill="#007AC9"/>
<path d="M61.1388 89.0175C60.7511 89.0175 60.4378 89.3318 60.4378 89.7185C60.4378 90.1052 60.7521 90.4194 61.1388 90.4194C61.5254 90.4194 61.8397 90.1061 61.8397 89.7185C61.8397 89.3309 61.5254 89.0175 61.1388 89.0175Z" fill="#007AC9"/>
<path d="M63.9435 52.5547C63.5559 52.5547 63.2426 52.869 63.2426 53.2556C63.2426 53.6423 63.5568 53.9566 63.9435 53.9566C64.3302 53.9566 64.6445 53.6423 64.6445 53.2556C64.6445 52.869 64.3302 52.5547 63.9435 52.5547Z" fill="#007AC9"/>
<path d="M63.9435 55.3595C63.5559 55.3595 63.2426 55.6737 63.2426 56.0604C63.2426 56.4471 63.5568 56.7614 63.9435 56.7614C64.3302 56.7614 64.6445 56.448 64.6445 56.0604C64.6445 55.6728 64.3302 55.3595 63.9435 55.3595Z" fill="#007AC9"/>
<path d="M63.9435 58.1652C63.5559 58.1652 63.2426 58.4795 63.2426 58.8661C63.2426 59.2528 63.5568 59.5671 63.9435 59.5671C64.3302 59.5671 64.6445 59.2528 64.6445 58.8661C64.6445 58.4795 64.3302 58.1652 63.9435 58.1652Z" fill="#007AC9"/>
<path d="M63.9435 60.9699C63.5559 60.9699 63.2426 61.2842 63.2426 61.6709C63.2426 62.0575 63.5568 62.3718 63.9435 62.3718C64.3302 62.3718 64.6445 62.0585 64.6445 61.6709C64.6445 61.2833 64.3302 60.9699 63.9435 60.9699Z" fill="#007AC9"/>
<path d="M63.9435 63.7747C63.5559 63.7747 63.2426 64.089 63.2426 64.4756C63.2426 64.8623 63.5568 65.1766 63.9435 65.1766C64.3302 65.1766 64.6445 64.8623 64.6445 64.4756C64.6445 64.089 64.3302 63.7747 63.9435 63.7747Z" fill="#007AC9"/>
<path d="M63.9435 66.5794C63.5559 66.5794 63.2426 66.8937 63.2426 67.2804C63.2426 67.6671 63.5568 67.9814 63.9435 67.9814C64.3302 67.9814 64.6445 67.6671 64.6445 67.2804C64.6445 66.8937 64.3302 66.5794 63.9435 66.5794Z" fill="#007AC9"/>
<path d="M63.9435 69.3842C63.5559 69.3842 63.2426 69.6985 63.2426 70.0852C63.2426 70.4718 63.5568 70.7861 63.9435 70.7861C64.3302 70.7861 64.6445 70.4718 64.6445 70.0852C64.6445 69.6985 64.3302 69.3842 63.9435 69.3842Z" fill="#007AC9"/>
<path d="M63.9435 72.189C63.5559 72.189 63.2426 72.5033 63.2426 72.8899C63.2426 73.2766 63.5568 73.5909 63.9435 73.5909C64.3302 73.5909 64.6445 73.2766 64.6445 72.8899C64.6445 72.5033 64.3302 72.189 63.9435 72.189Z" fill="#007AC9"/>
<path d="M63.9435 74.9937C63.5559 74.9937 63.2426 75.3071 63.2426 75.6947C63.2426 76.0823 63.5568 76.3956 63.9435 76.3956C64.3302 76.3956 64.6445 76.0814 64.6445 75.6947C64.6445 75.308 64.3302 74.9937 63.9435 74.9937Z" fill="#007AC9"/>
<path d="M63.9435 77.7985C63.5559 77.7985 63.2426 78.1128 63.2426 78.4994C63.2426 78.8861 63.5568 79.2004 63.9435 79.2004C64.3302 79.2004 64.6445 78.8861 64.6445 78.4994C64.6445 78.1128 64.3302 77.7985 63.9435 77.7985Z" fill="#007AC9"/>
<path d="M63.9435 80.6033C63.5559 80.6033 63.2426 80.9175 63.2426 81.3042C63.2426 81.6909 63.5568 82.0052 63.9435 82.0052C64.3302 82.0052 64.6445 81.6909 64.6445 81.3042C64.6445 80.9175 64.3302 80.6033 63.9435 80.6033Z" fill="#007AC9"/>
<path d="M63.9435 83.408C63.5559 83.408 63.2426 83.7223 63.2426 84.109C63.2426 84.4956 63.5568 84.8099 63.9435 84.8099C64.3302 84.8099 64.6445 84.4956 64.6445 84.109C64.6445 83.7223 64.3302 83.408 63.9435 83.408Z" fill="#007AC9"/>
<path d="M63.9435 86.2128C63.5559 86.2128 63.2426 86.5271 63.2426 86.9137C63.2426 87.3004 63.5568 87.6147 63.9435 87.6147C64.3302 87.6147 64.6445 87.3004 64.6445 86.9137C64.6445 86.5271 64.3302 86.2128 63.9435 86.2128Z" fill="#007AC9"/>
<path d="M63.9435 89.0175C63.5559 89.0175 63.2426 89.3318 63.2426 89.7185C63.2426 90.1052 63.5568 90.4194 63.9435 90.4194C64.3302 90.4194 64.6445 90.1061 64.6445 89.7185C64.6445 89.3309 64.3302 89.0175 63.9435 89.0175Z" fill="#007AC9"/>
<path d="M66.7483 53.9575C67.1354 53.9575 67.4492 53.6437 67.4492 53.2566C67.4492 52.8695 67.1354 52.5556 66.7483 52.5556C66.3611 52.5556 66.0473 52.8695 66.0473 53.2566C66.0473 53.6437 66.3611 53.9575 66.7483 53.9575Z" fill="#007AC9"/>
<path d="M66.7483 56.7623C67.1354 56.7623 67.4492 56.4485 67.4492 56.0614C67.4492 55.6742 67.1354 55.3604 66.7483 55.3604C66.3611 55.3604 66.0473 55.6742 66.0473 56.0614C66.0473 56.4485 66.3611 56.7623 66.7483 56.7623Z" fill="#007AC9"/>
<path d="M66.7483 59.5671C67.1354 59.5671 67.4492 59.2532 67.4492 58.8661C67.4492 58.479 67.1354 58.1652 66.7483 58.1652C66.3611 58.1652 66.0473 58.479 66.0473 58.8661C66.0473 59.2532 66.3611 59.5671 66.7483 59.5671Z" fill="#007AC9"/>
<path d="M66.7483 62.3718C67.1354 62.3718 67.4492 62.058 67.4492 61.6709C67.4492 61.2838 67.1354 60.9699 66.7483 60.9699C66.3611 60.9699 66.0473 61.2838 66.0473 61.6709C66.0473 62.058 66.3611 62.3718 66.7483 62.3718Z" fill="#007AC9"/>
<path d="M66.7483 63.7747C66.3607 63.7747 66.0473 64.089 66.0473 64.4756C66.0473 64.8623 66.3616 65.1766 66.7483 65.1766C67.1349 65.1766 67.4492 64.8623 67.4492 64.4756C67.4492 64.089 67.1349 63.7747 66.7483 63.7747Z" fill="#007AC9"/>
<path d="M66.7483 66.5794C66.3607 66.5794 66.0473 66.8937 66.0473 67.2804C66.0473 67.6671 66.3616 67.9814 66.7483 67.9814C67.1349 67.9814 67.4492 67.6671 67.4492 67.2804C67.4492 66.8937 67.1349 66.5794 66.7483 66.5794Z" fill="#007AC9"/>
<path d="M66.7483 70.7861C67.1354 70.7861 67.4492 70.4723 67.4492 70.0852C67.4492 69.698 67.1354 69.3842 66.7483 69.3842C66.3611 69.3842 66.0473 69.698 66.0473 70.0852C66.0473 70.4723 66.3611 70.7861 66.7483 70.7861Z" fill="#007AC9"/>
<path d="M66.7483 73.5909C67.1354 73.5909 67.4492 73.2771 67.4492 72.8899C67.4492 72.5028 67.1354 72.189 66.7483 72.189C66.3611 72.189 66.0473 72.5028 66.0473 72.8899C66.0473 73.2771 66.3611 73.5909 66.7483 73.5909Z" fill="#007AC9"/>
<path d="M66.7483 76.3956C67.1354 76.3956 67.4492 76.0818 67.4492 75.6947C67.4492 75.3076 67.1354 74.9937 66.7483 74.9937C66.3611 74.9937 66.0473 75.3076 66.0473 75.6947C66.0473 76.0818 66.3611 76.3956 66.7483 76.3956Z" fill="#007AC9"/>
<path d="M66.7483 77.7985C66.3607 77.7985 66.0473 78.1128 66.0473 78.4994C66.0473 78.8861 66.3616 79.2004 66.7483 79.2004C67.1349 79.2004 67.4492 78.8861 67.4492 78.4994C67.4492 78.1128 67.1349 77.7985 66.7483 77.7985Z" fill="#007AC9"/>
<path d="M66.7483 82.0052C67.1354 82.0052 67.4492 81.6913 67.4492 81.3042C67.4492 80.9171 67.1354 80.6033 66.7483 80.6033C66.3611 80.6033 66.0473 80.9171 66.0473 81.3042C66.0473 81.6913 66.3611 82.0052 66.7483 82.0052Z" fill="#007AC9"/>
<path d="M66.7483 84.8109C67.1354 84.8109 67.4492 84.497 67.4492 84.1099C67.4492 83.7228 67.1354 83.409 66.7483 83.409C66.3611 83.409 66.0473 83.7228 66.0473 84.1099C66.0473 84.497 66.3611 84.8109 66.7483 84.8109Z" fill="#007AC9"/>
<path d="M66.7483 86.2128C66.3607 86.2128 66.0473 86.5271 66.0473 86.9137C66.0473 87.3004 66.3616 87.6147 66.7483 87.6147C67.1349 87.6147 67.4492 87.3004 67.4492 86.9137C67.4492 86.5271 67.1349 86.2128 66.7483 86.2128Z" fill="#007AC9"/>
<path d="M66.7483 89.0175C66.3607 89.0175 66.0473 89.3318 66.0473 89.7185C66.0473 90.1052 66.3616 90.4194 66.7483 90.4194C67.1349 90.4194 67.4492 90.1061 67.4492 89.7185C67.4492 89.3309 67.1349 89.0175 66.7483 89.0175Z" fill="#007AC9"/>
<path d="M69.554 55.3595C69.1664 55.3595 68.853 55.6737 68.853 56.0604C68.853 56.4471 69.1673 56.7614 69.554 56.7614C69.9407 56.7614 70.2549 56.448 70.2549 56.0604C70.2549 55.6728 69.9407 55.3595 69.554 55.3595Z" fill="#007AC9"/>
<path d="M69.554 58.1652C69.1664 58.1652 68.853 58.4795 68.853 58.8661C68.853 59.2528 69.1673 59.5671 69.554 59.5671C69.9407 59.5671 70.2549 59.2528 70.2549 58.8661C70.2549 58.4795 69.9407 58.1652 69.554 58.1652Z" fill="#007AC9"/>
<path d="M69.554 60.9699C69.1664 60.9699 68.853 61.2842 68.853 61.6709C68.853 62.0575 69.1673 62.3718 69.554 62.3718C69.9407 62.3718 70.2549 62.0585 70.2549 61.6709C70.2549 61.2833 69.9407 60.9699 69.554 60.9699Z" fill="#007AC9"/>
<path d="M69.554 63.7747C69.1664 63.7747 68.853 64.089 68.853 64.4756C68.853 64.8623 69.1673 65.1766 69.554 65.1766C69.9407 65.1766 70.2549 64.8623 70.2549 64.4756C70.2549 64.089 69.9407 63.7747 69.554 63.7747Z" fill="#007AC9"/>
<path d="M69.554 66.5794C69.1664 66.5794 68.853 66.8937 68.853 67.2804C68.853 67.6671 69.1673 67.9814 69.554 67.9814C69.9407 67.9814 70.2549 67.6671 70.2549 67.2804C70.2549 66.8937 69.9407 66.5794 69.554 66.5794Z" fill="#007AC9"/>
<path d="M69.554 69.3842C69.1664 69.3842 68.853 69.6985 68.853 70.0852C68.853 70.4718 69.1673 70.7861 69.554 70.7861C69.9407 70.7861 70.2549 70.4718 70.2549 70.0852C70.2549 69.6985 69.9407 69.3842 69.554 69.3842Z" fill="#007AC9"/>
<path d="M69.554 72.189C69.1664 72.189 68.853 72.5033 68.853 72.8899C68.853 73.2766 69.1673 73.5909 69.554 73.5909C69.9407 73.5909 70.2549 73.2766 70.2549 72.8899C70.2549 72.5033 69.9407 72.189 69.554 72.189Z" fill="#007AC9"/>
<path d="M69.554 74.9937C69.1664 74.9937 68.853 75.3071 68.853 75.6947C68.853 76.0823 69.1673 76.3956 69.554 76.3956C69.9407 76.3956 70.2549 76.0814 70.2549 75.6947C70.2549 75.308 69.9407 74.9937 69.554 74.9937Z" fill="#007AC9"/>
<path d="M69.554 77.7985C69.1664 77.7985 68.853 78.1128 68.853 78.4994C68.853 78.8861 69.1673 79.2004 69.554 79.2004C69.9407 79.2004 70.2549 78.8861 70.2549 78.4994C70.2549 78.1128 69.9407 77.7985 69.554 77.7985Z" fill="#007AC9"/>
<path d="M69.554 80.6033C69.1664 80.6033 68.853 80.9175 68.853 81.3042C68.853 81.6909 69.1673 82.0052 69.554 82.0052C69.9407 82.0052 70.2549 81.6909 70.2549 81.3042C70.2549 80.9175 69.9407 80.6033 69.554 80.6033Z" fill="#007AC9"/>
<path d="M69.554 83.408C69.1664 83.408 68.853 83.7223 68.853 84.109C68.853 84.4956 69.1673 84.8099 69.554 84.8099C69.9407 84.8099 70.2549 84.4956 70.2549 84.109C70.2549 83.7223 69.9407 83.408 69.554 83.408Z" fill="#007AC9"/>
<path d="M69.554 86.2128C69.1664 86.2128 68.853 86.5271 68.853 86.9137C68.853 87.3004 69.1673 87.6147 69.554 87.6147C69.9407 87.6147 70.2549 87.3004 70.2549 86.9137C70.2549 86.5271 69.9407 86.2128 69.554 86.2128Z" fill="#007AC9"/>
<path d="M69.554 89.0175C69.1664 89.0175 68.853 89.3318 68.853 89.7185C68.853 90.1052 69.1673 90.4194 69.554 90.4194C69.9407 90.4194 70.2549 90.1061 70.2549 89.7185C70.2549 89.3309 69.9407 89.0175 69.554 89.0175Z" fill="#007AC9"/>
<path d="M72.3588 55.3595C71.9711 55.3595 71.6578 55.6737 71.6578 56.0604C71.6578 56.4471 71.9721 56.7614 72.3588 56.7614C72.7454 56.7614 73.0597 56.448 73.0597 56.0604C73.0597 55.6728 72.7454 55.3595 72.3588 55.3595Z" fill="#007AC9"/>
<path d="M72.3588 58.1652C71.9711 58.1652 71.6578 58.4795 71.6578 58.8661C71.6578 59.2528 71.9721 59.5671 72.3588 59.5671C72.7454 59.5671 73.0597 59.2528 73.0597 58.8661C73.0597 58.4795 72.7454 58.1652 72.3588 58.1652Z" fill="#007AC9"/>
<path d="M72.3588 60.9699C71.9711 60.9699 71.6578 61.2842 71.6578 61.6709C71.6578 62.0575 71.9721 62.3718 72.3588 62.3718C72.7454 62.3718 73.0597 62.0585 73.0597 61.6709C73.0597 61.2833 72.7454 60.9699 72.3588 60.9699Z" fill="#007AC9"/>
<path d="M72.3588 63.7747C71.9711 63.7747 71.6578 64.089 71.6578 64.4756C71.6578 64.8623 71.9721 65.1766 72.3588 65.1766C72.7454 65.1766 73.0597 64.8623 73.0597 64.4756C73.0597 64.089 72.7454 63.7747 72.3588 63.7747Z" fill="#007AC9"/>
<path d="M72.3588 66.5794C71.9711 66.5794 71.6578 66.8937 71.6578 67.2804C71.6578 67.6671 71.9721 67.9814 72.3588 67.9814C72.7454 67.9814 73.0597 67.6671 73.0597 67.2804C73.0597 66.8937 72.7454 66.5794 72.3588 66.5794Z" fill="#007AC9"/>
<path d="M72.3588 69.3842C71.9711 69.3842 71.6578 69.6985 71.6578 70.0852C71.6578 70.4718 71.9721 70.7861 72.3588 70.7861C72.7454 70.7861 73.0597 70.4718 73.0597 70.0852C73.0597 69.6985 72.7454 69.3842 72.3588 69.3842Z" fill="#007AC9"/>
<path d="M72.3588 72.189C71.9711 72.189 71.6578 72.5033 71.6578 72.8899C71.6578 73.2766 71.9721 73.5909 72.3588 73.5909C72.7454 73.5909 73.0597 73.2766 73.0597 72.8899C73.0597 72.5033 72.7454 72.189 72.3588 72.189Z" fill="#007AC9"/>
<path d="M72.3588 74.9937C71.9711 74.9937 71.6578 75.3071 71.6578 75.6947C71.6578 76.0823 71.9721 76.3956 72.3588 76.3956C72.7454 76.3956 73.0597 76.0814 73.0597 75.6947C73.0597 75.308 72.7454 74.9937 72.3588 74.9937Z" fill="#007AC9"/>
<path d="M72.3588 77.7985C71.9711 77.7985 71.6578 78.1128 71.6578 78.4994C71.6578 78.8861 71.9721 79.2004 72.3588 79.2004C72.7454 79.2004 73.0597 78.8861 73.0597 78.4994C73.0597 78.1128 72.7454 77.7985 72.3588 77.7985Z" fill="#007AC9"/>
<path d="M72.3588 80.6033C71.9711 80.6033 71.6578 80.9175 71.6578 81.3042C71.6578 81.6909 71.9721 82.0052 72.3588 82.0052C72.7454 82.0052 73.0597 81.6909 73.0597 81.3042C73.0597 80.9175 72.7454 80.6033 72.3588 80.6033Z" fill="#007AC9"/>
<path d="M72.3588 83.408C71.9711 83.408 71.6578 83.7223 71.6578 84.109C71.6578 84.4956 71.9721 84.8099 72.3588 84.8099C72.7454 84.8099 73.0597 84.4956 73.0597 84.109C73.0597 83.7223 72.7454 83.408 72.3588 83.408Z" fill="#007AC9"/>
<path d="M72.3588 86.2128C71.9711 86.2128 71.6578 86.5271 71.6578 86.9137C71.6578 87.3004 71.9721 87.6147 72.3588 87.6147C72.7454 87.6147 73.0597 87.3004 73.0597 86.9137C73.0597 86.5271 72.7454 86.2128 72.3588 86.2128Z" fill="#007AC9"/>
<path d="M75.1635 58.1652C74.7759 58.1652 74.4626 58.4795 74.4626 58.8661C74.4626 59.2528 74.7768 59.5671 75.1635 59.5671C75.5502 59.5671 75.8645 59.2528 75.8645 58.8661C75.8645 58.4795 75.5502 58.1652 75.1635 58.1652Z" fill="#007AC9"/>
<path d="M75.1635 60.9699C74.7759 60.9699 74.4626 61.2842 74.4626 61.6709C74.4626 62.0575 74.7768 62.3718 75.1635 62.3718C75.5502 62.3718 75.8645 62.0585 75.8645 61.6709C75.8645 61.2833 75.5502 60.9699 75.1635 60.9699Z" fill="#007AC9"/>
<path d="M75.1635 63.7747C74.7759 63.7747 74.4626 64.089 74.4626 64.4756C74.4626 64.8623 74.7768 65.1766 75.1635 65.1766C75.5502 65.1766 75.8645 64.8623 75.8645 64.4756C75.8645 64.089 75.5502 63.7747 75.1635 63.7747Z" fill="#007AC9"/>
<path d="M75.1635 66.5794C74.7759 66.5794 74.4626 66.8937 74.4626 67.2804C74.4626 67.6671 74.7768 67.9814 75.1635 67.9814C75.5502 67.9814 75.8645 67.6671 75.8645 67.2804C75.8645 66.8937 75.5502 66.5794 75.1635 66.5794Z" fill="#007AC9"/>
<path d="M75.1635 69.3842C74.7759 69.3842 74.4626 69.6985 74.4626 70.0852C74.4626 70.4718 74.7768 70.7861 75.1635 70.7861C75.5502 70.7861 75.8645 70.4718 75.8645 70.0852C75.8645 69.6985 75.5502 69.3842 75.1635 69.3842Z" fill="#007AC9"/>
<path d="M75.1635 72.189C74.7759 72.189 74.4626 72.5033 74.4626 72.8899C74.4626 73.2766 74.7768 73.5909 75.1635 73.5909C75.5502 73.5909 75.8645 73.2766 75.8645 72.8899C75.8645 72.5033 75.5502 72.189 75.1635 72.189Z" fill="#007AC9"/>
<path d="M75.1635 74.9937C74.7759 74.9937 74.4626 75.3071 74.4626 75.6947C74.4626 76.0823 74.7768 76.3956 75.1635 76.3956C75.5502 76.3956 75.8645 76.0814 75.8645 75.6947C75.8645 75.308 75.5502 74.9937 75.1635 74.9937Z" fill="#007AC9"/>
<path d="M75.1635 77.7985C74.7759 77.7985 74.4626 78.1128 74.4626 78.4994C74.4626 78.8861 74.7768 79.2004 75.1635 79.2004C75.5502 79.2004 75.8645 78.8861 75.8645 78.4994C75.8645 78.1128 75.5502 77.7985 75.1635 77.7985Z" fill="#007AC9"/>
<path d="M75.1635 80.6033C74.7759 80.6033 74.4626 80.9175 74.4626 81.3042C74.4626 81.6909 74.7768 82.0052 75.1635 82.0052C75.5502 82.0052 75.8645 81.6909 75.8645 81.3042C75.8645 80.9175 75.5502 80.6033 75.1635 80.6033Z" fill="#007AC9"/>
<path d="M75.1635 83.408C74.7759 83.408 74.4626 83.7223 74.4626 84.109C74.4626 84.4956 74.7768 84.8099 75.1635 84.8099C75.5502 84.8099 75.8645 84.4956 75.8645 84.109C75.8645 83.7223 75.5502 83.408 75.1635 83.408Z" fill="#007AC9"/>
<path d="M75.1635 86.2128C74.7759 86.2128 74.4626 86.5271 74.4626 86.9137C74.4626 87.3004 74.7768 87.6147 75.1635 87.6147C75.5502 87.6147 75.8645 87.3004 75.8645 86.9137C75.8645 86.5271 75.5502 86.2128 75.1635 86.2128Z" fill="#007AC9"/>
<path d="M77.9683 58.1652C77.5807 58.1652 77.2673 58.4795 77.2673 58.8661C77.2673 59.2528 77.5816 59.5671 77.9683 59.5671C78.3549 59.5671 78.6692 59.2528 78.6692 58.8661C78.6692 58.4795 78.3549 58.1652 77.9683 58.1652Z" fill="#007AC9"/>
<path d="M77.9683 60.9699C77.5807 60.9699 77.2673 61.2842 77.2673 61.6709C77.2673 62.0575 77.5816 62.3718 77.9683 62.3718C78.3549 62.3718 78.6692 62.0585 78.6692 61.6709C78.6692 61.2833 78.3549 60.9699 77.9683 60.9699Z" fill="#007AC9"/>
<path d="M77.9683 63.7747C77.5807 63.7747 77.2673 64.089 77.2673 64.4756C77.2673 64.8623 77.5816 65.1766 77.9683 65.1766C78.3549 65.1766 78.6692 64.8623 78.6692 64.4756C78.6692 64.089 78.3549 63.7747 77.9683 63.7747Z" fill="#007AC9"/>
<path d="M77.9683 66.5794C77.5807 66.5794 77.2673 66.8937 77.2673 67.2804C77.2673 67.6671 77.5816 67.9814 77.9683 67.9814C78.3549 67.9814 78.6692 67.6671 78.6692 67.2804C78.6692 66.8937 78.3549 66.5794 77.9683 66.5794Z" fill="#007AC9"/>
<path d="M77.9683 69.3842C77.5807 69.3842 77.2673 69.6985 77.2673 70.0852C77.2673 70.4718 77.5816 70.7861 77.9683 70.7861C78.3549 70.7861 78.6692 70.4718 78.6692 70.0852C78.6692 69.6985 78.3549 69.3842 77.9683 69.3842Z" fill="#007AC9"/>
<path d="M77.9683 72.189C77.5807 72.189 77.2673 72.5033 77.2673 72.8899C77.2673 73.2766 77.5816 73.5909 77.9683 73.5909C78.3549 73.5909 78.6692 73.2766 78.6692 72.8899C78.6692 72.5033 78.3549 72.189 77.9683 72.189Z" fill="#007AC9"/>
<path d="M77.9683 74.9937C77.5807 74.9937 77.2673 75.3071 77.2673 75.6947C77.2673 76.0823 77.5816 76.3956 77.9683 76.3956C78.3549 76.3956 78.6692 76.0814 78.6692 75.6947C78.6692 75.308 78.3549 74.9937 77.9683 74.9937Z" fill="#007AC9"/>
<path d="M77.9683 77.7985C77.5807 77.7985 77.2673 78.1128 77.2673 78.4994C77.2673 78.8861 77.5816 79.2004 77.9683 79.2004C78.3549 79.2004 78.6692 78.8861 78.6692 78.4994C78.6692 78.1128 78.3549 77.7985 77.9683 77.7985Z" fill="#007AC9"/>
<path d="M77.9683 80.6033C77.5807 80.6033 77.2673 80.9175 77.2673 81.3042C77.2673 81.6909 77.5816 82.0052 77.9683 82.0052C78.3549 82.0052 78.6692 81.6909 78.6692 81.3042C78.6692 80.9175 78.3549 80.6033 77.9683 80.6033Z" fill="#007AC9"/>
<path d="M77.9683 83.408C77.5807 83.408 77.2673 83.7223 77.2673 84.109C77.2673 84.4956 77.5816 84.8099 77.9683 84.8099C78.3549 84.8099 78.6692 84.4956 78.6692 84.109C78.6692 83.7223 78.3549 83.408 77.9683 83.408Z" fill="#007AC9"/>
<path d="M80.773 59.5671C81.1602 59.5671 81.474 59.2532 81.474 58.8661C81.474 58.479 81.1602 58.1652 80.773 58.1652C80.3859 58.1652 80.0721 58.479 80.0721 58.8661C80.0721 59.2532 80.3859 59.5671 80.773 59.5671Z" fill="#007AC9"/>
<path d="M80.773 62.3718C81.1602 62.3718 81.474 62.058 81.474 61.6709C81.474 61.2838 81.1602 60.9699 80.773 60.9699C80.3859 60.9699 80.0721 61.2838 80.0721 61.6709C80.0721 62.058 80.3859 62.3718 80.773 62.3718Z" fill="#007AC9"/>
<path d="M80.773 63.7747C80.3854 63.7747 80.0721 64.089 80.0721 64.4756C80.0721 64.8623 80.3864 65.1766 80.773 65.1766C81.1597 65.1766 81.474 64.8623 81.474 64.4756C81.474 64.089 81.1597 63.7747 80.773 63.7747Z" fill="#007AC9"/>
<path d="M80.773 66.5794C80.3854 66.5794 80.0721 66.8937 80.0721 67.2804C80.0721 67.6671 80.3864 67.9814 80.773 67.9814C81.1597 67.9814 81.474 67.6671 81.474 67.2804C81.474 66.8937 81.1597 66.5794 80.773 66.5794Z" fill="#007AC9"/>
<path d="M80.773 70.7861C81.1602 70.7861 81.474 70.4723 81.474 70.0852C81.474 69.698 81.1602 69.3842 80.773 69.3842C80.3859 69.3842 80.0721 69.698 80.0721 70.0852C80.0721 70.4723 80.3859 70.7861 80.773 70.7861Z" fill="#007AC9"/>
<path d="M80.773 73.5909C81.1602 73.5909 81.474 73.2771 81.474 72.8899C81.474 72.5028 81.1602 72.189 80.773 72.189C80.3859 72.189 80.0721 72.5028 80.0721 72.8899C80.0721 73.2771 80.3859 73.5909 80.773 73.5909Z" fill="#007AC9"/>
<path d="M80.773 76.3956C81.1602 76.3956 81.474 76.0818 81.474 75.6947C81.474 75.3076 81.1602 74.9937 80.773 74.9937C80.3859 74.9937 80.0721 75.3076 80.0721 75.6947C80.0721 76.0818 80.3859 76.3956 80.773 76.3956Z" fill="#007AC9"/>
<path d="M80.773 77.7985C80.3854 77.7985 80.0721 78.1128 80.0721 78.4994C80.0721 78.8861 80.3864 79.2004 80.773 79.2004C81.1597 79.2004 81.474 78.8861 81.474 78.4994C81.474 78.1128 81.1597 77.7985 80.773 77.7985Z" fill="#007AC9"/>
<path d="M80.773 82.0052C81.1602 82.0052 81.474 81.6913 81.474 81.3042C81.474 80.9171 81.1602 80.6033 80.773 80.6033C80.3859 80.6033 80.0721 80.9171 80.0721 81.3042C80.0721 81.6913 80.3859 82.0052 80.773 82.0052Z" fill="#007AC9"/>
<path d="M83.5778 60.9699C83.1902 60.9699 82.8769 61.2842 82.8769 61.6709C82.8769 62.0575 83.1911 62.3718 83.5778 62.3718C83.9645 62.3718 84.2788 62.0585 84.2788 61.6709C84.2788 61.2833 83.9645 60.9699 83.5778 60.9699Z" fill="#007AC9"/>
<path d="M83.5778 63.7747C83.1902 63.7747 82.8769 64.089 82.8769 64.4756C82.8769 64.8623 83.1911 65.1766 83.5778 65.1766C83.9645 65.1766 84.2788 64.8623 84.2788 64.4756C84.2788 64.089 83.9645 63.7747 83.5778 63.7747Z" fill="#007AC9"/>
<path d="M83.5778 66.5794C83.1902 66.5794 82.8769 66.8937 82.8769 67.2804C82.8769 67.6671 83.1911 67.9814 83.5778 67.9814C83.9645 67.9814 84.2788 67.6671 84.2788 67.2804C84.2788 66.8937 83.9645 66.5794 83.5778 66.5794Z" fill="#007AC9"/>
<path d="M83.5778 69.3842C83.1902 69.3842 82.8769 69.6985 82.8769 70.0852C82.8769 70.4718 83.1911 70.7861 83.5778 70.7861C83.9645 70.7861 84.2788 70.4718 84.2788 70.0852C84.2788 69.6985 83.9645 69.3842 83.5778 69.3842Z" fill="#007AC9"/>
<path d="M83.5778 72.189C83.1902 72.189 82.8769 72.5033 82.8769 72.8899C82.8769 73.2766 83.1911 73.5909 83.5778 73.5909C83.9645 73.5909 84.2788 73.2766 84.2788 72.8899C84.2788 72.5033 83.9645 72.189 83.5778 72.189Z" fill="#007AC9"/>
<path d="M83.5778 74.9937C83.1902 74.9937 82.8769 75.3071 82.8769 75.6947C82.8769 76.0823 83.1911 76.3956 83.5778 76.3956C83.9645 76.3956 84.2788 76.0814 84.2788 75.6947C84.2788 75.308 83.9645 74.9937 83.5778 74.9937Z" fill="#007AC9"/>
<path d="M83.5778 77.7985C83.1902 77.7985 82.8769 78.1128 82.8769 78.4994C82.8769 78.8861 83.1911 79.2004 83.5778 79.2004C83.9645 79.2004 84.2788 78.8861 84.2788 78.4994C84.2788 78.1128 83.9645 77.7985 83.5778 77.7985Z" fill="#007AC9"/>
<path d="M86.3826 60.9699C85.9959 60.9699 85.6816 61.2842 85.6816 61.6709C85.6816 62.0575 85.9959 62.3718 86.3826 62.3718C86.7692 62.3718 87.0845 62.0585 87.0845 61.6709C87.0845 61.2833 86.7702 60.9699 86.3826 60.9699Z" fill="#007AC9"/>
<path d="M86.3826 63.7747C85.9959 63.7747 85.6816 64.089 85.6816 64.4756C85.6816 64.8623 85.9959 65.1766 86.3826 65.1766C86.7692 65.1766 87.0845 64.8623 87.0845 64.4756C87.0845 64.089 86.7702 63.7747 86.3826 63.7747Z" fill="#007AC9"/>
<path d="M86.3826 66.5794C85.9959 66.5794 85.6816 66.8937 85.6816 67.2804C85.6816 67.6671 85.9959 67.9814 86.3826 67.9814C86.7692 67.9814 87.0845 67.6671 87.0845 67.2804C87.0845 66.8937 86.7702 66.5794 86.3826 66.5794Z" fill="#007AC9"/>
<path d="M86.3826 69.3842C85.9959 69.3842 85.6816 69.6985 85.6816 70.0852C85.6816 70.4718 85.9959 70.7861 86.3826 70.7861C86.7692 70.7861 87.0845 70.4718 87.0845 70.0852C87.0845 69.6985 86.7702 69.3842 86.3826 69.3842Z" fill="#007AC9"/>
<path d="M86.3826 72.189C85.9959 72.189 85.6816 72.5033 85.6816 72.8899C85.6816 73.2766 85.9959 73.5909 86.3826 73.5909C86.7692 73.5909 87.0845 73.2766 87.0845 72.8899C87.0845 72.5033 86.7702 72.189 86.3826 72.189Z" fill="#007AC9"/>
<path d="M86.3826 74.9937C85.9959 74.9937 85.6816 75.3071 85.6816 75.6947C85.6816 76.0823 85.9959 76.3956 86.3826 76.3956C86.7692 76.3956 87.0845 76.0814 87.0845 75.6947C87.0845 75.308 86.7702 74.9937 86.3826 74.9937Z" fill="#007AC9"/>
<path d="M89.1873 65.1766C89.5749 65.1766 89.8883 64.8623 89.8883 64.4756C89.8883 64.089 89.574 63.7747 89.1873 63.7747C88.8007 63.7747 88.4864 64.089 88.4864 64.4756C88.4864 64.8623 88.8007 65.1766 89.1873 65.1766Z" fill="#007AC9"/>
<path d="M89.1873 66.5794C88.7997 66.5794 88.4864 66.8937 88.4864 67.2804C88.4864 67.6671 88.8007 67.9814 89.1873 67.9814C89.574 67.9814 89.8883 67.6671 89.8883 67.2804C89.8883 66.8937 89.574 66.5794 89.1873 66.5794Z" fill="#007AC9"/>
<path d="M89.1873 69.3842C88.7997 69.3842 88.4864 69.6985 88.4864 70.0852C88.4864 70.4718 88.8007 70.7861 89.1873 70.7861C89.574 70.7861 89.8883 70.4718 89.8883 70.0852C89.8883 69.6985 89.574 69.3842 89.1873 69.3842Z" fill="#007AC9"/>
</g>
<path d="M45.9707 31.6345C45.8936 31.6345 45.8155 31.6231 45.7383 31.5983C45.3355 31.4697 45.1126 31.0392 45.2412 30.6373C45.9031 28.5592 46.9707 26.8821 48.4164 25.6535C48.7383 25.3802 49.2212 25.4192 49.4955 25.7411C49.7688 26.0631 49.7298 26.5459 49.4079 26.8202C48.1669 27.8745 47.2812 29.2754 46.7002 31.1021C46.5964 31.4278 46.2955 31.6354 45.9707 31.6354V31.6345ZM44.4755 27.7402C44.326 27.7402 44.1755 27.6964 44.0431 27.6059C43.6945 27.3669 43.606 26.8897 43.846 26.5421C44.5879 25.4621 45.4193 24.6154 46.3898 23.9535C46.7383 23.7154 47.2155 23.805 47.4536 24.1545C47.6917 24.504 47.6022 24.9802 47.2526 25.2183C46.4412 25.7716 45.7393 26.4888 45.1069 27.4097C44.9583 27.6259 44.7193 27.7421 44.4755 27.7421V27.7402Z" fill="#00B9E4"/>
</g>
</svg>
