<svg width="65" height="64" viewBox="0 0 65 64" fill="none" xmlns="http://www.w3.org/2000/svg">
    <path
        d="M5.5625 32.0469C5.5625 47.1192 17.8944 59.4517 32.9673 59.4517C48.0396 59.4517 60.3721 47.1198 60.3721 32.0469C60.3721 16.974 48.0402 4.64209 32.9679 4.64209C17.8956 4.64209 5.56311 16.974 5.56311 32.0469"
        fill="#BEE4F8" />
    <mask id="mask0_3930_21084" style="mask-type:luminance" maskUnits="userSpaceOnUse" x="5" y="0" width="56"
        height="60">
        <path
            d="M5.62109 32.0469C5.62109 47.1193 17.953 59.4517 33.0259 59.4517C48.0982 59.4517 60.4307 47.1199 60.4307 32.0469V0.192017L5.62109 0.295636V32.0469Z"
            fill="white" />
    </mask>
    <g mask="url(#mask0_3930_21084)">
        <path
            d="M18.5597 42.9647C18.0672 41.764 16.9799 40.9917 15.7815 40.8424C15.5024 40.8076 15.261 40.6327 15.1513 40.3737L15.1495 40.3694C14.006 37.6747 10.895 36.4166 8.20027 37.5601C6.69109 38.2001 5.63295 39.4575 5.19471 40.9131C5.04964 41.394 4.49558 41.6098 4.06953 41.3434C3.14427 40.7656 1.96179 40.6333 0.881106 41.0911C-0.294665 41.5897 -1.05169 42.6624 -1.20164 43.8443C-1.23821 44.1295 -1.43143 44.3709 -1.70449 44.4593C-1.8008 44.4904 -1.89649 44.5312 -1.98914 44.5818C-2.69131 44.9615 -3.03265 45.8069 -2.78884 46.567C-2.55783 47.2887 -1.90198 47.7312 -1.2059 47.7404C-1.2059 47.7404 9.38518 47.7562 10.3604 47.7404C11.023 47.7294 11.6941 47.5935 12.3414 47.3186C12.4383 47.2777 12.5334 47.2338 12.626 47.1881C12.9235 47.0406 13.2746 47.0632 13.558 47.2351C14.4741 47.7916 15.634 47.9165 16.697 47.4703C18.4653 46.7285 19.2887 44.7378 18.561 42.9641"
            fill="white" />
        <path
            d="M62.3866 47.4807C62.2117 47.4478 62.0368 47.4283 61.8637 47.421C61.4809 47.4045 61.1603 47.1321 61.0847 46.7566C60.6257 44.4648 58.8209 42.5698 56.3828 42.1132C54.3891 41.7396 52.4422 42.4162 51.111 43.7523C50.7935 44.071 50.279 44.0863 49.9572 43.7718C49.519 43.3439 48.9539 43.0361 48.3066 42.9148C47.0547 42.6801 45.8374 43.2061 45.1286 44.1661C44.8555 44.5361 44.3362 44.6092 43.9686 44.3337L43.9607 44.3276C40.9436 42.0718 36.669 42.6892 34.4131 45.7064C32.1573 48.7235 32.7747 52.9981 35.7919 55.2534C38.6554 57.394 42.6515 56.9466 44.9792 54.3165C45.2547 54.7194 45.5997 55.0845 46.0124 55.3929C48.025 56.8979 50.8764 56.4858 52.3813 54.4732C52.6446 54.1215 52.8488 53.7436 52.9963 53.3523C53.3785 53.5138 53.7838 53.6375 54.2086 53.7167C55.7587 54.0069 57.2806 53.6631 58.507 52.8677C59.019 53.7868 59.9205 54.4799 61.0353 54.6883C63.0254 55.0614 64.9411 53.7503 65.3142 51.7602C65.6872 49.7701 64.3761 47.8544 62.386 47.4813"
            fill="white" />
        <path
            d="M13.9557 20.374C13.9947 20.374 14.0331 20.3752 14.0715 20.3776C14.2281 20.388 14.3695 20.2844 14.4122 20.1332C14.578 19.5407 15.1217 19.1062 15.7672 19.1062C15.9574 19.1062 16.1384 19.1439 16.3042 19.2122C16.4675 19.2799 16.6565 19.2043 16.7314 19.0446C17.1484 18.1559 18.0511 17.5403 19.0976 17.5403C20.4026 17.5403 21.4839 18.4972 21.6783 19.748C21.7039 19.9132 21.849 20.0302 22.016 20.0296H22.0191C23.1211 20.0296 24.0128 20.9305 23.9988 22.0355C23.9848 23.1235 23.0778 23.989 21.9898 23.989H13.9996V23.9878L13.9563 23.989C12.9579 23.989 12.1484 23.1796 12.1484 22.1812C12.1484 21.1828 12.9579 20.3734 13.9563 20.3734"
            fill="white" />
        <path
            d="M62.1434 32.1651V32.1627C62.3738 32.1755 62.6109 32.1371 62.8383 32.0408C63.6319 31.7043 64.0018 30.7882 63.6654 29.9946C63.4112 29.3961 62.8273 29.0383 62.2153 29.0438C62.0252 29.0456 61.8539 28.9346 61.7807 28.7597L61.7765 28.75C61.2468 27.5017 59.8053 26.9183 58.5564 27.448C58.4735 27.4834 58.3936 27.5224 58.3168 27.565C58.0633 27.7065 57.7457 27.5827 57.6585 27.3054C57.622 27.1896 57.5799 27.0744 57.5311 26.9598C56.7241 25.0569 54.5268 24.1688 52.6239 24.9758C51.1445 25.603 50.279 27.0707 50.3455 28.5866C50.3558 28.8207 50.1906 29.0255 49.959 29.0584C49.8115 29.0797 49.664 29.1224 49.5214 29.1894C48.793 29.5289 48.4389 30.381 48.7144 31.1362C48.9423 31.761 49.5202 32.145 50.1364 32.1633V32.1645H62.1434V32.1651Z"
            fill="white" />
        <path
            d="M35.6989 2.34601C34.3976 1.58349 32.8274 1.42807 31.4023 1.92239L23.0452 4.81763C22.1321 5.13397 21.5195 5.99401 21.5195 6.96071V52.2965C21.5195 53.1132 22.0602 53.8307 22.8452 54.0562L32.3739 56.7929C32.9176 56.949 33.4936 56.9575 34.0416 56.8167L43.6745 54.3439C44.4632 54.1415 45.0148 53.4302 45.0148 52.6159V8.83439C45.0148 7.84208 44.4638 6.93146 43.5843 6.47127L35.6989 2.3454V2.34601Z"
            fill="#E5F2FA" />
        <path
            d="M33.2514 57.4348C32.9077 57.4348 32.5639 57.3867 32.2305 57.291L22.7018 54.5542C21.6997 54.2665 21 53.3376 21 52.2953V6.95954C21 5.7728 21.7534 4.71466 22.8749 4.32579L31.2321 1.43055C32.7992 0.888071 34.518 1.05569 35.9504 1.89074L43.8248 6.01051C44.8793 6.56213 45.5339 7.64342 45.5339 8.83321V52.6141C45.5339 53.6661 44.822 54.5835 43.8035 54.845L34.1706 57.3178C33.8689 57.3952 33.5598 57.4336 33.2514 57.4336V57.4348ZM33.0917 2.15649C32.5803 2.15649 32.0671 2.24121 31.5722 2.41249L23.215 5.30773C22.5116 5.55154 22.0386 6.21531 22.0386 6.95954V52.2953C22.0386 52.8768 22.4293 53.3955 22.9883 53.5558L32.517 56.2926C32.9717 56.423 33.4538 56.4303 33.9122 56.3127L43.5451 53.8398C44.1046 53.696 44.4953 53.1925 44.4953 52.6153V8.83443C44.4953 8.0323 44.054 7.30331 43.3433 6.93211L35.4579 2.80624C35.4506 2.80259 35.4433 2.79832 35.436 2.79405C34.7161 2.37226 33.9061 2.15649 33.0911 2.15649H33.0917Z"
            fill="#007AC9" />
        <path
            d="M21.5195 52.2953C21.5195 53.1121 22.0602 53.8295 22.8452 54.055L32.3739 56.7918C32.9176 56.9478 33.4936 56.9564 34.0416 56.8156L43.6745 54.3427C43.986 54.2629 44.2596 54.1026 44.4779 53.8886C44.4779 53.8886 45.0148 53.1663 45.0148 52.5495V8.88138C45.0148 8.1335 44.6144 7.44291 43.9652 7.07171L35.2228 2.06691C34.5231 1.6567 33.6411 2.15772 33.6356 2.969L33.2516 47.9677C33.2462 48.615 32.8122 49.18 32.188 49.3519L21.5195 52.2953Z"
            fill="#007AC9" />
        <path
            d="M33.2514 57.4348C32.9077 57.4348 32.5639 57.3866 32.2305 57.2909L22.7018 54.5542C21.6997 54.2665 21 53.3376 21 52.2953C21 52.0618 21.156 51.857 21.381 51.7949L32.0494 48.8515C32.4475 48.7418 32.7285 48.3767 32.7321 47.9634L33.1161 2.96469C33.1204 2.39661 33.4178 1.88949 33.9122 1.6085C34.4065 1.32751 34.9947 1.33117 35.4853 1.61886L44.2229 6.62061C45.0317 7.08324 45.5339 7.94999 45.5339 8.88134V52.5501C45.5339 53.3168 44.9598 54.1111 44.8946 54.1988C44.8781 54.2208 44.8604 54.2409 44.8409 54.2598C44.5514 54.5432 44.1924 54.7456 43.8029 54.8455L34.17 57.3184C33.8689 57.3958 33.5592 57.4342 33.2508 57.4342L33.2514 57.4348ZM22.0959 52.675C22.2233 53.0919 22.5555 53.4314 22.9889 53.5558L32.5176 56.2925C32.9723 56.423 33.4544 56.4303 33.9128 56.3127L43.5457 53.8398C43.7462 53.7886 43.9315 53.6874 44.0857 53.546C44.2533 53.3077 44.4959 52.8554 44.4959 52.5501V8.88134C44.4959 8.32119 44.1936 7.80065 43.7078 7.5221L34.9654 2.5173C34.7204 2.37406 34.507 2.46549 34.426 2.5112C34.3455 2.55692 34.1572 2.69406 34.1554 2.97261L33.7714 47.9725C33.764 48.8472 33.1698 49.6207 32.3262 49.8529L22.0959 52.675Z"
            fill="#007AC9" />
        <path
            d="M32.6112 71.688C30.757 71.688 29.2539 70.4988 29.2539 69.0323V54.7524C29.2539 53.2858 30.757 52.2649 32.6112 52.2649C34.4653 52.2649 35.9684 53.2858 35.9684 54.7524V69.0323C35.9684 70.4988 34.4653 71.688 32.6112 71.688Z"
            fill="#E5F2FA" />
        <path
            d="M32.6109 72.2072C30.4733 72.2072 28.7344 70.7827 28.7344 69.0322V54.7517C28.7344 53.0377 30.4008 51.7449 32.6109 51.7449C34.8211 51.7449 36.4875 53.0377 36.4875 54.7517V69.0322C36.4875 70.7827 34.7485 72.2072 32.6109 72.2072ZM32.6109 52.7841C30.9933 52.7841 29.773 53.6301 29.773 54.7523V69.0328C29.773 70.211 31.0463 71.1692 32.6109 71.1692C34.1756 71.1692 35.4489 70.211 35.4489 69.0328V54.7523C35.4489 53.6301 34.2286 52.7841 32.6109 52.7841Z"
            fill="#007AC9" />
        <path
            d="M18.9045 34.4229C17.5611 34.1644 17.2314 39.6062 21.186 40.3663L25.4697 41.1898L26.4077 35.1994L18.9045 34.4229Z"
            fill="#007AC9" />
        <path
            d="M25.4707 41.709C25.4378 41.709 25.4055 41.706 25.3725 41.6999L21.0888 40.8764C18.0607 40.2943 17.1842 37.2455 17.545 35.3688C17.6261 34.9464 17.7724 34.591 17.9681 34.3417C18.2332 34.0028 18.5995 33.8462 18.978 33.909L26.463 34.6837C26.6044 34.6983 26.7342 34.7708 26.8208 34.8836C26.9073 34.9964 26.9445 35.1402 26.9226 35.281L25.9845 41.2714C25.9626 41.4104 25.8852 41.5347 25.77 41.6158C25.6816 41.678 25.5773 41.7103 25.4713 41.7103L25.4707 41.709ZM18.8263 34.9366C18.6788 35.0421 18.3966 35.7247 18.5532 36.8103C18.666 37.5899 19.1578 39.4477 21.2851 39.8567L25.041 40.5784L25.8114 35.6601L18.8525 34.9403C18.8439 34.9397 18.8354 34.9385 18.8269 34.9372L18.8263 34.9366Z"
            fill="#007AC9" />
        <path
            d="M31.635 41.4014C31.635 38.0697 29.6267 35.3689 27.1495 35.3689C24.6724 35.3689 22.6641 38.0697 22.6641 41.4014C22.6641 44.733 24.6724 47.4338 27.1495 47.4338C29.6267 47.4338 31.635 44.733 31.635 41.4014Z"
            fill="#007AC9" />
        <path
            d="M22.3271 41.9377C22.1552 41.9377 22.0156 41.7981 22.0156 41.6262C22.0156 40.1902 22.3679 38.8364 23.0341 37.7118C23.1219 37.5637 23.3133 37.515 23.4608 37.6027C23.6089 37.6905 23.6577 37.8819 23.5699 38.0294C22.9689 39.0436 22.6379 40.3212 22.6379 41.6262C22.6379 41.7981 22.4984 41.9377 22.3265 41.9377H22.3271Z"
            fill="#E5F2FA" />
        <path
            d="M31.6255 41.0752C24.101 40.2968 24.6483 35.0177 18.9023 34.4229L26.4056 35.1994C30.0658 35.1994 31.6255 38.2196 31.6255 41.0752Z"
            fill="#E5F2FA" />
        <path
            d="M31.2152 39.6257C31.0896 39.6257 30.9713 39.5495 30.9238 39.4252C30.5179 38.3622 29.542 36.4733 27.5665 35.7686C27.4044 35.7107 27.3197 35.5328 27.3776 35.3706C27.4355 35.2085 27.6135 35.1244 27.7756 35.1817C29.9857 35.9704 31.0609 38.0391 31.5053 39.2027C31.5669 39.3636 31.4864 39.5434 31.3255 39.605C31.2889 39.619 31.2511 39.6257 31.2145 39.6257H31.2152Z"
            fill="#007AC9" />
        <path
            d="M18.9045 20.4209C17.5611 20.1625 17.2314 25.6043 21.186 26.3644L25.4697 27.1878L26.4077 21.1974L18.9045 20.4209Z"
            fill="#007AC9" />
        <path
            d="M25.4707 27.7071C25.4378 27.7071 25.4055 27.704 25.3725 27.698L21.0888 26.8745C18.0607 26.2924 17.1842 23.2435 17.545 21.3668C17.6261 20.9444 17.7724 20.5891 17.9681 20.3398C18.2332 20.0009 18.6001 19.8442 18.978 19.907L26.463 20.6817C26.6044 20.6963 26.7342 20.7689 26.8208 20.8816C26.9073 20.9944 26.9445 21.1383 26.9226 21.2791L25.9845 27.2695C25.9626 27.4084 25.8852 27.5328 25.77 27.6138C25.6816 27.676 25.5773 27.7083 25.4713 27.7083L25.4707 27.7071ZM18.8263 20.9341C18.6788 21.0395 18.3966 21.7222 18.5532 22.8077C18.666 23.5873 19.1578 25.4451 21.2851 25.8541L25.041 26.5758L25.8114 21.6576L18.8525 20.9377C18.8439 20.9371 18.8354 20.9359 18.8269 20.9347L18.8263 20.9341Z"
            fill="#007AC9" />
        <path
            d="M31.635 27.3993C31.635 24.0676 29.6267 21.3668 27.1495 21.3668C24.6724 21.3668 22.6641 24.0676 22.6641 27.3993C22.6641 30.7309 24.6724 33.4317 27.1495 33.4317C29.6267 33.4317 31.635 30.7309 31.635 27.3993Z"
            fill="#FED100" />
        <path
            d="M22.3271 27.9357C22.1552 27.9357 22.0156 27.7961 22.0156 27.6242C22.0156 26.1882 22.3679 24.8351 23.0341 23.7099C23.1219 23.5618 23.3133 23.513 23.4608 23.6008C23.6089 23.6885 23.6577 23.8799 23.5699 24.0274C22.9689 25.0417 22.6379 26.3192 22.6379 27.6242C22.6379 27.7961 22.4984 27.9357 22.3265 27.9357H22.3271Z"
            fill="#E5F2FA" />
        <path
            d="M31.6255 27.0732C24.101 26.2943 24.6483 21.0158 18.9023 20.4209L26.4056 21.1974C30.0658 21.1974 31.6255 24.2176 31.6255 27.0732Z"
            fill="#E5F2FA" />
        <path
            d="M31.2152 25.6238C31.0896 25.6238 30.9713 25.5476 30.9238 25.4232C30.5179 24.3602 29.542 22.4713 27.5665 21.7667C27.4044 21.7088 27.3197 21.5308 27.3776 21.3687C27.4355 21.2065 27.6135 21.1224 27.7756 21.1797C29.9857 21.9684 31.0609 24.0372 31.5053 25.2007C31.5669 25.3617 31.4864 25.5415 31.3255 25.603C31.2889 25.6171 31.2511 25.6238 31.2145 25.6238H31.2152Z"
            fill="#007AC9" />
        <path
            d="M18.9045 6.41895C17.5611 6.16051 17.2314 11.6023 21.186 12.3624L25.4697 13.1859L26.4077 7.19548L18.9045 6.41895Z"
            fill="#007AC9" />
        <path
            d="M25.4707 13.7051C25.4378 13.7051 25.4055 13.7021 25.3725 13.696L21.0888 12.8725C18.0607 12.2904 17.1842 9.2416 17.545 7.36487C17.6261 6.94247 17.7724 6.58712 17.9681 6.33782C18.2332 5.99893 18.6001 5.84228 18.978 5.90506L26.463 6.67977C26.6044 6.6944 26.7342 6.76693 26.8208 6.87969C26.9073 6.99245 26.9445 7.1363 26.9226 7.2771L25.9845 13.2675C25.9626 13.4065 25.8852 13.5308 25.77 13.6119C25.6816 13.6741 25.5773 13.7064 25.4713 13.7064L25.4707 13.7051ZM18.8263 6.93211C18.6788 7.03756 18.3966 7.72022 18.5532 8.80579C18.666 9.58537 19.1578 11.4432 21.2851 11.8522L25.041 12.5739L25.8114 7.65561L18.8525 6.93577C18.8439 6.93516 18.8354 6.93394 18.8269 6.93272L18.8263 6.93211Z"
            fill="#007AC9" />
        <path
            d="M31.635 13.3973C31.635 10.0657 29.6267 7.36487 27.1495 7.36487C24.6724 7.36487 22.6641 10.0657 22.6641 13.3973C22.6641 16.729 24.6724 19.4298 27.1495 19.4298C29.6267 19.4298 31.635 16.729 31.635 13.3973Z"
            fill="#007AC9" />
        <path
            d="M22.3271 13.9331C22.1552 13.9331 22.0156 13.7936 22.0156 13.6217C22.0156 12.1856 22.3679 10.8325 23.0341 9.70731C23.1219 9.5592 23.3133 9.51044 23.4608 9.59821C23.6089 9.68598 23.6577 9.87737 23.5699 10.0249C22.9689 11.0391 22.6379 12.3167 22.6379 13.6217C22.6379 13.7936 22.4984 13.9331 22.3265 13.9331H22.3271Z"
            fill="#E5F2FA" />
        <path
            d="M31.6255 13.0713C24.101 12.2923 24.6483 7.01384 18.9023 6.41895L26.4056 7.19548C30.0658 7.19548 31.6255 10.2157 31.6255 13.0713Z"
            fill="#E5F2FA" />
        <path
            d="M31.2152 11.6218C31.0896 11.6218 30.9713 11.5456 30.9238 11.4213C30.5179 10.3583 29.542 8.46935 27.5665 7.76474C27.4044 7.70683 27.3197 7.52885 27.3776 7.36672C27.4355 7.20459 27.6135 7.12047 27.7756 7.17777C29.9857 7.96649 31.0609 10.0352 31.5053 11.1988C31.5669 11.3597 31.4864 11.5395 31.3255 11.6011C31.2889 11.6151 31.2511 11.6218 31.2145 11.6218H31.2152Z"
            fill="#007AC9" />
    </g>
</svg>