<svg width="320" height="246" viewBox="0 0 320 246" fill="none" xmlns="http://www.w3.org/2000/svg">
<path d="M21.0283 160.195C21.0283 222.822 72.2688 274.065 134.899 274.065C197.526 274.065 248.769 222.824 248.769 160.195C248.769 97.5647 197.529 46.3242 134.901 46.3242C72.2739 46.3242 21.0309 97.5647 21.0309 160.195" fill="#BEE4F8"/>
<mask id="mask0_2536_35829" style="mask-type:luminance" maskUnits="userSpaceOnUse" x="21" y="27" width="229" height="248">
<path d="M21.2822 160.193C21.2822 222.821 72.5228 274.064 135.153 274.064C197.78 274.064 249.023 222.823 249.023 160.193V27.832L21.2822 28.2626V160.193Z" fill="white"/>
</mask>
<g mask="url(#mask0_2536_35829)">
<path d="M75.0501 205.556C73.0037 200.567 68.4855 197.358 63.5063 196.737C62.3463 196.593 61.3434 195.866 60.8875 194.79L60.8799 194.772C56.1287 183.575 43.202 178.348 32.0052 183.099C25.7344 185.758 21.3377 190.983 19.5167 197.031C18.914 199.029 16.6118 199.926 14.8415 198.819C10.9969 196.418 6.08356 195.868 1.59318 197.77C-3.2923 199.842 -6.43784 204.3 -7.06087 209.21C-7.21283 210.396 -8.01568 211.399 -9.15031 211.766C-9.55047 211.895 -9.94809 212.065 -10.3331 212.275C-13.2507 213.853 -14.6689 217.366 -13.6559 220.524C-12.696 223.522 -9.97089 225.361 -7.0786 225.399C-7.0786 225.399 36.9287 225.465 40.9809 225.399C43.7339 225.354 46.5223 224.789 49.212 223.647C49.6147 223.477 50.0098 223.295 50.3948 223.105C51.6307 222.492 53.0895 222.585 54.2672 223.3C58.0737 225.612 62.8934 226.131 67.3103 224.277C74.6575 221.195 78.0791 212.923 75.0552 205.553" fill="white"/>
<path d="M257.155 224.32C256.428 224.183 255.701 224.102 254.982 224.072C253.392 224.004 252.06 222.871 251.745 221.311C249.838 211.789 242.339 203.915 232.209 202.018C223.924 200.465 215.835 203.276 210.304 208.828C208.984 210.152 206.847 210.216 205.509 208.909C203.688 207.131 201.341 205.852 198.651 205.348C193.449 204.373 188.391 206.559 185.446 210.548C184.311 212.085 182.153 212.389 180.626 211.244L180.593 211.219C168.057 201.845 150.295 204.411 140.922 216.948C131.549 229.484 134.114 247.246 146.651 256.616C158.549 265.511 175.153 263.652 184.825 252.724C185.97 254.398 187.404 255.915 189.118 257.196C197.481 263.45 209.329 261.737 215.582 253.375C216.676 251.913 217.524 250.343 218.137 248.717C219.725 249.388 221.409 249.902 223.175 250.232C229.615 251.437 235.939 250.009 241.035 246.704C243.162 250.523 246.908 253.403 251.54 254.269C259.809 255.819 267.77 250.371 269.32 242.102C270.869 233.833 265.422 225.873 257.153 224.323" fill="white"/>
<path d="M55.9214 111.688C56.0835 111.688 56.2431 111.693 56.4026 111.704C57.0535 111.747 57.6411 111.316 57.8184 110.688C58.5072 108.226 60.7664 106.42 63.4484 106.42C64.2386 106.42 64.9908 106.577 65.6797 106.861C66.3584 107.142 67.1436 106.828 67.4551 106.165C69.1874 102.472 72.9383 99.9141 77.2868 99.9141C82.7092 99.9141 87.2021 103.89 88.0101 109.087C88.1164 109.774 88.7192 110.26 89.4131 110.257H89.4258C94.0048 110.257 97.7101 114.001 97.6518 118.592C97.5936 123.113 93.825 126.709 89.3042 126.709H56.1038V126.704L55.9239 126.709C51.7755 126.709 48.4121 123.346 48.4121 119.198C48.4121 115.049 51.7755 111.686 55.9239 111.686" fill="white"/>
<path d="M256.147 160.685V160.675C257.104 160.728 258.089 160.569 259.034 160.169C262.332 158.771 263.869 154.964 262.471 151.667C261.415 149.179 258.988 147.693 256.446 147.716C255.656 147.723 254.944 147.262 254.64 146.535L254.622 146.495C252.421 141.308 246.432 138.884 241.242 141.085C240.898 141.232 240.566 141.394 240.247 141.571C239.193 142.159 237.874 141.645 237.512 140.492C237.36 140.011 237.185 139.533 236.982 139.056C233.629 131.15 224.499 127.459 216.592 130.813C210.445 133.419 206.849 139.517 207.125 145.816C207.168 146.789 206.482 147.64 205.519 147.776C204.906 147.865 204.293 148.042 203.701 148.321C200.674 149.732 199.203 153.272 200.348 156.41C201.295 159.006 203.696 160.602 206.256 160.678V160.683H256.147V160.685Z" fill="white"/>
<path d="M146.266 36.782C140.858 33.6136 134.334 32.9678 128.413 35.0218L93.6878 47.0518C89.8939 48.3663 87.3486 51.9399 87.3486 55.9566V244.332C87.3486 247.726 89.5951 250.707 92.8571 251.644L132.45 263.016C134.709 263.664 137.102 263.7 139.379 263.115L179.405 252.84C182.683 251.999 184.975 249.043 184.975 245.66V63.742C184.975 59.6188 182.685 55.8351 179.03 53.9229L146.266 36.7794V36.782Z" fill="#E5F2FA"/>
<path d="M136.095 265.682C134.666 265.682 133.238 265.482 131.853 265.084L92.2596 253.713C88.096 252.517 85.1885 248.658 85.1885 244.327V55.951C85.1885 51.0199 88.3188 46.6232 92.9789 45.0074L127.704 32.9773C134.215 30.7233 141.358 31.4197 147.309 34.8895L180.029 52.0076C184.41 54.2997 187.13 58.7926 187.13 63.7363V245.651C187.13 250.023 184.172 253.834 179.94 254.921L139.914 265.196C138.66 265.517 137.376 265.677 136.095 265.677V265.682ZM135.431 35.9937C133.306 35.9937 131.174 36.3457 129.117 37.0574L94.3921 49.0875C91.4694 50.1006 89.5041 52.8586 89.5041 55.951V244.327C89.5041 246.743 91.1275 248.898 93.45 249.564L133.043 260.936C134.932 261.478 136.936 261.508 138.84 261.019L178.866 250.744C181.191 250.147 182.814 248.055 182.814 245.656V63.7414C182.814 60.4084 180.981 57.3794 178.028 55.837L145.263 38.6935C145.232 38.6783 145.202 38.6606 145.172 38.6429C142.181 36.8903 138.815 35.9937 135.429 35.9937H135.431Z" fill="#007AC9"/>
<path d="M87.3486 244.329C87.3486 247.722 89.5951 250.703 92.8571 251.64L132.45 263.012C134.709 263.66 137.102 263.696 139.379 263.111L179.405 252.836C180.699 252.504 181.837 251.838 182.743 250.949C182.743 250.949 184.975 247.948 184.975 245.385V63.9383C184.975 60.8308 183.311 57.9613 180.613 56.4189L144.288 35.6233C141.38 33.9188 137.715 36.0007 137.693 39.3716L136.097 226.347C136.074 229.037 134.271 231.384 131.678 232.098L87.3486 244.329Z" fill="#007AC9"/>
<path d="M136.095 265.681C134.666 265.681 133.238 265.481 131.853 265.084L92.2596 253.712C88.096 252.517 85.1885 248.657 85.1885 244.326C85.1885 243.356 85.8368 242.505 86.7714 242.247L131.1 230.017C132.754 229.561 133.922 228.044 133.937 226.327L135.532 39.3514C135.55 36.991 136.786 34.8838 138.84 33.7163C140.894 32.5487 143.338 32.5639 145.377 33.7593L181.682 54.5422C185.043 56.4645 187.13 60.0659 187.13 63.9358V245.385C187.13 248.571 184.744 251.871 184.473 252.236C184.405 252.327 184.331 252.41 184.25 252.489C183.047 253.667 181.556 254.507 179.937 254.923L139.911 265.198C138.66 265.519 137.374 265.679 136.092 265.679L136.095 265.681ZM89.7422 245.904C90.2715 247.636 91.6518 249.047 93.4525 249.564L133.045 260.935C134.935 261.477 136.938 261.508 138.843 261.019L178.869 250.744C179.702 250.531 180.472 250.111 181.112 249.523C181.809 248.533 182.817 246.654 182.817 245.385V63.9358C182.817 61.6083 181.561 59.4454 179.542 58.288L143.216 37.4925C142.198 36.8973 141.312 37.2772 140.975 37.4671C140.641 37.6571 139.858 38.2269 139.851 39.3843L138.255 226.365C138.225 229.999 135.755 233.213 132.25 234.178L89.7422 245.904Z" fill="#007AC9"/>
<path d="M133.438 324.905C125.734 324.905 119.488 319.963 119.488 313.87V254.535C119.488 248.441 125.734 244.199 133.438 244.199C141.142 244.199 147.388 248.441 147.388 254.535V313.87C147.388 319.963 141.142 324.905 133.438 324.905Z" fill="#E5F2FA"/>
<path d="M133.438 327.063C124.556 327.063 117.33 321.144 117.33 313.87V254.533C117.33 247.411 124.254 242.039 133.438 242.039C142.621 242.039 149.545 247.411 149.545 254.533V313.87C149.545 321.144 142.32 327.063 133.438 327.063ZM133.438 246.357C126.716 246.357 121.646 249.873 121.646 254.535V313.873C121.646 318.768 126.936 322.749 133.438 322.749C139.939 322.749 145.23 318.768 145.23 313.873V254.535C145.23 249.873 140.159 246.357 133.438 246.357Z" fill="#007AC9"/>
<path d="M76.4809 170.064C70.8989 168.991 69.5287 191.602 85.9606 194.76L103.76 198.182L107.658 173.291L76.4809 170.064Z" fill="#007AC9"/>
<path d="M103.76 200.338C103.623 200.338 103.489 200.325 103.352 200.3L85.5526 196.878C72.9704 194.46 69.3284 181.791 70.8278 173.993C71.1646 172.238 71.7724 170.762 72.5854 169.726C73.6871 168.318 75.2092 167.667 76.782 167.928L107.883 171.147C108.47 171.207 109.01 171.509 109.37 171.977C109.729 172.446 109.884 173.043 109.793 173.629L105.895 198.519C105.804 199.097 105.482 199.613 105.003 199.95C104.636 200.209 104.203 200.343 103.762 200.343L103.76 200.338ZM76.1514 172.198C75.5385 172.636 74.3659 175.472 75.0168 179.983C75.4853 183.222 77.5291 190.942 86.3681 192.641L101.974 195.64L105.176 175.204L76.2603 172.213C76.2248 172.21 76.1894 172.205 76.1539 172.2L76.1514 172.198Z" fill="#007AC9"/>
<path d="M129.38 199.062C129.38 185.218 121.035 173.996 110.742 173.996C100.45 173.996 92.1045 185.218 92.1045 199.062C92.1045 212.905 100.45 224.127 110.742 224.127C121.035 224.127 129.38 212.905 129.38 199.062Z" fill="#007AC9"/>
<path d="M90.7043 201.291C89.9901 201.291 89.4102 200.711 89.4102 199.997C89.4102 194.03 90.874 188.405 93.6422 183.732C94.0069 183.117 94.8022 182.914 95.4151 183.279C96.0305 183.644 96.2331 184.439 95.8684 185.052C93.3712 189.266 91.996 194.575 91.996 199.997C91.996 200.711 91.416 201.291 90.7018 201.291H90.7043Z" fill="#E5F2FA"/>
<path d="M129.348 197.708C98.0824 194.474 100.357 172.538 76.4814 170.066L107.658 173.293C122.867 173.293 129.348 185.842 129.348 197.708Z" fill="#E5F2FA"/>
<path d="M127.628 191.685C127.106 191.685 126.615 191.368 126.417 190.852C124.73 186.435 120.676 178.586 112.467 175.658C111.794 175.418 111.442 174.678 111.682 174.004C111.923 173.331 112.662 172.981 113.336 173.219C122.519 176.496 126.987 185.092 128.833 189.927C129.089 190.596 128.755 191.343 128.086 191.599C127.934 191.657 127.777 191.685 127.625 191.685H127.628Z" fill="#007AC9"/>
<path d="M76.4809 111.885C70.8989 110.811 69.5287 133.422 85.9606 136.581L103.76 140.002L107.658 115.111L76.4809 111.885Z" fill="#007AC9"/>
<path d="M103.76 142.158C103.623 142.158 103.489 142.145 103.352 142.12L85.5526 138.699C72.9704 136.28 69.3284 123.612 70.8278 115.814C71.1646 114.058 71.7724 112.582 72.5854 111.546C73.6871 110.138 75.2118 109.487 76.782 109.748L107.883 112.967C108.47 113.028 109.01 113.329 109.37 113.798C109.729 114.266 109.884 114.864 109.793 115.449L105.895 140.34C105.804 140.917 105.482 141.434 105.003 141.771C104.636 142.029 104.203 142.163 103.762 142.163L103.76 142.158ZM76.1514 114.015C75.5385 114.454 74.3659 117.29 75.0168 121.801C75.4853 125.04 77.5291 132.759 86.3681 134.459L101.974 137.458L105.176 117.022L76.2603 114.031C76.2248 114.028 76.1894 114.023 76.1539 114.018L76.1514 114.015Z" fill="#007AC9"/>
<path d="M129.38 140.882C129.38 127.039 121.035 115.816 110.742 115.816C100.45 115.816 92.1045 127.039 92.1045 140.882C92.1045 154.725 100.45 165.948 110.742 165.948C121.035 165.948 129.38 154.725 129.38 140.882Z" fill="#FED100"/>
<path d="M90.7043 143.108C89.9901 143.108 89.4102 142.528 89.4102 141.813C89.4102 135.846 90.874 130.224 93.6422 125.549C94.0069 124.933 94.8022 124.731 95.4151 125.095C96.0305 125.46 96.2331 126.255 95.8684 126.868C93.3712 131.083 91.996 136.391 91.996 141.813C91.996 142.528 91.416 143.108 90.7018 143.108H90.7043Z" fill="#E5F2FA"/>
<path d="M129.348 139.524C98.0824 136.287 100.357 114.355 76.4814 111.883L107.658 115.109C122.867 115.109 129.348 127.659 129.348 139.524Z" fill="#E5F2FA"/>
<path d="M127.628 133.505C127.106 133.505 126.615 133.188 126.417 132.672C124.73 128.255 120.676 120.406 112.467 117.478C111.794 117.238 111.442 116.498 111.682 115.825C111.923 115.151 112.662 114.801 113.336 115.04C122.519 118.317 126.987 126.913 128.833 131.747C129.089 132.416 128.755 133.163 128.086 133.419C127.934 133.477 127.777 133.505 127.625 133.505H127.628Z" fill="#007AC9"/>
<path d="M76.4809 53.705C70.8989 52.6312 69.5287 75.2426 85.9606 78.4008L103.76 81.8225L107.658 56.9316L76.4809 53.705Z" fill="#007AC9"/>
<path d="M103.76 83.9785C103.623 83.9785 103.489 83.9658 103.352 83.9405L85.5526 80.5189C72.9704 78.1002 69.3284 65.4319 70.8278 57.6338C71.1646 55.8787 71.7724 54.4022 72.5854 53.3663C73.6871 51.9582 75.2118 51.3073 76.782 51.5682L107.883 54.7872C108.47 54.8479 109.01 55.1493 109.37 55.6179C109.729 56.0864 109.884 56.6841 109.793 57.2691L105.895 82.16C105.804 82.7374 105.482 83.2541 105.003 83.591C104.636 83.8493 104.203 83.9835 103.762 83.9835L103.76 83.9785ZM76.1514 55.8357C75.5385 56.2738 74.3659 59.1104 75.0168 63.621C75.4853 66.8603 77.5291 74.5798 86.3681 76.2792L101.974 79.2779L105.176 58.8419L76.2603 55.8509C76.2248 55.8483 76.1894 55.8433 76.1539 55.8382L76.1514 55.8357Z" fill="#007AC9"/>
<path d="M129.38 82.7023C129.38 68.8589 121.035 57.6367 110.742 57.6367C100.45 57.6367 92.1045 68.8589 92.1045 82.7023C92.1045 96.5458 100.45 107.768 110.742 107.768C121.035 107.768 129.38 96.5458 129.38 82.7023Z" fill="#007AC9"/>
<path d="M90.7043 84.9279C89.9901 84.9279 89.4102 84.3479 89.4102 83.6337C89.4102 77.6668 90.874 72.0443 93.6422 67.3691C94.0069 66.7536 94.8022 66.551 95.4151 66.9157C96.0305 67.2804 96.2331 68.0757 95.8684 68.6886C93.3712 72.9029 91.996 78.2113 91.996 83.6337C91.996 84.3479 91.416 84.9279 90.7018 84.9279H90.7043Z" fill="#E5F2FA"/>
<path d="M129.348 81.3444C98.0824 78.1077 100.357 56.175 76.4814 53.7031L107.658 56.9297C122.867 56.9297 129.348 69.479 129.348 81.3444Z" fill="#E5F2FA"/>
<path d="M127.628 75.3215C127.106 75.3215 126.615 75.0049 126.417 74.4882C124.73 70.0713 120.676 62.2226 112.467 59.2949C111.794 59.0543 111.442 58.3148 111.682 57.6411C111.923 56.9674 112.662 56.6179 113.336 56.8559C122.519 60.1332 126.987 68.729 128.833 73.5638C129.089 74.2324 128.755 74.9796 128.086 75.2354C127.934 75.2936 127.777 75.3215 127.625 75.3215H127.628Z" fill="#007AC9"/>
</g>
</svg>
